<svg xmlns="http://www.w3.org/2000/svg" width="50" height="50" fill="none"><mask id="a" width="48" height="43" x="2" y="4" maskUnits="userSpaceOnUse" style="mask-type:luminance"><path fill="#5479F7" d="M2.754 4H50v42.713H2.754V4Z"/></mask><g mask="url(#a)"><path fill="#5479F7" fill-rule="evenodd" d="m28.908 9.228.34-2.614C29.434 5.198 28.416 4 27.027 4H9.938C8.67 4 7.55 5.007 7.38 6.301l-4.604 36.97c-.185 1.417.833 2.616 2.223 2.616l38.452.826c1.27 0 2.39-1.008 2.559-2.302l3.968-32.568c.185-1.416-.833-2.615-2.222-2.615H28.908Z" clip-rule="evenodd"/></g><path fill="#CADDFF" fill-rule="evenodd" d="m40.646 44.022 3.926-26.763-3.492-4.164H13.147c-1.421 0-2.677 1.117-2.875 2.557l-3.905 28.37h34.279Z" clip-rule="evenodd"/><path fill="#000" fill-rule="evenodd" d="M6.226 43.32H39.96l3.877-25.698-3.298-3.825h-27.91c-1.247 0-2.36.965-2.535 2.197L6.226 43.32Zm34.042.702H5.815a.36.36 0 0 1-.27-.12.349.349 0 0 1-.084-.28l3.925-27.725c.222-1.571 1.647-2.802 3.244-2.802h28.074a.36.36 0 0 1 .273.124l3.51 4.07a.347.347 0 0 1 .08.278l-3.945 26.155a.356.356 0 0 1-.354.3Z" clip-rule="evenodd"/><path fill="#000" fill-rule="evenodd" d="M44.246 17.643h-.01l-3.897-.128a.317.317 0 0 1-.24-.128.38.38 0 0 1-.071-.282l.527-3.71c.028-.194.194-.326.372-.296.177.03.299.211.271.406l-.47 3.311 3.528.116c.18.006.321.17.316.366-.006.193-.15.345-.326.345Z" clip-rule="evenodd"/><path fill="#99B9FF" fill-rule="evenodd" d="M36.935 23.1H14.914c-.199 0-.36-.203-.36-.454s.161-.455.36-.455h22.02c.2 0 .36.204.36.455 0 .25-.16.454-.36.454ZM36.935 20.372H14.914c-.199 0-.36-.204-.36-.455s.161-.455.36-.455h22.02c.2 0 .36.204.36.455 0 .25-.16.455-.36.455ZM37.851 17.643H27.642c-.195 0-.353-.204-.353-.455s.158-.455.353-.455h10.21c.194 0 .352.204.352.455s-.158.455-.353.455ZM21.496 17.643h-5.697c-.185 0-.335-.204-.335-.455s.15-.455.335-.455h5.697c.185 0 .335.204.335.455s-.15.455-.335.455Z" clip-rule="evenodd"/><path fill="#5479F7" fill-rule="evenodd" d="M4.2 46.75c-1.2 0-2.17-.708-2.277-1.664L.01 28.054c-.132-1.173 1.07-2.225 2.543-2.225h38.728c1.2 0 2.17.71 2.277 1.665l1.913 17.032c.132 1.173-1.07 2.225-2.543 2.225H4.2Z" clip-rule="evenodd"/><mask id="b" width="47" height="23" x="0" y="24" maskUnits="userSpaceOnUse" style="mask-type:luminance"><path fill="#000" d="M0 24.977h46.367V46.75H0V24.977Z"/></mask><g mask="url(#b)"><path fill="#000" fill-rule="evenodd" d="M43.448 46.75h-27.45a.36.36 0 0 1-.356-.362c0-.2.16-.362.356-.362h27.45c.722 0 1.405-.287 1.827-.768.199-.226.425-.595.372-1.067l-1.92-17.136c-.087-.772-.918-1.354-1.933-1.354H2.92c-.723 0-1.406.287-1.828.768-.199.226-.425.595-.372 1.067l.901 8.035a.361.361 0 0 1-.314.401.358.358 0 0 1-.394-.319l-.9-8.034c-.065-.577.13-1.157.547-1.633.555-.632 1.437-1.01 2.36-1.01h38.874c1.4 0 2.51.84 2.64 1.997l1.921 17.136c.065.576-.13 1.156-.548 1.632-.555.632-1.437 1.01-2.36 1.01Z" clip-rule="evenodd"/></g></svg>