<svg width="721" height="431" xmlns="http://www.w3.org/2000/svg" xmlns:xlink="http://www.w3.org/1999/xlink"><defs><path d="M.536 32.675s3.25 19.927 11.56 36.217c-1.685 2.778-4.453 9.685-4.663 11.67-.945 8.905 3.93 31.097 4.816 41.556.107 1.263 8.168 1.52 8.815-.622-.706-12.225 5.127-42.016 5.967-48.785 1.973-15.906-4.712-62.455-4.712-62.455L15.62.19.536 32.675Z" id="a"/><path id="c" d="M0 .66h41.212v108.956H0z"/><path d="M9.111 5.624C6.083 10.742.673 22.098.915 28.798c.356 9.789 17.53 39.184 17.858 41.603.195 1.445-3.817 6.165-5.633 9.751-5.634 11.122 6.15 39.399 5.87 47.08-.015.406 3.754 1.503 5.658-.372 3.87-30.923 5.244-51.685 6.136-56.12 1.104-5.5-8.25-53.354-8.57-69.858A19.384 19.384 0 0 0 19.81.726c-5.589 0-9.328 2.581-10.699 4.898Z" id="e"/><path id="g" d="M.228.921h8.237v4.91H.228z"/><path d="M.81 35.942S12.326 65.16 15.12 73.005c-1.27 3.105-3.41 6.7-3.306 8.76.472 9.232 6.937 24.847 9.526 35.37.313 1.27 7.164.71 7.478-1.58-2.69-12.352.975-36.04.74-43.079-.552-16.54-10.15-62.924-10.15-62.924L10.956.372.81 35.943Z" id="i"/><path id="k" d="M.08.04h22.747v21.535H.08z"/><path id="m" d="M.325.074h98.067v120.589H.325z"/><path d="M720.643 208.594c2.548 42.605-8.553 86.305-32.745 121.22-45.762 66.046-128.512 94.823-207.314 100.038-78.802 5.214-157.586-8.994-236.549-9.531-48.006-.327-95.888 4.4-143.805 7.416-25.669 1.614-53.7 2.045-74.253-13.813-27.94-21.556-30.194-64.218-21.42-98.947 19.167-75.87 80.952-138.721 155.05-157.726 21.306-5.464 43.37-7.544 64.472-13.79 16.22-4.801 33.288-11.331 43.75-24.879 12.06-15.614 24.785-30.517 39.115-44.078 28.344-26.825 61.744-48.573 98.75-61.012 37.1-12.47 79.3-15.455 118.034-12.362 59.917 4.786 136.792 27.262 164.824 85.824 9.686 20.236 12.08 38.692 17.929 59.496.742 2.64 1.5 5.243 2.26 7.824 5.303 18 10.737 34.852 11.902 54.32Z" id="o"/></defs><g fill="none" fill-rule="evenodd"><path d="M12.259 154.274c-5.303 18-10.737 34.852-11.902 54.32C-2.19 251.2 8.91 294.9 33.102 329.814c45.762 66.046 128.512 94.823 207.314 100.038 78.802 5.214 157.586-8.994 236.549-9.531 48.006-.327 95.888 4.4 143.805 7.416 25.669 1.614 53.7 2.045 74.253-13.813 27.94-21.556 30.194-64.218 21.42-98.947-19.167-75.87-80.952-138.721-155.05-157.726-21.306-5.464-43.37-7.544-64.472-13.79-16.22-4.801-33.288-11.331-43.75-24.879-12.06-15.614-24.785-30.517-39.115-44.078-28.344-26.825-61.744-48.573-98.75-61.012-37.1-12.47-79.3-15.455-118.034-12.362C137.355 5.916 60.48 28.392 32.448 86.954c-9.686 20.236-12.08 38.692-17.929 59.496-.742 2.64-1.5 5.243-2.26 7.824" fill="#EDEEFF"/><path d="M183.346 144.14c-1.839-17.466-10.857-23.82-21.726-23.82-3.61 0-7.008.906-10.017 2.479-1.883-5.717-7.15-9.841-13.369-9.841-6.963 0-12.735 5.169-13.892 11.963-3.288-2.864-7.54-4.6-12.196-4.6-7.209 0-13.467 4.149-16.639 10.238a18.436 18.436 0 0 0-10.4-2.205c-8.545.7-15.235 7.42-16.902 15.787h115.141ZM202.138 102.19c-2.4-11.59-9.18-15.953-17.201-15.953-2.969 0-5.762.767-8.235 2.1-1.549-4.844-5.879-8.337-10.991-8.337-5.724 0-10.469 4.379-11.42 10.133-2.704-2.425-6.2-3.896-10.026-3.896-5.927 0-11.072 3.513-13.679 8.672a14.777 14.777 0 0 0-8.55-1.868c-5.559.469-10.166 4.13-12.526 9.15h92.628ZM482.981 128.202c-.974-14.418-7.802-19.608-16.099-19.608-2.653 0-5.15.685-7.362 1.877-1.383-4.33-5.255-7.453-9.824-7.453-5.118 0-9.36 3.915-10.21 9.059-2.417-2.168-5.542-3.483-8.963-3.483-5.298 0-9.897 3.14-12.228 7.752a13.218 13.218 0 0 0-7.644-1.67c-6.792.573-11.997 6.477-12.65 13.526h84.98Z" fill="#D5D7F8"/><path d="M210.195 357.59c-.87-.141-.748 1.978-.432 2.146 2.12 1.126 7.335 1.275 11.438 1.568 4.794.342 9.722.085 10.135-.637.362-.637.859-1.922-.855-2.752-.788-.381-11.66-1.055-11.908-.99-.249.065-8.378.664-8.378.664" fill="#072B45"/><path d="M215.536 342.527c.177 3.17 1.947 9.156 2.505 10.333.22.464 2.567 3.137 1.283 4.506-1.973 2.103-6.924 2.388-8.192-2.571 1.296-5.273-2.253-9.945-2.253-11.514 0-1.57 6.564-2.433 6.657-.754M182.462 344.45c-1.504 3.928-.977 7.901-.527 9.023.224.556 2.218 6.846-3.343 5.116-3.619-1.125-3.558-1.97-3.4-2.845.822-4.552.51-9.476.51-10.973 0-1.496 7.313-1.768 6.76-.32" fill="#F7B690"/><path d="M173.82 358.16c-.705-.16-.448 2.313-.256 2.57.192.256 3.987 1.105 8.053 1 3.681-.094 6.019-.292 6.316-.975.152-.35-.082-1.953-.797-2.409-.63-.402-6.709-.78-6.914-.725-.204.056-6.402.538-6.402.538" fill="#072B45"/><g transform="translate(198.29 233.282)"><mask id="b" fill="#fff"><use xlink:href="#a"/></mask><path fill="#001B44" mask="url(#b)" d="M.536 123.639h28.468V.19H.536z"/><path d="M.357 26.469V88.363h-.22c1.55.273 3.137.343 4.74.193 12.827-1.201 21.93-16.072 20.332-33.217-.798-8.573-4.12-16.091-8.846-21.315-2.364-2.613-5.077-4.651-8.002-5.962a19.175 19.175 0 0 0-4.528-1.4 17.878 17.878 0 0 0-3.54-.265h.064v.072Z" fill="#001B44" mask="url(#b)"/><path d="M.357 27.947v58.947H.226a16.93 16.93 0 0 0 4.513.184c12.216-1.143 20.886-15.307 19.365-31.636C22.583 39.113 11.447 26.803-.769 27.947H.357Z" fill="#001A43" mask="url(#b)"/><path d="M.357 29.425v56H.314c1.403.246 2.837.31 4.288.175 11.605-1.087 19.841-14.543 18.396-30.055-1.445-15.511-12.024-27.206-23.63-26.12h.989Z" fill="#001943" mask="url(#b)"/><path d="M.357 30.904V83.75H-.59c.329.08.658.148.99.206 1.33.234 2.689.294 4.063.165C15.46 83.092 23.261 70.344 21.892 55.65 20.523 40.953 10.5 29.875-.494 30.904h.85Z" fill="#001842" mask="url(#b)"/><path d="M.357 32.382v49.91h-.803c.31.075.622.14.936.195 1.255.22 2.538.278 3.836.156 10.383-.972 17.753-13.011 16.46-26.89C19.493 41.872 10.028 31.41-.356 32.381h.713Z" fill="#001741" mask="url(#b)"/><path d="M.357 33.86V80.834h-.66a13.559 13.559 0 0 0 4.491.331c9.773-.915 16.709-12.246 15.492-25.31C18.463 42.794 9.555 32.946-.218 33.86h.575Z" fill="#001641" mask="url(#b)"/><path d="M.357 35.339v44.038H-.16a12.695 12.695 0 0 0 4.211.31c9.162-.858 15.664-11.48 14.523-23.727C17.434 43.713 9.081 34.48-.081 35.339h.438Z" fill="#001540" mask="url(#b)"/><path d="M.357 36.817V77.709H-.778c.503.156 1.015.28 1.532.37 1.033.182 2.09.229 3.16.13 8.55-.802 14.619-10.716 13.554-22.146-1.064-11.43-8.86-20.047-17.411-19.246h.3Z" fill="#00143F" mask="url(#b)"/><path d="M.357 38.295V76.266h-.938c.469.146.942.26 1.423.345.96.168 1.94.212 2.934.119 7.94-.743 13.575-9.95 12.587-20.563C15.373 45.553 8.135 37.55.195 38.295h.162Z" fill="#00133E" mask="url(#b)"/><path d="M.357 39.773v35.05h-.74c.432.134.87.24 1.313.319.885.155 1.792.196 2.708.11 7.33-.686 12.532-9.184 11.618-18.981-.912-9.798-7.594-17.184-14.924-16.498h.025Z" fill="#00123E" mask="url(#b)"/><path d="M.47 41.252c-.42.04-.832.107-1.236.2H.357v31.93h-.542c.395.122.797.22 1.202.29.812.143 1.643.18 2.484.101 6.718-.628 11.486-8.419 10.65-17.4-.837-8.98-6.962-15.75-13.68-15.121" fill="#00113D" mask="url(#b)"/><path d="M.608 42.73a8.398 8.398 0 0 0-1.124.182h.873V71.94H.011c.36.111.725.2 1.094.264.739.13 1.494.164 2.258.092 6.107-.571 10.442-7.654 9.681-15.818-.76-8.164-6.328-14.319-12.436-13.747" fill="#000F3C" mask="url(#b)"/><path d="M.746 44.208a7.675 7.675 0 0 0-1.012.164h.623v25.762H-.747c1.254.562 2.597.812 3.971.683 5.497-.515 9.399-6.888 8.715-14.236-.685-7.349-5.696-12.887-11.193-12.373" fill="#000E3C" mask="url(#b)"/><path d="M.883 45.686c-.61.058-1.2.196-1.76.408H.357v22.638h-.8c1.114.5 2.308.721 3.53.607 4.886-.458 8.354-6.123 7.746-12.655-.61-6.531-5.063-11.455-9.95-10.998" fill="#000D3B" mask="url(#b)"/><path d="M1.021 47.165c-.535.05-1.049.171-1.54.356h.876V67.33H-.14c.975.437 2.02.631 3.089.531 4.276-.4 7.31-5.358 6.778-11.072-.532-5.715-4.43-10.023-8.706-9.623" fill="#000C3A" mask="url(#b)"/><path d="M1.159 48.643c-.458.043-.9.146-1.32.305h.518v16.98H.164c.836.374 1.731.54 2.647.454 3.665-.343 6.267-4.592 5.81-9.49-.457-4.899-3.797-8.592-7.462-8.25" fill="#000B3A" mask="url(#b)"/><path d="M1.297 50.121a4.368 4.368 0 0 0-2.099.782h1.16v13.028h-.893c.318.238.654.438 1.003.594.696.311 1.442.45 2.206.379 3.054-.286 5.221-3.827 4.841-7.909-.38-4.082-3.165-7.16-6.218-6.874" fill="#000A39" mask="url(#b)"/><path d="M1.434 51.6a3.489 3.489 0 0 0-1.678.626h.601v9.761h-1.11c.9.994 2.068 1.553 3.289 1.438 2.444-.228 4.177-3.06 3.873-6.326-.304-3.267-2.532-5.729-4.975-5.5" fill="#000938" mask="url(#b)"/><path d="M1.572 53.078c-.916.085-1.7.66-2.225 1.518h1.01v6.272h-.426c.675.747 1.551 1.165 2.467 1.079 1.832-.17 3.133-2.296 2.905-4.745-.228-2.45-1.899-4.296-3.731-4.124" fill="#000837" mask="url(#b)"/><path d="M1.71 54.556c-1.222.114-2.089 1.53-1.936 3.163.151 1.633 1.265 2.864 2.487 2.75 1.221-.114 2.088-1.531 1.936-3.164-.152-1.633-1.266-2.864-2.487-2.75" fill="#000737" mask="url(#b)"/><path d="M1.848 56.034c-.611.058-1.045.766-.969 1.582.076.816.633 1.432 1.244 1.375.61-.057 1.044-.766.968-1.582-.076-.817-.633-1.432-1.243-1.375" fill="#000636" mask="url(#b)"/></g><g transform="translate(173 243.61)"><mask id="d" fill="#fff"><use xlink:href="#c"/></mask><path d="M10.363.66c-3.014 14.639-.095 41.483-.1 54.575-4.23 3.222-8.294 7.233-8.832 9.088-3.42 11.777.364 42.976.364 44.069.779 1.457 8.56 1.973 8.492-.497 4.69-30.037 10.686-41.231 13.113-47.66C33.293 34.037 41.212 4.483 41.212 4.483L10.362.66Z" fill="#001B44" mask="url(#d)"/></g><path d="M180.949 351.62c.805.028 1.973 1.825 2.62 3.715.754.797 2.126 1.084 2.842 2.15.499.74 1.126 2.045.857 2.397-.939 1.228-12.896 1.022-13.325-.085-.558-1.44.61-2.757.778-4.174.14-1.172.406-2.64.686-2.218.506.762.183 2.403 1.38 2.572 1.115-3.297 2.837-4.403 4.162-4.357M210.228 358.238c.342 1.215 17.75 3.182 20.247 1.56 1.327-.863.147-1.849-1.354-2.482-1.748-.733-5.979-2.485-7.603-3.209-1.337-.592-1.66-1.118-2.147-2.121-.203-.42-.507-.76-.686-.631-.535.385-.644 1.71-.415 2.76.224 1.028.466 2.009.046 2.234-.76.408-1.32.256-1.898-.115-2.4.278-5.416-.152-5.88-.834-.356.862-.663 1.605-.31 2.838" fill="#232B59"/><path d="M223.62 187.09c4.917-1.284 25.509 32.86 25.509 32.86l-22.863 12.036s-13.479-42.065-2.646-44.895" fill="#F7F6F1"/><path d="m223.62 187.09.072.279c-1.09.284-1.969 1.023-2.611 2.195-4.786 8.73 4.277 38.547 5.355 42.008l22.29-11.735c-5.821-9.624-21.201-33.468-25.034-32.468l-.072-.278Zm2.478 45.309-.105-.325c-.434-1.357-10.59-33.345-5.414-42.786.72-1.316 1.72-2.149 2.969-2.475 4.979-1.305 23.707 29.475 25.826 32.988l.158.26-23.434 12.338Z" fill="#929EE0"/><path d="M203.888 180.094c-4.591.854-21.305 2.834-26.972 13.118-2.388 4.332 5.217 37.488 4.595 40.674-.622 3.186-1.31 23.626-.648 24.492 2.624 3.442 39.652 4.011 44.37-3.124 1.337-2.023-1.362-18.418-.838-21.968.458-3.1 6.576-38.257 1.74-44.614-4.007-5.27-22.247-8.578-22.247-8.578" fill="#F7F6F1"/><path d="M203.888 180.385a93.43 93.43 0 0 1-1.34.232c-6.06 1.026-20.254 3.428-25.382 12.733-1.433 2.601 1.001 16.783 2.78 27.138 1.168 6.812 2.092 12.193 1.846 13.453-.678 3.476-1.242 23.214-.694 24.276 1.205 1.577 11.025 2.623 21.442 2.269 12.1-.408 20.493-2.424 22.454-5.39.71-1.072.12-7.29-.353-12.284-.39-4.12-.759-8.013-.53-9.569.035-.235.103-.658.197-1.24 5.215-32.524 3.24-41 1.6-43.157-3.792-4.988-20.95-8.26-22.02-8.46m-5.356 80.741c-8.382 0-16.594-.866-17.896-2.574-.791-1.037.07-22.037.594-24.722.226-1.157-.736-6.758-1.849-13.247-1.892-11.019-4.247-24.734-2.715-27.512 5.26-9.547 19.646-11.98 25.787-13.02.536-.091 1.002-.17 1.383-.24l.051-.01.052.01c.75.135 18.396 3.388 22.425 8.686 2.97 3.908 2.456 18.983-1.492 43.597-.092.578-.16.998-.194 1.233-.22 1.486.147 5.345.533 9.43.653 6.894 1.023 11.5.26 12.655-3.057 4.624-18.31 5.49-22.912 5.647-1.327.045-2.68.067-4.027.067" fill="#929EE0"/><path d="M219.345 160.243c.915 1.884-1.266 10.381-2.556 10.724-2.906.772-12.166 1.136-13.896.051-1.731-1.084-1.903-8.274-.08-12.102 2.317-4.864 14.739-2.367 16.532 1.327" fill="#F7F6F1"/><path d="M209.033 156.504h-.055c-1.758.007-4.863.345-5.907 2.535-1.818 3.819-1.577 10.764-.026 11.736 1.621 1.017 10.783.681 13.672-.086.029-.008.3-.105.77-1.137 1.186-2.597 2.233-7.88 1.6-9.183-.985-2.03-5.767-3.865-10.054-3.865m-.617 15.487c-2.544 0-4.836-.204-5.674-.73-1.94-1.214-2.05-8.557-.188-12.469.873-1.833 3.154-2.85 6.421-2.862 4.062.007 9.42 1.7 10.627 4.187.775 1.596-.445 7.159-1.595 9.673-.534 1.173-.91 1.392-1.144 1.454-1.571.418-5.213.747-8.447.747" fill="#929EE0"/><path d="M203.113 165.733c-.77 6.96-2.635 17.036-3.153 18.283-.518 1.246 4.536 4.024 8.186 4.052 5.034.036 7.98-1.87 7.98-3.013 0-1.143-1.658-9.661-1.658-9.661l-3.943-8.743-7.412-.918Z" fill="#F3A088"/><path d="M214.033 158.858c3.278.975 5.82 2.717 4.156 8.46-1.665 5.744-2.276 7.104-4.636 9.728-2.36 2.624-9.293-2.37-9.69-2.532-.396-.16-.163-6.239-.62-7.445-.458-1.206-1.538-3.196-.893-4.048.643-.853 1.854.578 1.854.578s.187-7.606 9.829-4.74" fill="#F7B690"/><path d="M213.093 170.65c.88.036 3.654 1.52 4.168 2.28.515.76-1.5 6.634-3.008 7.31-1.51.678-4.305 1.12-5.435 1.012-1.13-.108-4.306-2.815-4.907-3.373-.601-.558-1.362-8.534-.584-10.496.776-1.963.326-4.556 1-4.035.676.522-.432 6.135.566 7.221.997 1.086 6.64.015 8.2.08" fill="#F7F6F1"/><path d="M204.222 163.775c-.034.215-.058.518-.08.78-.068.823-.16 1.95-.55 2.933-.776 1.96.036 9.615.518 10.185.97.897 3.81 3.204 4.735 3.294 1.113.105 3.877-.354 5.29-.988.698-.313 1.758-2.238 2.466-4.477.47-1.484.509-2.266.423-2.411-.44-.651-3.13-2.121-3.943-2.155-.45-.017-1.28.064-2.24.16-3.04.3-5.424.469-6.159-.333-.63-.685-.542-2.629-.457-4.51.038-.864.089-1.996-.003-2.478m4.98 17.78c-.152 0-.29-.006-.41-.018-1.376-.131-5.04-3.414-5.076-3.447-.755-.7-1.416-8.895-.655-10.813.357-.904.446-1.982.511-2.77.07-.86.11-1.334.437-1.479.107-.049.282-.071.493.093.403.312.379 1.297.294 3.159-.068 1.512-.16 3.584.308 4.094.6.655 3.78.34 5.68.15.983-.098 1.83-.184 2.32-.16 1.011.04 3.845 1.592 4.395 2.406.224.332.155 1.147-.207 2.421-.502 1.772-1.74 4.78-2.922 5.312-1.37.614-3.822 1.051-5.168 1.051" fill="#929EE0"/><path d="M249.825 193.57c.47.033.886 1.657.854 2.214-.03.557-1.02 1.36-1.02 1.36l-2.081-.081s.8-1.064 1.042-1.536.687-1.995 1.205-1.958M267.68 295.476c1.563 11.853-20.165 47.986-19.596 53.557 2.857 4.055 4.283 7.795 4.665 8.696-2.14.179-4.05.698-5.013 1.732-3.663-2.576-5.346-7.022-5.54-8.005-.079-.39.21-2.062.21-2.431 0-.804-1.095-37.082 1.783-43.76 2.025-4.696 9.008-6.126 12.812-8.17 4.215-2.266 10.679-1.619 10.679-1.619" fill="#F3A088"/><path d="M245.926 357.817c-.32 1.064-.897 2.517-.883 3.139.003.124.084.377-.011.396-.327.066-1.356 0-1.356 0l-1.223-1.414.222-4.02 3.25 1.9Z" fill="#062338"/><path d="M251.363 356.115c5.48-.067 4.721 5.076 4.105 5.625-.528.468-6.58.511-7.626.25-1.01-.252-3.053-2.124-4.228-4.248-.245-.444-.758 1.718.061 3.61-.272.09-1.536.047-1.707-.036-.491-.237-.536-4.579-.756-4.922-1.685-2.626 1.127-6.706 1.127-6.706s-.164 1.57-.093 1.865c.417 2.047 2.725 5.478 4.638 6.7.792-1.078 3.359-2.124 4.48-2.138" fill="#4778E5"/><path d="M241.752 287.79c1.688 8.389-.309 11.053-1.406 20.219-1.392 11.629-5.093 27.175-4.258 41.483 2.856 4.055 3.322 7.224 3.704 8.123.027 1.782-2.4 3.01-3.363 4.044-4.596-2.349-6.553-8.236-6.748-9.217-.077-.391.724-2.384.712-2.753-.227-6.89-10.695-29.294-10.081-40.918.286-5.397 7.523-14.457 9.155-17.884 2.397-5.036 12.285-3.098 12.285-3.098" fill="#F3A088"/><path d="M233.95 357.817c-.32 1.064-.895 2.517-.882 3.139.003.124.083.377-.011.396-.327.066-1.357 0-1.357 0l-1.222-1.414.222-4.02 3.25 1.9Z" fill="#062338"/><path d="M239.388 356.115c5.48-.067 4.72 5.076 4.104 5.625-.527.468-6.58.511-7.625.25-1.01-.252-3.054-2.124-4.228-4.248-.246-.444-.758 1.718.06 3.61-.27.09-1.535.047-1.708-.036-.49-.237-.535-4.579-.755-4.922-1.685-2.626 1.157-6.706 1.157-6.706s-.178 1.474-.123 1.865c.417 2.047 2.726 5.478 4.639 6.7.792-1.078 3.359-2.124 4.479-2.138" fill="#4778E5"/><path d="M247.97 187.055c3.968-1.797 7.48-8.986 2.643-14.469-4.836-5.482-10.653-3.42-12.2-3.032-2.357.592-10.408 9.401-3.88 18.407 6.527 9.008 13.437-.906 13.437-.906" fill="#F7F6F1"/><path d="M242.696 169.137c-1.653 0-3.033.376-3.85.599l-.363.097c-1.112.279-4.03 2.904-5.414 6.72-.982 2.707-1.484 6.854 1.695 11.24 1.774 2.449 3.733 3.653 5.822 3.663 3.942-.035 7.118-4.52 7.15-4.565l.045-.064.071-.033c2.17-.982 4.025-3.509 4.62-6.287.596-2.793-.14-5.538-2.073-7.73-2.564-2.908-5.398-3.64-7.703-3.64m-2.157 22.892c-2.264 0-4.363-1.311-6.238-3.899-3.327-4.59-2.8-8.935-1.771-11.772 1.39-3.832 4.322-6.707 5.813-7.082.1-.025.218-.057.353-.094 2.049-.559 7.493-2.042 12.13 3.214 2.059 2.332 2.842 5.256 2.205 8.232-.624 2.917-2.576 5.58-4.872 6.656-.429.593-3.548 4.708-7.566 4.745h-.054" fill="#929EE0"/><path d="M253.068 198.861c14.613 10.66 19.148 30.6 18 34.68-1.825 6.494-7.349 9.46-14.5 4.784-7.149-4.674-10.13-44.3-3.5-39.464M269.126 296.912c-.248 4.537-3.25 10.953-3.912 12.435-1.606 3.594-42.675 2.718-47.145-2.965 0-2.662 3.604-12.428 3.579-14.27-.106-7.677-11.914-22.884-7.468-38.666 2.405-8.536 14.874-16.471 16.802-16.896 4.813-1.06 22.852 1.092 25.695 5.565 11.003 17.303 13.14 42.106 12.449 54.797" fill="#4778E5"/><path d="M242.137 194.092c-2.17-.763-13.472 3.377-14.405 5.714-.617 1.546-.986 20.402-.255 31.542.375 5.7-14.057 12.922-13.266 20.297.583 5.419 52.652 17.405 50.604 2.738-.131-.94-6.552-19.94-6.616-20.842-.651-9.158-1.802-11.863-1.413-16.613.243-2.973-3.167-16.447-3.988-17.593-1.562-2.183-7.546-4.147-10.66-5.243" fill="#232B59"/><path d="M237.907 186.646c-.311 4.912-1.272 10.077-2.1 11.627-1.167 2.181 5.138 4.26 7.78 3.559 2.643-.702 3.42-2.104 3.498-3.039.078-.935-3.097-4.024-3.653-10.596-.444-5.238-5.397-3.553-5.525-1.55" fill="#F3A088"/><path d="M250.347 177.978c1.875 7.958-.66 17.505-6.224 18.262-4.607.628-8.268-5.421-6.566-10.902-2.012-.5-2.301-2.928-1.535-3.829 1.368-1.61 2.414.6 2.414.6s.732-1.236 1.43-4.06c8.19 3.58 10.481-.071 10.481-.071" fill="#F7B690"/><path d="M240.706 170.767c2.125-6.001-1.587-14.736-6.182-12.989-4.597 1.748-1.767 9.3-1.767 9.3s-1.939-2.736-3.22-1.228c-1.402 1.653 2.253 8.158 6.728 8.628 4.475.47 4.441-3.711 4.441-3.711" fill="#F7F6F1"/><path d="M230.434 165.684c-.255 0-.478.116-.678.352-.364.429-.307 1.371.152 2.52 1.002 2.513 3.582 5.342 6.387 5.637 1.291.135 2.305-.121 3.013-.762 1.107-1.005 1.112-2.646 1.112-2.662v-.05l.016-.048c1.492-4.211.053-9.435-2.227-11.671-.777-.76-2.028-1.546-3.585-.953-4.28 1.627-1.627 8.858-1.6 8.931l.771 2.057-1.272-1.79c-.3-.422-1.253-1.525-2.052-1.56h-.037m6.51 9.117c-.227 0-.463-.013-.709-.038-3.028-.318-5.794-3.326-6.859-5.994-.555-1.392-.575-2.494-.057-3.105.329-.387.729-.573 1.177-.553.581.025 1.153.405 1.602.81-.608-2.293-1.35-7.015 2.324-8.412 1.433-.545 2.921-.162 4.187 1.08 2.398 2.353 3.92 7.818 2.383 12.228-.008.32-.105 1.95-1.297 3.034-.694.632-1.617.95-2.75.95" fill="#929EE0"/><path d="M227.732 199.806c5.707.006 4.708 31.76 3.239 34.359-3.407 6.033-12.29 6.637-16.759-.063-4.47-6.7 8.44-34.302 13.52-34.296" fill="#4778E5"/><path d="M268.171 237.271c.779-1.238.177-8.569-2.982-11.566-3.952-3.749-15.231-10.047-15.72-10.915-.88-1.56-5.224-6.909-6.06-7.594-.835-.687-3.377-1.383-4.413-1.127-1.036.256 2.87 1.432 3.075 1.623.206.19.105.332.032.794-.074.46-3.995-1.112-4.608-1.21-.615-.098-.048 2.28.21 2.637.258.357 3.199.67 3.343 1.244.145.576-2.656.137-2.757.585-.102.449 2.09.65 2.857.772.768.123 2.616 3.346 3.541 3.962.926.617 2.533.405 2.533.405s8.266 16.92 10.661 18.617c2.36 1.672 9.073 3.71 10.288 1.773" fill="#F3A088"/><path d="M220.423 227.733c4.859-5.784 18.383-16.985 20.485-17.098 2.772-.149 5.18-.077 6.943 0 1.763.078 2.986 2.737 2.695 3.039-.47.487-1.865-1.559-2.099-1.559-.233 0 1.286 2.486 1.167 3.351-.09.645-2.177.155-2.487 0-.311-.156-2.145-1.09-2.145-1.09s1.908 1.782 1.302 2.097c-.877.455-2.5-2.098-3.121-1.864-.622.234-1.4 1.404-2.954 1.987-1.554.584-2.102-.013-2.683.285-.58.299-5.777 14.619-7.071 16.025-2.19 2.38-7.498 4.326-10.218 4.248-2.72-.078-1.358-7.583.186-9.421" fill="#F7B690"/><path d="M251.314 195.857c1.185.172.69 2.135 1.037 2.208.438.094 1.267-.982 1.737-.814.647.231 3.103 4.26 3.103 4.72 0 .767-2.708 2.159-3.477 2.108-.333-.022-1.843-.745-2.19-1.258-.227-.334.415-2.808.126-3.015-.652-.468-.915 1.64-2.276 1.297-.649-.164 1.032-5.379 1.94-5.246" fill="#F3A088"/><path d="M185.02 196.433c4.008 7.844 4.747 26.296 5.89 26.89 1.594.829 28.737-8.332 28.737-8.332s2.478 1.94 1.335 4.02c-3.988 7.264-24.922 21.905-36.934 19.571-6.722-1.307-12.9-33.48-7.132-45.37 1.145-2.36 4.863-3.118 8.103 3.22" fill="#F7F6F1"/><path d="M179.541 191.78h-.027c-.997.01-1.873.592-2.34 1.557-4.603 9.485-1.388 31.733 3.07 40.68 1.276 2.56 2.61 4.04 3.858 4.283 11.681 2.27 32.49-11.887 36.63-19.427.876-1.595-.698-3.16-1.147-3.558-4.886 1.647-27.2 9.092-28.806 8.263-.518-.27-.78-1.912-1.463-6.927-.824-6.066-2.07-15.23-4.552-20.087-2.121-4.151-4.172-4.784-5.223-4.784m7.193 47.331c-.957 0-1.872-.078-2.74-.248-1.45-.281-2.884-1.826-4.262-4.59-4.613-9.258-7.825-31.393-3.074-41.187.565-1.164 1.63-1.867 2.85-1.88h.032c1.184 0 3.474.674 5.734 5.096 2.526 4.944 3.78 14.168 4.61 20.27.413 3.042.84 6.187 1.177 6.51 1.18.509 18.108-4.858 28.495-8.363l.146-.05.12.095c.925.723 2.409 2.57 1.411 4.386-3.896 7.096-22.356 19.96-34.499 19.961" fill="#929EE0"/><path d="M219.465 210.908c.468-.712 1.494-1.852 2.062-2.114.247-.114 1.367-.112 1.75-.174 1.266-.206 2.15-1.114 2.124-.271-.058 1.92-2.853 2.141-2.72 2.54.846-.269 3.7-1.413 4.715-1.45 1.089-.04 3.81.118 3.42 1.27-.183.534-2.827.348-3.302.436-.525.098-2.365.945-2.25 1.034.229.177 1.68-.379 3.414-.484 1.733-.105 3.14.12 3.345.51.346.657-.379 2.212-1.265 2.4-1.217.26-3.9.344-4.355 1.158-.177.314 3.314-.025 3.327.63.024 1.45-3.236.851-3.791.957-.771.146-4.003 1.834-5.323 1.647-1.467-.206-3.173-1.746-2.717-2.893.607-1.523 1.109-4.5 1.566-5.196" fill="#F7B690"/><path d="M302.655 198.543c.72-1.034 10.196-5.112 10.885-6.417.755-1.427-.043-23.36-.64-25.795-2.062-8.42-9.266-13.257-16.034-9.733-13.028 6.78-7.494 34.034-7.266 34.373.967 1.443 8.314 13.513 13.055 7.572" fill="#232B59"/><path d="M296.925 188.009c-8.536-.76-19.247 3.913-22.673 9.148-3.424 5.236-13.652 23.715-12.683 30.133.97 6.418 8.547 13.557 12.683 13.452 4.137-.105 5.575-7.377 6.685-6.18.665.72-1.917 4.555 2.96 7.213 4.878 2.658 37.175 9.203 37.906 1.338.732-7.866-1.549-7.097.732-7.866 2.282-.77 8.784.41 10.547-4.434 3.072-8.441-5.551-34.58-12.628-38.815-9.59-5.738-23.529-3.989-23.529-3.989" fill="#4778E5"/><path d="m316.483 365.809 1.325-.57s-.597-3.151.512-3.504c1.11-.353-2.475-1.057-2.475-1.057l-.768 2.595 1.406 2.536Z" fill="#062338"/><path d="M332.416 365.868c-.285.217-10.345.37-11.28 0-.65-.258-1.284-3.195-3.548-3.364-2.035-.154-.47 3.373-1.105 3.305-3.97-.427-4.861-.282-4.78-.605 1.217-4.89-3.076-5.21.2-10.325 1.417.473 5.56-.66 5.746-1.072 2.838 1.91 5.968 6.977 6.816 7.504 2.01 1.249 7.692 2.019 7.95 4.557" fill="#929EE0"/><path d="m278.025 364.42 1.68-1.33s-.16-2.455.78-2.758c.943-.303-2.68-1.101-2.68-1.101l-.76 3.521.98 1.668Z" fill="#062338"/><path d="M293.8 367.024c-.195.116-3.1.884-6.505.23-1.943-.372-4.69-1.09-5.938-2.086-.625-.5-.765-3.699-1.487-3.935-2.753-.9-1.506 3.266-1.845 3.187-3.346-.78-3.934-1.125-3.877-1.414.696-3.526-.784-5.117 2.184-8.293 1.272.6 5.483-1.289 5.702-1.653 2.472 2.327 5.31 8.886 6.044 9.473 1.74 1.39 5.762 2.09 5.723 4.491" fill="#929EE0"/><path d="M323.697 298.388c1.105-5.499-8.25-53.353-8.57-69.858-6.933-.874-11.563 2.105-13.122 4.742-3.029 5.119-8.44 16.474-8.196 23.173.356 9.79 17.529 39.185 17.857 41.604.196 1.446-3.817 6.165-5.633 9.75-5.633 11.123 6.151 39.399 5.87 47.08-.016.407 3.754 1.504 5.658-.372 3.871-30.922 5.245-51.684 6.136-56.119" fill="#1E205F"/><g transform="translate(292.893 227.648)"><mask id="f" fill="#fff"><use xlink:href="#e"/></mask><path fill="#1E205F" mask="url(#f)" d="M.673 128.734h31.235V.008H.673z"/><path d="M8.36 54.826c1.7-.31 3.499 1.759 4.018 4.62.519 2.863-.438 5.435-2.138 5.744-1.7.31-3.5-1.76-4.019-4.621-.519-2.862.439-5.433 2.139-5.743" fill="#F7F6F1" mask="url(#f)"/><path d="M8.701 55.082c-.097 0-.194.01-.29.026-1.542.281-2.398 2.708-1.908 5.41.242 1.334.775 2.528 1.5 3.362.69.793 1.466 1.159 2.186 1.027 1.542-.28 2.398-2.707 1.908-5.409-.242-1.334-.776-2.528-1.5-3.362-.6-.688-1.262-1.054-1.896-1.054m1.194 10.426c-.801 0-1.612-.434-2.323-1.25-.793-.911-1.372-2.203-1.632-3.637-.556-3.065.484-5.734 2.369-6.078.925-.165 1.89.263 2.719 1.215.792.912 1.371 2.203 1.632 3.638.555 3.063-.485 5.733-2.37 6.077a2.245 2.245 0 0 1-.395.035" fill="#929EE0" mask="url(#f)"/><path d="M8.673 56.554c1.133-.207 2.332 1.172 2.679 3.08.346 1.908-.292 3.622-1.426 3.828-1.133.207-2.333-1.172-2.679-3.08-.346-1.907.293-3.622 1.426-3.828" fill="#F7F6F1" mask="url(#f)"/><path d="M8.9 56.82c-.06 0-.117.005-.176.016-.96.175-1.507 1.775-1.195 3.495.312 1.719 1.386 3.026 2.346 2.85.96-.175 1.507-1.776 1.195-3.495-.158-.874-.506-1.653-.979-2.197-.379-.436-.796-.67-1.19-.67m.794 6.952c-1.212 0-2.377-1.393-2.73-3.337-.38-2.096.348-3.924 1.657-4.163.649-.117 1.326.18 1.901.842.54.62.934 1.496 1.11 2.47.38 2.095-.346 3.924-1.655 4.163-.095.016-.19.025-.283.025" fill="#929EE0" mask="url(#f)"/><path d="M8.986 58.28c.567-.102 1.166.587 1.34 1.54.173.955-.146 1.812-.713 1.915-.567.104-1.166-.586-1.34-1.54-.173-.954.147-1.81.713-1.914" fill="#F7F6F1" mask="url(#f)"/><path d="M9.038 58.563c-.352.065-.637.73-.483 1.58.155.852.652 1.382 1.007 1.31.168-.03.32-.197.416-.456.115-.31.14-.72.067-1.124-.155-.852-.663-1.383-1.007-1.31m.461 3.47c-.676 0-1.318-.744-1.507-1.786-.204-1.127.21-2.114.943-2.25.735-.133 1.467.646 1.673 1.773.092.511.06 1.018-.093 1.428-.172.46-.473.75-.85.82a.897.897 0 0 1-.166.014" fill="#929EE0" mask="url(#f)"/></g><path d="M301.1 296.677c2.772-6.827-1.984-38.52 8.344-68.303-6.649-2.156-16.85-.27-18.873 2.029-3.928 4.462-11.357 14.607-12.365 21.233-1.473 9.685 9.762 40.289 9.634 42.727-.077 1.456-4.15 6.365-6.493 9.631-7.913 11.032-3.312 43.284-5.02 50.777-.09.397 6.658 1.729 6.436-.92 9.558-29.657 16.636-52.985 18.337-57.174" fill="#1E205F"/><path d="M295.442 190.532c-2.309 1.04-5.643 7.036-6.439 9.69-1.234 4.117 4.451 15.314.105 29.25-2.26 7.251 27.505 7.507 27.063 4.782-1.523-9.376 1.078-28.169.081-33.144-.791-3.952-4.87-9.625-8.691-11.693-2.596-1.405-5.988-1.65-12.119 1.115" fill="#F7F6F1"/><path d="M298.719 173.28c-.344 5.406-2.365 15.545-3.277 17.251-1.284 2.402 5.657 4.69 8.566 3.919 2.909-.772 3.765-2.317 3.85-3.346.086-1.029-2.445-8.882-3.057-16.118-.49-5.766-5.942-3.91-6.082-1.707" fill="#F3A088"/><path d="M308.676 161.664c4.825 7.955 2.706 20.016-2.074 21.144-2.764.653-10.224-3.718-9.78-10.021-2.282-.028-3.203-2.557-2.61-3.716 1.062-2.071 2.738.032 2.738.032l11.726-7.44Z" fill="#F7B690"/><path d="M283.626 239.152c-1.602 3.832-3.992 15.176-5.561 18.837-1.204 2.807-1.365 2.857-2.514 1.895-1.148-.962-1.458-3.412-2.57-5.508-1.11-2.097-.83-3.962 1.575-4.911 2.406-.95 0-10.313 0-10.313h9.07Z" fill="#8AAAF2"/><path d="M272.272 251.962c-.006-1.44 1.585-2.493 1.946-2.486.714.012 2.26.602 3.02 1.92.758 1.318 1.771 1.962 2.429 1.817.294-.065-.11 1.424-.216 3.11-.132 2.085.212 4.541-1.597 4.64-.59-2.386-5.582-9-5.582-9" fill="#113D9C"/><path d="M272.616 251.06c-1.237.759.115 7.075 2.619 9.314 1.023.915 3.66 1.026 3.713-.412.093-2.519-1.878-3.105-2.724-4.782-.558-1.106-.503-2.38-1.046-3.212-.727-1.112-1.688-1.446-2.562-.909" fill="#929EE0"/><path d="M294.955 234.672c1.273 3.79-2.466 15.499-2.664 20.275-.074 1.787-.164 3.83.239 5.395.99 3.857-1.548 4.18-2.78 3.326-1.231-.853-1.824-3.006-3.121-4.992-1.297-1.986-2.075-3.542 0-5.086 2.808-2.087-2.337-14.92-2.337-14.92l10.663-3.998Z" fill="#8AAAF2"/><path d="M284.546 256.665c-.403-1.383 1.44-3.088 1.78-3.209 1.04-.369 1.954.272 3.047 1.328 1.093 1.056 2.244 1.393 2.836 1.071.592-.32 1.883 7.39-.588 8.414-1.226-2.127-7.075-7.604-7.075-7.604" fill="#113D9C"/><path d="M284.839 255.743c-.571.978-.275 1.684.54 2.68.486.594 1.299.933 1.653 1.523.947 1.58 1.703 4.322 3.388 4.597 1.685.275 2.547-1.337 2.301-2.754-.334-1.923-6.39-8.6-7.882-6.046" fill="#929EE0"/><path d="M268.476 242.177c3.587 1.603 17.81.549 18.66 1.884.9 1.412 3.823 3.125 7.496 3.378 3.841.265 5.74-5.34 5.126-6.186-.806-1.11-2.183-.426-1.965-2.615.075-.76-.962-.085-2.24.105-1.594.236-2.148-.512-3.353-.213-1.72.426-2.684.953-3.05 1.054-.987.27-20.806-10.786-23.806-9.605-3.002 1.182-4.72 8.69 3.132 12.198" fill="#F7B690"/><path d="M264.244 227.426c-1.486 5.953-1.146 8.078.391 10.902 1.537 2.823 12.035 3.546 16.387 2.415 4.353-1.133 3.992-.953 6.399-2.296s8.524-1.218 7.465-3.993c-1.965-5.145-16.267-5.538-16.267-5.538l-14.375-1.49Z" fill="#8AAAF2"/><path d="M266.363 203.955c-6.24 2.417-10.555 11.38-10.304 12.89 1.065 6.424 11.136 7.109 11.136 7.109l-.832-19.999Z" fill="#108FA8"/><path d="M266.363 203.955c-4.483 1.436-7.02 25.937-3.541 30.718 2.81 3.863 20.866-1.335 20.068-5.406-.862-4.393.762-21.48-1.544-23.956-2.304-2.478-8.473-3.441-14.983-1.356" fill="#108FA8"/><path d="M280.677 191.596c-.544-.25-.308-1.521-.455-2.412-.08.718-5.001-1.663-7.66 0-2.178 1.362-2.11 6.823-2.748 7.266-.888.072-.382 6.17 1.59 7.262 2.414 1.336 5.905.88 6.242-.151.26-.796.244-.745.368-1.513.763.179 2.038.187 2.794-.438 1.745-1.444 4.567-7.858-.131-10.014" fill="#A86C49"/><path d="M280.284 189.715c2.117-1.43-.667-7.533-7.067-6.778-6.675.787-11.393 4.854-11.393 9.566.001 6.346 5.652 9.57 7.518 10.807 1.865 1.238 5.052-.694 5.97-1.875.915-1.18.653-5.51.13-6.166-.524-.656-2.312-3.149-1.4-4.198.497-.573 1.312-.525 2.381.13 1.748-.351 3.018-.916 3.861-1.486" fill="#232B59"/><path d="M280.984 204.963c8.834 6.997 14.804-2.063 17.411-2.149 2.606-.085-1.52 11.72-7.043 12.746-5.521 1.027-12.277-1.437-14.419-5.202-2.14-3.765 4.05-5.395 4.05-5.395" fill="#108FA8"/><path d="M318.976 230.428c-5.973-2.886-22.287-7.189-23.709-7.21-.707-.01-4.822-1.911-5.877-2.32-1.053-.408 4.512-3.194 5.184-2.56.672.632 22.192-1.078 24.08 1.131 1.888 2.209.322 10.959.322 10.959" fill="#F7B690"/><path d="M293.716 222.727c-1.847-.584-5.694 2.352-8.591 1.255-1.156-.438-5.885-3.622-6.46-5.009-.572-1.386 4.237.018 5.177.026.94.008 6.407-.393 5.796-1.345-.613-.952-4.38-.25-4.315-2.353.009-.311 1.137.303 2.479.1.799-.12 1.652-.536 2.57-.47 1.968.143 4.788 2.805 4.96 3.713.17.908.848 4.863-1.616 4.083" fill="#F7B690"/><path d="M297.031 204.855c-.815-1.01-.86-2.571-.55-2.829.31-.256.89-.816 1.03-1.176s.388-.79.52-.101c.13.688-.506 1.335-.177 1.401.328.067.989-1.476 1.228-2.012.242-.542.48-.649.623-.594.247.093-.298 1.649-.135 1.704.163.055 1.102-1.523 1.48-1.368.301.123-.666 1.645-.565 1.713.1.067.881-1.001 1.077-.778.268.305-.61 1.558-.51 1.626.1.067.886-.623.995-.49.282.349-1.36 2.357-1.712 2.721-.366.377-1.562.916-2.13.897-.57-.02-1.174-.714-1.174-.714" fill="#A86C49"/><path d="M281.966 214.636a.245.245 0 0 1-.09-.017c-1.499-.597-4.352-2.619-5.408-4.425a.241.241 0 1 1 .416-.243c1.004 1.719 3.734 3.647 5.17 4.22a.242.242 0 0 1-.088.465" fill="#F47E78"/><path d="M388.23 258.436c.866 6.816 4.784 11.946 5.649 11.758.865-.189.515-2.43-.059-3.365 1.26.584 1.456 5.406 2.48 5.406 1.112 0 1.93-4.468 1.402-5.536-1.787-3.607-5.385-10.236-6.503-10.28-1.449-.059-3.112.88-2.968 2.017" fill="#714024"/><path d="M396.004 268.891c.083-.213.272-1.231-.314-1.903-.25-.285-1.12-.867-1.693-.982-.292-.058-1.263-.508-1.254-.192.029 1.14 1.117 1.173 1.483 2.125.1.26.042.834.022.997-.214 1.777-1.137.838-2.027-.412.157-.598.207-1.275-.172-1.783.521-.177.521-.69.462-.937-.141-.588-1.672-1.479-2.072.346-.605.375-1.165 2.867.98 5.19 2.145 2.324 4.637 1.034 4.637 1.034s-.878-1.352-.052-3.483" fill="#A86C49"/><path d="M391.753 266.878h-.016c-.343-.034-.696-.231-.996-.42a.167.167 0 0 1 .175-.283c.268.168.579.343.854.37a.167.167 0 0 1-.017.333M391.587 270.248c-.163 0-.353-.055-.599-.183a.168.168 0 0 1-.071-.226.167.167 0 0 1 .225-.07c.456.237.584.14.746.015.08-.061.162-.487.172-.891.001-.093.095-.166.17-.164a.166.166 0 0 1 .162.171c-.005.22-.042.949-.3 1.149-.159.122-.312.199-.505.199" fill="#E3957F"/><g transform="translate(443.697 305.58)"><mask id="h" fill="#fff"><use xlink:href="#g"/></mask><path d="M.73 2.165C2.317 1.698 3.205.961 4.367.922 5.43.886 7.903 1.928 8.435 3.112c.326.726-2.125-.178-2.952 0-.826.178-2.096.829-1.8 1.124.295.296.777.276 1.721.454.945.178 1.083.671 1.083.908 0 .236-.986 0-1.556 0-.57 0-1.573.447-3.167.105C.169 5.361.228 3.5.228 3.5L.73 2.165Z" fill="#A86C49" mask="url(#h)"/></g><path d="M430.614 328.183c-.283 9.647 5.055 32.89 5.055 32.89s-.669 2.134-2.4 1.815c-1.732-.32-11.723-20.004-12.143-31.26-.418-11.254 9.488-3.445 9.488-3.445M418.66 327.48c-3.733 8.895-7.91 33.743-7.91 33.743s-1.35 1.03-2.851.106c-1.5-.924-2.984-23.416.673-34.064 3.657-10.65 10.088.215 10.088.215" fill="#F7B690"/><path d="M445.667 308.677c.236.631-.097 1.327-1.624.923-4.387-1.161-11.823-4.647-14.535-7.9-3.655-4.387 1.865-9.746 1.865-9.746 4.933 10.566 13.378 14.273 14.294 16.723Z" fill="#A86C49"/><path d="M424.162 283.244c2.328-1.043 8.936 7.944 9.7 9.782.763 1.837-5.802 6.888-8.02 5.818-3.33-1.604-1.68-15.6-1.68-15.6M414.951 283.256c-6.171-.225-10.074 2.763-11.907 2.611-1.833-.152-2.758 10.267 8.006 12.059 4.521.752 3.901-14.67 3.901-14.67" fill="#108FA8"/><path d="M414.951 283.256c-4.86 7.125-11.002 38.25-14.057 44.07-3.055 5.818 38.544 8.498 36.404.23-2.138-8.269-6.627-37.71-13.137-44.312-1.757-1.783-9.21.012-9.21.012" fill="#232B59"/><path d="M426.398 262.342c3.22-2.06 4.479.372 4.75.934.902 1.88-1.102 5.218-2.548 5.564-.912.22-.556-1.985-1.218-2.651-1.508-1.517-2.55-.84-2.7-1.105-.129-.23.245-1.801 1.716-2.742" fill="#1E254D"/><path d="M412.12 263.365c-1.586 4.074-2.12 10.203 3.544 12.067 1.71.563 10.522-4.78 11.024-5.693.273-.496-.105-5.529-.154-6.033-.533-5.527-12.291-5.8-14.415-.34" fill="#0F132D"/><path d="M415.907 274.445c1.196 4.941.392 9.535.623 9.994.663 1.313 4.766 1.084 5.958 0 .804-.732-1.26-9.103-1.26-9.103l-5.32-.89Z" fill="#714024"/><path d="M426.497 265.096c1.833 7.794-.541 13.256-2.447 14.864-1.655 1.397-7.011-1.713-8.786-7.07-2.82-.586-2.539-3.764-.534-2.577.54-9.36 11.09-8.096 11.767-5.217" fill="#A86C49"/><path d="M408.917 263.682c-1.652.163-3.796 1.772-4.076 2.213-1.665 2.626 3.491 5.455 4.318 5.339.337-.047.895-2.653 1.795-3.672.676-.765 3.303-.542 3.415-1.094.134-.657-1.922-3.135-5.452-2.786" fill="#232B59"/><path d="M425.638 262.446c3.896 1.838 2.967 5.33 1.449 6.374-.186-.211-.511-.345-.925-.418 1.075-2.42-.705-3.987-.814-3.999.875 1.717.223 3.934.077 3.93-1.077-.028-2.447.187-3.593.458-.096-.57-.42-1.625-1.385-2.917.295 1.903.325 2.982.142 3.262-.138.046-.183-1.923-1.767-3.254.859 1.828 1.086 3.447.959 3.49-.7.233-3.024 1.01-5.051.941-2.194-1.457-1.191-6.665 5.065-8.785 1.401-.475 5.843.918 5.843.918" fill="#0F132D"/><path d="M401.153 286.04c-2.215-1.64-4.036-11.446-5.752-16.123-2.014 1.725-2.491-1.19-2.67.969-.534 6.472 1.986 20.126 4.789 21.386 1.878.845 10.926 1.862 14.956-1.662 1.593-1.394 2.475-6.146 2.475-6.146-5.56 1.731-10.902 3.719-13.798 1.575Z" fill="#A86C49"/><path d="M414.951 283.256c-6.171-.225-10.074 2.763-11.907 2.611-1.833-.152 8.006 4.743 8.006 12.059 4.521.752 3.901-14.67 3.901-14.67" fill="#108FA8"/><path d="M407.793 361.976c-.827.04-1.398 2.426-1.132 3.058.184.435 3.769 2.071 6.406 2.426 2.637.355 2.765-.411 2.657-.858-.158-.65-4.074-4.836-5.018-4.888-.945-.054-2.913.262-2.913.262" fill="#232B59"/><path d="M406.86 357.136c-.21 1.447.66 4.814.579 5.343-.106.698 2.991 2.022 4.25 2.022 1.26 0 .138-1.874-.393-2.422-.289-.297.177-4.943.177-4.943s-.728.658-2.303.578c-1.574-.079-2.31-.578-2.31-.578" fill="#FFF"/><path d="M432.859 362.369c-.73.39-.227 2.792.284 3.248.35.316 4.29.255 6.824-.555 2.536-.812 3.1-1.327 2.906-1.744-.552-1.18-6.618-2.793-7.494-2.437-.876.358-2.52 1.488-2.52 1.488" fill="#232B59"/><path d="M429.949 358.395c.43 1.397 2.651 4.068 2.805 4.581.202.675 3.567.543 4.705.002 1.138-.54-.677-1.753-1.39-2.019-.388-.145-1.476-5.061-1.476-5.061s-.853 1.424-2.31 2.029c-1.456.604-2.334.468-2.334.468" fill="#FFF"/><path d="M379.268 186.66c7.467 4.888 8.03 44.46 8.03 47.933 0 3.471 5.674 23.517 5.674 23.517s-.7 1.79-4.287 1.735c-3.585-.055-13.866-18.478-13.866-18.478l4.45-54.706Z" fill="#F7F6F1"/><path d="M375.111 241.303c2.874 5.139 10.787 18.213 13.58 18.256l.16.001c2.793 0 3.635-1.157 3.815-1.478-.492-1.743-5.654-20.11-5.654-23.49 0-10.798-1.392-42.118-7.501-47.388l-4.4 54.1Zm13.737 18.83h-.166c-3.647-.057-13.053-16.726-14.113-18.626l-.042-.076.006-.087 4.489-55.187.403.264c7.937 5.195 8.159 47.743 8.159 48.172 0 3.393 5.606 23.238 5.663 23.438l.026.093-.035.09c-.031.08-.792 1.92-4.39 1.92Z" fill="#929EE0"/><path d="M375.807 362.638c-.897-.145-.773 2.043-.446 2.217 2.188 1.162 7.573 1.315 11.81 1.618 4.949.353 10.038.089 10.463-.657.375-.659.887-1.984-.882-2.84-.814-.395-12.04-1.09-12.296-1.023-.256.067-8.65.685-8.65.685" fill="#072B45"/><path d="M381.322 347.086c.182 3.274 2.01 9.454 2.586 10.67.227.478 2.65 3.238 1.324 4.651-2.036 2.172-7.148 2.466-8.458-2.654 1.338-5.444-2.326-10.269-2.326-11.888 0-1.62 6.777-2.512 6.874-.779" fill="#F7B690"/><path d="M376.8 357.21c.128 3.07-1.652 3.673-.961 6.099.358 1.255 18.329 3.286 20.905 1.61 1.372-.894.153-1.91-1.397-2.562-1.802-.759-6.173-2.568-7.852-3.315-2.263-1.006-2.787-2.94-3.25-2.604-1.092.791-.603 4.422-1.483 4.892-1.793.957-4.881-3.46-5.567-4.254-.182-.212-.405-.105-.395.134" fill="#232B59"/><path d="M331.834 348.176c-1.552 4.056-1.008 9.578-.543 10.736.23.574 2.29 7.069-3.453 5.283-3.736-1.162-4.48-2.441-4.006-3.227 2.3-3.825 1.023-10.915 1.023-12.46 0-1.546 7.552-1.826 6.98-.332" fill="#F7B690"/><path d="M322.912 363.75c-.729-.164-.463 2.39-.264 2.654.199.265 4.117 1.142 8.315 1.034 3.8-.098 6.214-.302 6.52-1.008.157-.361-.084-2.015-.823-2.486-.65-.416-6.926-.806-7.138-.75-.212.058-6.61.557-6.61.557" fill="#072B45"/><path d="M330.272 357c.832.028 2.039 1.884 2.706 3.834.778.824 2.194 1.121 2.934 2.22.514.766 1.162 2.111.884 2.476-.968 1.267-13.315 1.054-13.758-.089-.576-1.486.63-2.846.805-4.308.16-1.343-.005-2.013.468-2.722.147-.22.514-.087.5.335-.028.926-.17 2.563 1.164 2.75 1.151-3.402 2.93-4.544 4.297-4.497" fill="#232B59"/><g transform="translate(353.777 234.22)"><mask id="j" fill="#fff"><use xlink:href="#i"/></mask><path fill="#4778E5" mask="url(#j)" d="M.81 118.404h28.983V.372H.809z"/><path d="M4.762 55.13c-.84.215-1.29 1.301-1.003 2.425.287 1.123 1.2 1.86 2.041 1.644.84-.215 1.29-1.3 1.003-2.424-.286-1.124-1.2-1.86-2.04-1.645" fill="#232B59" mask="url(#j)"/><path d="M4.935 55.808c-.56.144-.86.868-.669 1.617.192.75.8 1.24 1.361 1.096.56-.144.86-.867.67-1.616-.192-.75-.802-1.24-1.362-1.097" fill="#232B59" mask="url(#j)"/><path d="M5.108 56.487c-.28.071-.43.433-.334.808.095.375.4.62.68.548.28-.072.43-.433.334-.808-.095-.375-.4-.62-.68-.548" fill="#232B59" mask="url(#j)"/></g><path d="M337.488 245.67c-3.112 15.115-4.821 42.83-4.826 56.348-4.368 3.327-7.208 7.447-7.69 9.383-2.399 9.63-.59 37.9-.59 39.029.804 1.504 7.553 3.019 7.483.469 8.749-37.007 11.855-37.081 14.361-43.719 10.214-27.049 23.112-57.563 23.112-57.563l-31.85-3.947Z" fill="#4778E5"/><path d="M360.06 180.79c-4.663.721-25.855 1.22-31.61 9.912-2.423 3.66 7.026 56.68 8.477 58.285 2.324 2.57 33.039 6.03 37.829 0 1.358-1.71 13.85-54.445 4.513-62.327-4.72-3.982-19.21-5.87-19.21-5.87" fill="#F7F6F1"/><path d="M360.062 181.079c-.738.112-1.85.217-3.25.35-7.578.719-23.344 2.212-28.122 9.431-2.167 3.272 6.856 56.055 8.45 57.935 1.325 1.466 13.838 3.569 24.82 3.214 6.733-.215 11.08-1.323 12.572-3.2.566-.714 4.031-13.982 6.208-28.713 2.696-18.243 2.108-30.039-1.657-33.216-4.48-3.782-18.179-5.686-19.02-5.801m-.537 71.542c-10.14 0-21.379-1.858-22.811-3.441-.852-.94-3.666-15.506-5.762-28.519-1.334-8.285-4.272-27.805-2.74-30.118 4.93-7.447 20.88-8.959 28.544-9.685 1.418-.135 2.538-.241 3.26-.353l.039-.005.04.005c.595.077 14.628 1.945 19.356 5.936 5.026 4.242 3.782 20.69 1.854 33.74-2.124 14.373-5.618 28.094-6.325 28.985-2.023 2.544-8.187 3.263-13.001 3.418a78.18 78.18 0 0 1-2.454.037" fill="#929EE0"/><g transform="translate(350.967 146.899)"><mask id="l" fill="#fff"><use xlink:href="#k"/></mask><path d="M21.434 9.184c-.073.55.19 1.083.238 1.637.556 6.525-3.882 7.834-8.228 8.582-5.634.97-11.18 6.86-13.236-6.119C-.71 7.486 3.414-.646 10.243 1.498c3.123.98 1.663-2.433 8.23-1.176 7.42 1.422 3.151 7.438 2.96 8.862" fill="#0F132D" mask="url(#l)"/></g><path d="M355.621 165.665c-.049.441-1.324-4.88-1.382-4.395-.854 7.29-2.55 19.062-3.044 20.25-.525 1.265 4.607 4.086 8.313 4.113 5.112.037 8.102-1.899 8.102-3.06 0-1.159-1.683-12.885-1.683-12.885l-4.002-8.878-6.304 4.855Z" fill="#4F3323"/><path d="M365.39 156.3c1.318.598 2.69-1.465 3.542-.473 1.191 1.386 1.74 2.618 1.575 6.155-.302 6.412-3.692 13.682-5.904 13.81-6.85.394-9.654-8.607-9.723-9.036-.472-2.96-.381-3.478-.351-3.756-1.483-.175-1.696-3.369-.907-4.111 1.9-1.786.823 5.823 2.373 5.75 2.26-.105.451-6.558 2.81-8.64 1.462-1.292 3.31-1.184 6.585.301" fill="#714024"/><path d="M367.15 178.526c.58-.214 3.22 3.929 3.385 4.856.166.927-4.793 6.727-5.974 6.136-1.181-.592-2.12-2.971-2.583-3.157-.723-.288-1.158 3.748-2.594 3.748s-12.249-4.7-12.314-7.787c-.008-.35 4.801-5.952 5.08-5.808.638.332 4.9 4.275 10.109 4.275 2.715 0 4.387-2.077 4.89-2.263" fill="#4778E5"/><path d="M328.451 190.701c-9.717 12.977-12.963 35.71-12.88 42.297.086 6.665 13.423 25.388 18.736 27.105 2.396.773 4.925-1.01 4.625-3.253-.354-2.646-8.875-21.19-8.875-25.689 0-4.497 6.14-17.475 7.557-23.533 1.417-6.058-3.683-24.244-9.163-16.927" fill="#F7F6F1"/><path d="M331.083 189.284c-.805 0-1.611.53-2.403 1.59-9.356 12.495-12.914 34.887-12.821 42.12.087 6.813 13.577 25.234 18.536 26.835 1.133.366 2.391.128 3.286-.622.73-.611 1.084-1.456.969-2.318-.133-.982-1.493-4.392-3.067-8.34-2.59-6.488-5.812-14.564-5.812-17.388 0-2.67 2.093-8.196 4.117-13.54 1.47-3.88 2.86-7.545 3.447-10.059 1.029-4.399-1.673-16.334-5.398-18.079a2 2 0 0 0-.854-.2m4.386 71.29c-.42 0-.842-.066-1.249-.197-5.27-1.702-18.843-20.258-18.934-27.374-.093-7.291 3.497-29.866 12.937-42.473 1.566-2.092 3.017-2.006 3.957-1.566 4 1.874 6.802 14.069 5.713 18.73-.597 2.55-1.993 6.233-3.47 10.133-2.006 5.294-4.08 10.77-4.08 13.335 0 2.713 3.2 10.733 5.77 17.177 1.655 4.146 2.963 7.421 3.103 8.475.143 1.06-.284 2.093-1.168 2.834a4.022 4.022 0 0 1-2.58.925" fill="#929EE0"/><path d="M332.157 223.438a.334.334 0 0 1-.312-.452c2.772-7.386 5.438-15.3 4.98-23.707a.335.335 0 0 1 .314-.353.34.34 0 0 1 .35.316c.466 8.537-2.224 16.527-5.02 23.98a.334.334 0 0 1-.312.216" fill="#2553BA"/><path d="M338.009 255.625c2.742 3.43 4.826 7.104 4.8 9.174-.008.683-.392 4.429-2.4 5.992-2.008 1.563-3.582-4.712-3.425-5.125.157-.414-2.19-2.227-2.204-7.28-.007-2.761 2.565-3.591 3.229-2.761" fill="#714024"/><path d="M336.473 273.306a.444.444 0 0 1 .332-.534c6.408-1.505 6.34-9.59 5.564-16.467a.446.446 0 0 1 .391-.492.441.441 0 0 1 .49.393c.481 4.254 1.756 15.554-6.244 17.432a.444.444 0 0 1-.533-.332Z" fill="#929EE0"/><path d="M299.819 343.424c-1.707-.426-3.672-1.426-5.186-2.365-3.59-2.144-7.153-6.397-8.75-11.961-2.449-8.46.638-17.25 3.883-19.798.948 6 13.14 26.759 14.47 28.694 1.28 1.928 2.578 3.466 3.112 4.416.823-1.258 6.64-10.354 14.968-22.334-4.675-.284-14.233-6.55-14.12-18.82.068-7.676 3.527-12.06 2.734-17.023 6.914 2.308 9.706 18.154 10.743 25.182.728 5.024 1.454 7.79 1.637 9.239a658.889 658.889 0 0 1 13.433-18.565c-2.776-1.01-11.734-7.677-10.303-19.938.66-5.53 3.315-10.106 5.413-11.749 2.472 6.931 9.17 14.201 7.29 26.778-.06.425-.214 1.369-.445 2.327.61-.802 8.561-11.154 9.034-11.353-.443-2.165.452-9.575 5.413-15.06 4.575-5.162 12.444-8.425 17.855-9.094-.445 1.93-2.284 7.597-4.463 11.484-5.43 10.215-15.21 13.457-17.923 13.39a.653.653 0 0 1-.128.247 583.9 583.9 0 0 0-14.815 19.305c3.045-1.648 9.368-4.106 15.965-5.447 9.74-2.105 9.837-2.937 14.377-4.422-.277 3.522-.933 6.267-2.961 9.29-3.39 5.03-10.149 8.402-18.041 7.442-5.694-.698-9.742-3.327-10.893-4.744a730.855 730.855 0 0 0-15.448 22.023c2.097-.587 6.592-1.11 9.118-1.258 6.552-.392 11.208.744 24.129 4.418-4.202 5.28-15.56 9.84-25.812 5.459-4.91-2.1-7.73-5.426-8.426-7.146a697.766 697.766 0 0 0-14.011 21.708c3.222-1.277 12.001-2.287 20.006 3.694 3.55 2.768 6.172 6.065 7.876 9.557l-18.452-2.999c-5.005-3.303-9.303-6.94-10.424-8.641a550.9 550.9 0 0 0-3.826 6.325l-1.35-.22c3.252-5.47 6.965-11.455 10.968-17.687-1.276.317-3.582.442-6.647-.354M273.955 338.458C286.292 342.336 293.32 352.548 294 361l-11.743-1.888c-5.96-6.883-6.25-7.715-16.257-22.111 1.45-.024 4.616.376 7.955 1.457" fill="#108FA8"/><path d="M310.55 357.047c-11.27-15.19-1.45-35.432 6.985-36.437-.841 3.841-.265 10.06.23 22.944.093 6.94.084 8.98.33 12.012.201 3.063.545 4.986.518 6.017 1.892-.914 12.093-5.572 25.41-13.21-1.868-1.116-5.86-5.136-7.407-12.124-2.805-12.652 4.976-20.506 6.96-24.584.874-1.783.926-2.86.977-3.707 5.927 5.118 5.167 19.158 3.706 26.764-.545 2.913-.96 4.399-1.614 7.875-.377 1.961-.69 3.734-1.034 4.857 11.803-6.851 19.948-12.547 20.576-12.952-2.07-1.715-6.708-8.701-6.748-16.847-.074-8.74 4.708-15.683 7.859-17.066 1.904 7.094 6.592 15.072 4.431 24.986-.587 2.645-1.627 5.165-2.631 6.918a304.955 304.955 0 0 0 12.058-8.855.757.757 0 0 1 .309-.148c-.006-1.134.509-3.308 1.286-5.288 2.695-6.836 6.606-10.476 12.383-13.58 3.908-2.081 9.865-4.033 12.866-4.622-.486 6.202-3.711 14.097-9.053 18.924-6.106 5.42-14.217 6.339-16.683 5.615-.163.262-9.615 7.582-21.506 15.296 4.28-.49 13.508-.296 18.92.177 9.815.72 10.59-.139 17.403-1.072-5.958 18.222-27.705 18.297-37.317 4.616-.275-.409-.96-1.485-1.226-2.293-8.038 5.023-14.523 8.988-24.877 14.435 2.71.68 8.405 3.086 9.55 3.597 5.041 2.234 8.354 4.514 13.634 8.705h-20.55c-3.382-4.454-4.607-9.25-4.407-11.376A338.228 338.228 0 0 1 307.707 368H304a326.097 326.097 0 0 0 13.064-5.698c-2.604-.986-4.9-3.167-6.513-5.255M296.432 368h-8.783c-.006-.118-.01-.238-.017-.359-1.771-30.09-.605-21.467-1.632-38.641 7.357 6.484 17.924 25.003 10.432 39" fill="#8FE7E0"/><g transform="matrix(-1 0 0 1 197 157)"><mask id="n" fill="#fff"><use xlink:href="#m"/></mask><path d="M88.681 50.015c5.253-2.743 8.839-7.048 9.711-9.7-7.888.255-19.064-3.876-31.384 4.468.4-.622 7.972-12.494 8.002-13.045 2.31-.394 9.348-4.08 13.001-10.96 3.47-6.383 3.864-15.224 2.57-20.705-1.756 1.165-6.719 5.098-9.791 8.682-8.18 9.133-7.86 19.81-6.812 22.405l.005.014c-.11.398-5.532 9.144-14.006 21.773.526-3.594.667-10.578-.38-17.404-1.435-10.208-.643-10.617-.811-15.567-3.399 1.607-5.888 3.286-8.157 6.396-3.768 5.189-4.67 13-.862 20.256 2.732 5.19 6.765 8.092 8.61 8.697a928.833 928.833 0 0 1-16.24 23.281c-.185-2.261-1.285-6.765-2.048-9.249-1.983-6.476-4.796-10.54-13.123-21.617-3.723 6.067-4.142 18.771 3.921 27.003 3.848 3.927 8.156 5.387 10.127 5.417-5.22 7.203-10.783 14.633-16.471 21.863.132-3.552-2.013-12.493-10.908-17.983-4.354-2.562-8.928-3.847-13.31-4.024v7.86a257.644 257.644 0 0 1 3.817 3.455c6.396 5.912 16.19 11.618 19.206 12.204-4.711 5.947-9.498 11.737-14.238 17.128h1.763c.742-.853 1.504-1.741 2.282-2.654 1.495.864 5.778 2.472 6.258 2.654H47.91c-9.54-9.644-23.23-11.177-31.178-6.917 4.921-5.946 10.358-12.827 15.98-20.223.148 1.352.857 3.628 2.759 6.286 1.04 1.486 2.744 3.003 4.226 4.107 3.43 2.65 8.943 4.473 15.049 3.897 9.289-.856 16.9-7.182 18.258-11.286-6.392 1.388-31.516-2.544-33.74-3.051-2.377-.503-4.375-1.17-5.512-1.324a846.061 846.061 0 0 0 16.767-22.956c1.975 4.408 11.657 11.25 23.803 6.47 7.6-2.988 10.703-7.995 15.92-9.12-4.795-5.798-21.546-2.463-28.902-.789-5.248 1.21-8.258 1.562-9.764 1.936a709.878 709.878 0 0 0 13.573-20.037c2.01 2.297 11.874 8.407 23.533 2.359" fill="#108FA8" mask="url(#n)"/></g><path d="M15 222.511c6.137-3.975 15.74-6.676 23.926-5.28 9.265 1.665 15.696 8.348 16.713 11.093.343-.041 13.668 3.293 29.088 8.57-3.396-3.52-9.557-12.01-12.833-17.243-6.07-9.391-7.404-9.48-12.958-14.98 21.144-7.58 36.15 12.037 29.953 30.468-.195.54-.73 1.929-1.304 2.745a390.668 390.668 0 0 1 30.595 12.222c-1.226-2.935-2.886-9.797-3.195-11.196-2.016-9.037-1.378-14.768-.595-32.017 2.95 1.345 8.61 5.806 11.833 12.53 7.472 15.263-1.947 29.108-5.956 31.627a377.811 377.811 0 0 1 28.202 14.305c-.767-1.874-1.562-5.421-1.35-10.678.993-17.52 16.598-29.235 29.078-29.351-10.162 20.048-11.836 23.754-16.082 29.653-.917 1.34-6.9 9.55-9.616 11.526 9.563 5.456 18.786 11.302 27.501 17.495h-2.9a307.03 307.03 0 0 0-8.031-5.426c-1.02 1.144-3.62 3.181-6.254 5.426H140c5.808-5.826 13.775-9.767 21.811-8.788a356.385 356.385 0 0 0-26.051-14.792c.868 3.062.396 6.706-.445 9.631-1.79 5.813-5.054 10.443-8.98 13.949h-21.754c3.292-2.66 7.487-6.219 13.153-10.87 6.43-5.025 8.345-6.467 11.013-8.849 2.726-2.36 4.29-4.04 5.274-4.75a387.54 387.54 0 0 0-29.814-13.58c.24 2.484-.782 8.955-6.257 15.327-9.911 11.543-22.606 10.094-27.785 11.204-2.267.478-3.311 1.198-4.139 1.754.718-9.003 14.378-18.31 22.498-22.402 3.101-1.58 4.776-2.261 8.478-4.145 2.094-1.055 3.968-2.033 5.255-2.522a380.394 380.394 0 0 0-26.254-9.39c-.183 3.096-3.535 12.26-11.128 18.092-8.126 6.287-17.91 6.905-21.366 5.038 5.33-6.77 9.574-16.69 20.336-21.791 2.877-1.351 5.947-2.204 8.277-2.544a349.56 349.56 0 0 0-16.564-4.604.876.876 0 0 1-.35-.176c-1.055.812-3.445 1.895-5.833 2.602-8.248 2.428-14.34 1.48-21.213-1.535-4.632-2.053-10.55-6.053-13.162-8.348" fill="#F5B8B3"/><g transform="matrix(-1 0 0 1 721 -6)"><mask id="p" fill="#fff"><use xlink:href="#o"/></mask><path d="M709.28 334.36c7.306-18.405 20.924-47.849 2.446-54.731-19.651-7.32-67.765-21.855-78.877-27.146-40.754-19.401-92.213-.1-117.404 4.595-31.093 5.794-152.351 51.817-143.008 70.73 9.634 19.502 47.866 2.438 80.261-6.961 32.397-9.4 39.383-13.23 40.803-3.029 2.509 18.033-98.81 47.881-122.641 42.044-23.832-5.839-110.06-38.636-120.224-39-15.617-.559-5.768 19.457 15.863 39.398 21.628 19.941 104.538 72.033 154.295 57.081 49.76-14.951 168.584-62.85 193.655-64.957 17.24-1.449 42.382 16.535 61.031 20.865 8.138 1.89 16.427-2.474 19.523-10.276l14.277-28.614Z" fill="#FFC9BA" mask="url(#p)"/></g></g></svg>