<svg width="133" height="131" xmlns="http://www.w3.org/2000/svg" xmlns:xlink="http://www.w3.org/1999/xlink"><defs><path id="a" d="M.273.14h68.83v68.138H.274z"/><path id="c" d="M0 .088h26.224v35.207H0z"/></defs><g fill="none" fill-rule="evenodd"><path d="M55.393 5.188a.712.712 0 0 0 .145-.015 62.654 62.654 0 0 1 7.138-1.037.715.715 0 1 0-.124-1.425 64.01 64.01 0 0 0-7.302 1.061.715.715 0 0 0 .143 1.416M41.559 9.742c.1 0 .202-.02.3-.066a62.756 62.756 0 0 1 6.71-2.647.715.715 0 1 0-.448-1.359 64.281 64.281 0 0 0-6.863 2.708.715.715 0 0 0 .3 1.364M18.286 27.391a.71.71 0 0 0 1.005-.107 63.274 63.274 0 0 1 4.847-5.345.715.715 0 0 0-1.003-1.02 64.69 64.69 0 0 0-4.957 5.467.715.715 0 0 0 .108 1.005M29.124 17.334c.154 0 .309-.05.44-.151a63.319 63.319 0 0 1 5.932-4.106.715.715 0 1 0-.745-1.221 64.808 64.808 0 0 0-6.067 4.2.715.715 0 0 0 .44 1.278M75.491 129.014a62.845 62.845 0 0 1-7.202.42.715.715 0 0 0 0 1.43 64.257 64.257 0 0 0 7.368-.43.715.715 0 1 0-.166-1.42M61.084 129.029a63.603 63.603 0 0 1-7.114-1.22.715.715 0 1 0-.321 1.394c2.382.55 4.83.97 7.274 1.247a.715.715 0 0 0 .161-1.421M18.302 104.78a.715.715 0 0 0-1.136.868 64.722 64.722 0 0 0 4.809 5.596.713.713 0 0 0 1.011.019.715.715 0 0 0 .019-1.011 63.312 63.312 0 0 1-4.703-5.472M89.51 125.705a62.67 62.67 0 0 1-6.914 2.061.715.715 0 1 0 .329 1.392 64.1 64.1 0 0 0 7.071-2.109.715.715 0 0 0-.487-1.344M34.125 119.411a62.95 62.95 0 0 1-5.823-4.26.715.715 0 1 0-.91 1.104 64.368 64.368 0 0 0 5.956 4.357.712.712 0 0 0 .989-.212.715.715 0 0 0-.212-.989M47.045 125.784a62.587 62.587 0 0 1-6.645-2.812.715.715 0 0 0-.633 1.283 63.964 63.964 0 0 0 6.797 2.876.715.715 0 1 0 .48-1.347M128.4 86.755a.715.715 0 0 0-.91.443 62.509 62.509 0 0 1-2.744 6.672.716.716 0 0 0 1.29.62 64.027 64.027 0 0 0 2.807-6.826.715.715 0 0 0-.443-.91M131.38 72.491a.715.715 0 0 0-.785.638 63.718 63.718 0 0 1-1.149 7.124.715.715 0 1 0 1.397.307c.526-2.386.921-4.837 1.174-7.284a.715.715 0 0 0-.637-.785" fill="#0059AB"/><path d="M86.243 48.256V34.433H73.522c-.15 0-.295-.005-.435-.013l-8.126 10.484a.716.716 0 0 1-1.28-.442l.11-19.663a1.378 1.378 0 0 1-.004-.1v-4.436c-10.232.954-19.634 5.263-26.957 11.91h12.694c5.656 0 10.258 4.603 10.258 10.259v10.423c0 2.341-.81 4.631-2.282 6.448a10.315 10.315 0 0 1-5.154 3.413v4.18a.716.716 0 0 1-1.221.505l-4.29-4.289H21.699a46.795 46.795 0 0 0-.037 6.667h.053a.715.715 0 0 1 .692.895l-.387 1.49c2.044.9 3.288 2.965 3.288 5.53v6.33a4.35 4.35 0 0 1 .907 2.95 46.787 46.787 0 0 0 5.712 8.994c.19-1.474 1.21-2.744 2.707-3.316.579-.22.952-.727.952-1.292 0-.569-.373-1.076-.952-1.297-1.666-.636-2.743-2.136-2.743-3.82 0-1.685 1.077-3.184 2.743-3.82.579-.221.952-.728.952-1.293v-1.068c0-5.447 4.776-9.879 10.646-9.879h5.59c5.87 0 10.646 4.432 10.646 9.88v1.067c0 .565.373 1.072.95 1.292 1.667.637 2.744 2.136 2.744 3.821s-1.077 3.184-2.743 3.82c-.578.221-.951.728-.951 1.292 0 .57.373 1.077.951 1.297 1.666.636 2.743 2.136 2.743 3.82 0 2.275-1.978 4.126-4.41 4.126l-8.473.006a4.387 4.387 0 0 1-4.192 3.111 4.388 4.388 0 0 1-4.196-3.124l-8.59.007-.085-.002a46.398 46.398 0 0 0 27.154 12.43c3.606.373 7.158.324 10.607-.106V72.877a4.992 4.992 0 0 1 4.986-4.986h35.796a46.416 46.416 0 0 0-.792-9.9H95.977c-5.368 0-9.734-4.367-9.734-9.735" fill="#8FE7E0"/><path d="M112.845 45.412h2.317a.715.715 0 1 1 0 1.43h-2.317a.715.715 0 1 1 0-1.43Zm5.59 0h2.316a.715.715 0 1 1 0 1.43h-2.316a.715.715 0 1 1 0-1.43Zm5.59 0h2.316a.715.715 0 1 1 0 1.43h-2.317a.715.715 0 1 1 0-1.43Zm-1.676 11.148c.242 0 .482-.017.705-.036a.716.716 0 0 1 .61.256l7.372 8.885-.387-17.305v-.023c0-.03.002-.058.004-.087v.006V33.57c0-4.579-3.725-8.304-8.304-8.304H109.61c-.204 3.521-2.288 6.544-5.26 8.082l6.745 17.117a.715.715 0 0 1-1.331.524l-3.204-8.13h-8.038l-3.204 8.13a.715.715 0 1 1-1.33-.524l6.321-16.044c-.138.006-.276.01-.415.01H87.673v13.824c0 4.579 3.725 8.304 8.304 8.304h26.372Z" fill="#EDEEFF"/><path d="M99.085 41.43h6.911l-2.963-7.52c-.36.123-.728.227-1.106.307l-2.842 7.212Z" fill="#EDEEFF"/><g transform="translate(63.408 .139)"><mask id="b" fill="#fff"><use xlink:href="#a"/></mask><path d="M42.589 41.29h-6.911l2.842-7.211c.377-.08.746-.184 1.106-.308l2.963 7.52ZM8.784 33.103l-7.069 9.12.1-17.58c0-.028-.002-.057-.005-.094V9.875c0-4.58 3.725-8.305 8.304-8.305h26.372c4.579 0 8.304 3.726 8.304 8.305V24.56c0 4.578-3.725 8.304-8.304 8.304H10.114c-.244 0-.493-.018-.705-.036a.718.718 0 0 0-.625.274Zm15.481 15.015V34.294h12.221c.14 0 .278-.005.416-.01L30.58 50.326a.715.715 0 1 0 1.33.525l3.204-8.131h8.038l3.204 8.13a.715.715 0 1 0 1.331-.524L40.942 33.21c2.972-1.537 5.057-4.56 5.26-8.082h12.74c4.578 0 8.304 3.725 8.304 8.304v14.685-.006c-.003.03-.005.058-.005.087v.024l.387 17.304-7.371-8.885a.715.715 0 0 0-.61-.256 8.445 8.445 0 0 1-.706.036H32.57c-4.58 0-8.305-3.725-8.305-8.304Zm44.407.097a1.4 1.4 0 0 0 .004-.097V33.432c0-5.367-4.367-9.734-9.735-9.734h-12.72V9.875c0-5.368-4.367-9.735-9.735-9.735H10.114C4.747.14.38 4.507.38 9.875V24.56c0 .031.001.062.004.1l-.11 19.663a.715.715 0 0 0 1.28.442L9.68 34.28c.14.008.285.013.434.013h12.721v13.823c0 5.368 4.367 9.734 9.735 9.734H58.94c.154 0 .306-.005.45-.013l8.447 10.182a.715.715 0 0 0 1.266-.473l-.432-19.333Z" fill="#0059AB" mask="url(#b)"/></g><path d="M70.805 20.444v-9.513a6.251 6.251 0 0 1 6.244-6.244 6.251 6.251 0 0 1 6.245 6.244v9.513a6.215 6.215 0 0 1-1.494 4.047l1.13 1.131a.715.715 0 0 1-1.01 1.011l-1.166-1.165a6.21 6.21 0 0 1-3.705 1.22 6.251 6.251 0 0 1-6.244-6.244m16.757 3.393h2.317a.715.715 0 1 1 0 1.43h-2.317a.715.715 0 1 1 0-1.43m5.59 0h2.317a.715.715 0 1 1 0 1.43h-2.317a.715.715 0 1 1 0-1.43m5.59 0h2.316a.715.715 0 1 1 0 1.43h-2.317a.715.715 0 1 1 0-1.43m-25.22 9.166h26.373c4.579 0 8.304-3.726 8.304-8.305V10.013c0-4.578-3.725-8.304-8.304-8.304H73.522c-4.58 0-8.304 3.726-8.304 8.304v14.674c.002.037.004.065.004.094l-.1 17.58 7.07-9.12a.718.718 0 0 1 .625-.275c.212.018.461.037.705.037" fill="#FFF"/><path d="M86.847 24.552c0 .395.32.715.715.715h2.317a.715.715 0 1 0 0-1.43h-2.317a.715.715 0 0 0-.715.715M93.152 25.267h2.317a.715.715 0 1 0 0-1.43h-2.317a.715.715 0 1 0 0 1.43M98.741 25.267h2.317a.715.715 0 1 0 0-1.43h-2.317a.715.715 0 1 0 0 1.43" fill="#0059AB"/><path d="M77.05 25.259a4.82 4.82 0 0 0 4.814-4.815v-9.512a4.82 4.82 0 0 0-4.815-4.815 4.82 4.82 0 0 0-4.814 4.815v9.512a4.82 4.82 0 0 0 4.814 4.815" fill="#FFF"/><path d="M72.235 10.931a4.82 4.82 0 0 1 4.814-4.814 4.82 4.82 0 0 1 4.815 4.814v9.513a4.82 4.82 0 0 1-4.815 4.815 4.82 4.82 0 0 1-4.814-4.815v-9.513Zm8.519 14.537 1.165 1.165a.713.713 0 0 0 1.012 0 .715.715 0 0 0 0-1.01L81.8 24.49a6.215 6.215 0 0 0 1.494-4.047v-9.513a6.252 6.252 0 0 0-6.245-6.244 6.251 6.251 0 0 0-6.244 6.244v9.513a6.251 6.251 0 0 0 6.244 6.245 6.21 6.21 0 0 0 3.705-1.221ZM112.845 46.842h2.317a.715.715 0 1 0 0-1.43h-2.317a.715.715 0 1 0 0 1.43M118.435 46.842h2.316a.715.715 0 1 0 0-1.43h-2.316a.715.715 0 1 0 0 1.43M124.024 46.842h2.317a.715.715 0 1 0 0-1.43h-2.317a.715.715 0 1 0 0 1.43" fill="#0059AB"/><path d="M44.706 99.16v-1.582c-2.583-1.276-4.396-3.884-4.532-6.921-1.91-.359-3.369-2.049-3.369-4.053a4.14 4.14 0 0 1 4.066-4.121l4.17-.01c1.809 0 3.28-1.47 3.28-3.278 0-.04.002-.078.009-.116v-1.936a.715.715 0 1 1 1.43 0v2.056a3.282 3.282 0 0 0 3.278 3.278l4.205.003a4.129 4.129 0 0 1 4.124 4.124 4.13 4.13 0 0 1-3.418 4.064c-.14 3.014-1.929 5.603-4.483 6.886v1.62l8.285-.006c1.643 0 2.98-1.21 2.98-2.695 0-1.087-.715-2.062-1.823-2.484-1.137-.435-1.872-1.467-1.872-2.629 0-1.167.735-2.198 1.872-2.633 1.108-.423 1.823-1.398 1.823-2.484s-.715-2.062-1.823-2.485c-1.137-.433-1.872-1.464-1.872-2.627v-1.069c0-4.659-4.134-8.449-9.215-8.449h-5.59c-5.082 0-9.216 3.79-9.216 8.45v1.068c0 1.162-.735 2.194-1.872 2.627-1.107.423-1.823 1.399-1.823 2.485 0 1.086.716 2.061 1.824 2.484 1.137.434 1.871 1.466 1.871 2.628 0 1.168-.734 2.2-1.871 2.634-1.108.422-1.824 1.397-1.824 2.484 0 1.486 1.337 2.695 2.98 2.695l8.406-.007Z" fill="#FFF"/><path d="M40.891 89.296a2.704 2.704 0 0 1-2.656-2.692 2.702 2.702 0 0 1 2.648-2.691l4.159-.01a4.71 4.71 0 0 0 3.997-2.221 4.71 4.71 0 0 0 3.998 2.225l4.206.003a2.697 2.697 0 0 1 2.694 2.694 2.697 2.697 0 0 1-2.694 2.695.715.715 0 0 0-.716.715v.275a6.704 6.704 0 0 1-6.696 6.697h-1.538a6.704 6.704 0 0 1-6.697-6.697v-.278a.715.715 0 0 0-.705-.715Zm5.245 10.04v-1.213c.687.19 1.41.293 2.157.293h1.538c.764 0 1.503-.108 2.205-.306v1.226a2.953 2.953 0 0 1-2.95 2.949 2.953 2.953 0 0 1-2.95-2.95ZM33.32 96.473c0-1.087.716-2.061 1.824-2.484 1.137-.435 1.871-1.466 1.871-2.634 0-1.162-.734-2.194-1.872-2.628-1.107-.423-1.823-1.398-1.823-2.484s.716-2.062 1.823-2.485c1.138-.433 1.872-1.465 1.872-2.627v-1.069c0-4.659 4.135-8.449 9.216-8.449h5.59c5.081 0 9.215 3.79 9.215 8.45v1.068c0 1.162.735 2.194 1.872 2.627 1.107.423 1.823 1.399 1.823 2.485 0 1.086-.716 2.061-1.823 2.484-1.137.435-1.872 1.466-1.872 2.633 0 1.162.735 2.194 1.872 2.629 1.107.422 1.823 1.397 1.823 2.484 0 1.486-1.337 2.695-2.98 2.695l-8.285.006v-1.62c2.554-1.283 4.344-3.872 4.483-6.886a4.131 4.131 0 0 0 3.418-4.064 4.13 4.13 0 0 0-4.124-4.124l-4.205-.003A3.282 3.282 0 0 1 49.76 79.2v-2.056a.715.715 0 1 0-1.43 0v1.936a.688.688 0 0 0-.01.116 3.282 3.282 0 0 1-3.28 3.278l-4.169.01a4.14 4.14 0 0 0-4.066 4.121c0 2.004 1.458 3.694 3.37 4.053.135 3.037 1.948 5.645 4.531 6.921v1.583l-8.406.007c-1.643 0-2.98-1.21-2.98-2.695Zm11.57 4.118a4.387 4.387 0 0 0 4.196 3.124 4.387 4.387 0 0 0 4.192-3.111l8.473-.006c2.432 0 4.41-1.85 4.41-4.125 0-1.685-1.077-3.185-2.743-3.82-.578-.221-.951-.729-.951-1.298 0-.564.373-1.071.95-1.292 1.667-.636 2.744-2.135 2.744-3.82s-1.077-3.185-2.743-3.82c-.578-.221-.951-.728-.951-1.292v-1.069c0-5.447-4.776-9.879-10.646-9.879h-5.59c-5.87 0-10.646 4.432-10.646 9.88v1.068c0 .564-.373 1.07-.952 1.291-1.666.637-2.743 2.136-2.743 3.82 0 1.685 1.077 3.185 2.743 3.82.579.222.952.73.952 1.298 0 .564-.373 1.072-.952 1.293-1.497.571-2.516 1.841-2.707 3.316a3.916 3.916 0 0 0-.036.504c0 2.248 1.933 4.08 4.325 4.123l.085.002 8.59-.007Z" fill="#0059AB"/><path d="M52.036 99.335V98.11a8.105 8.105 0 0 1-2.205.306h-1.538c-.747 0-1.47-.103-2.157-.293v1.212a2.953 2.953 0 0 0 2.95 2.95 2.953 2.953 0 0 0 2.95-2.95M16.325 98.963a8.629 8.629 0 0 1-2.414.344h-1.65c-.818 0-1.61-.116-2.362-.33l-.001 1.367a3.217 3.217 0 0 0 3.214 3.213 3.217 3.217 0 0 0 3.213-3.213v-1.381ZM2.286 82.865a4.333 4.333 0 0 1 1.316-.466v-.325c0-4.403 3.582-7.985 7.985-7.985h2.998c4.403 0 7.985 3.582 7.985 7.985v.313c.464.077.904.228 1.307.44v-5.133c0-2.18-1.068-3.818-2.857-4.38a.704.704 0 0 1-.101-.04l-.068-.033a.715.715 0 0 1-.376-.822l.314-1.21H8.793a6.515 6.515 0 0 0-6.507 6.508v5.148Z" fill="#FFF"/><path d="M16.603 91.948a3.56 3.56 0 0 1-3.555 3.555 3.56 3.56 0 0 1-3.557-3.555V90.37c0-.395.32-.715.716-.715h5.68c.396 0 .716.32.716.715v1.578Zm8.19-5.25c0-1.62-1.318-2.939-2.938-2.939a.715.715 0 0 1-.715-.715v-.97a6.562 6.562 0 0 0-6.555-6.554h-2.998a6.562 6.562 0 0 0-6.555 6.554v.972c0 .392-.314.71-.705.716a2.95 2.95 0 0 0-2.897 2.936c0 1.597 1.3 2.915 2.897 2.937a.715.715 0 0 1 .705.715v.298c0 3.986 3.244 7.23 7.23 7.23h1.648c3.987 0 7.23-3.244 7.23-7.23v-.295c0-.395.32-.715.715-.715 1.62 0 2.939-1.319 2.939-2.94Z" fill="#FFF"/><g transform="translate(0 69.692)"><mask id="d" fill="#fff"><use xlink:href="#c"/></mask><path d="M8.793 1.518h11.996l-.314 1.21a.715.715 0 0 0 .377.821l.067.033c.033.016.067.03.102.041 1.788.561 2.856 2.199 2.856 4.379v5.133a4.334 4.334 0 0 0-1.307-.44v-.313c0-4.402-3.582-7.984-7.985-7.984h-2.998c-4.403 0-7.985 3.582-7.985 7.984v.326a4.328 4.328 0 0 0-1.316.466v-5.15a6.514 6.514 0 0 1 6.507-6.506m4.319 32.348a3.217 3.217 0 0 1-3.214-3.213l.001-1.367c.752.213 1.544.33 2.363.33h1.648a8.63 8.63 0 0 0 2.415-.345v1.381a3.217 3.217 0 0 1-3.213 3.214M21.14 20.66v.295c0 3.986-3.243 7.23-7.23 7.23h-1.648c-3.986 0-7.23-3.244-7.23-7.23v-.298a.715.715 0 0 0-.705-.715 2.95 2.95 0 0 1-2.897-2.936 2.95 2.95 0 0 1 2.897-2.937.715.715 0 0 0 .705-.715v-.973a6.562 6.562 0 0 1 6.555-6.554h2.998a6.562 6.562 0 0 1 6.555 6.554v.97c0 .396.32.715.715.715 1.62 0 2.939 1.32 2.939 2.94a2.942 2.942 0 0 1-2.94 2.939.715.715 0 0 0-.714.715m4.167-6.329v-6.33c0-2.565-1.244-4.63-3.288-5.53l.387-1.49a.714.714 0 0 0-.692-.894H8.793C4.416.088.856 3.648.856 8.025v6.398A4.334 4.334 0 0 0 0 17.007c0 2.137 1.565 3.937 3.61 4.3.13 3.266 2.08 6.071 4.86 7.431l-.002 1.914a4.649 4.649 0 0 0 4.644 4.643 4.649 4.649 0 0 0 4.643-4.643v-1.94c2.749-1.368 4.673-4.153 4.807-7.393a4.377 4.377 0 0 0 3.662-4.312 4.349 4.349 0 0 0-.917-2.675" fill="#0059AB" mask="url(#d)"/></g><path d="M10.922 91.948c0 1.172.953 2.125 2.125 2.125a2.128 2.128 0 0 0 2.126-2.125v-.863h-4.251v.863Z" fill="#FFF"/><path d="M15.173 91.948a2.128 2.128 0 0 1-2.126 2.125 2.128 2.128 0 0 1-2.125-2.125v-.863h4.25v.863Zm.715-2.293h-5.681a.715.715 0 0 0-.715.715v1.578a3.56 3.56 0 0 0 3.555 3.555 3.56 3.56 0 0 0 3.556-3.555V90.37a.715.715 0 0 0-.715-.715Z" fill="#0059AB"/><path d="M45.66 90.03c0-.395.32-.715.716-.715h5.3c.395 0 .715.32.715.715v1.472a3.369 3.369 0 0 1-3.365 3.365 3.369 3.369 0 0 1-3.365-3.365V90.03Zm2.633 6.956h1.538a6.704 6.704 0 0 0 6.696-6.697v-.275c0-.395.32-.715.715-.715a2.698 2.698 0 0 0 2.695-2.695 2.698 2.698 0 0 0-2.695-2.694l-4.204-.003a4.709 4.709 0 0 1-4-2.225 4.71 4.71 0 0 1-3.996 2.221l-4.16.01a2.702 2.702 0 0 0-2.647 2.691 2.704 2.704 0 0 0 2.656 2.692c.391.006.705.324.705.715v.278a6.704 6.704 0 0 0 6.697 6.697Z" fill="#FFF"/><path d="M49.026 93.437a1.937 1.937 0 0 0 1.935-1.935v-.757h-3.87v.757c0 1.067.868 1.935 1.935 1.935" fill="#FFF"/><path d="M47.09 90.745h3.871v.757a1.937 1.937 0 0 1-1.935 1.935 1.937 1.937 0 0 1-1.935-1.935v-.757Zm1.936 4.122a3.369 3.369 0 0 0 3.365-3.365V90.03a.715.715 0 0 0-.715-.715h-5.3a.715.715 0 0 0-.715.715v1.472a3.369 3.369 0 0 0 3.365 3.365Z" fill="#0059AB"/><path d="M47.132 61.682c.19 0 .372.076.506.21l3.278 3.278V62.16c0-.334.231-.624.557-.698 3.986-.898 6.879-4.519 6.879-8.609V42.432c0-4.868-3.96-8.828-8.828-8.828H15.779c-4.867 0-8.828 3.96-8.828 8.828v10.422c0 3.903 2.616 7.388 6.362 8.476a.715.715 0 0 1 .516.687v3.153l3.277-3.278a.716.716 0 0 1 .506-.21h29.52Z" fill="#4550E5"/><path d="m17.106 61.892-3.278 3.277v-3.152a.715.715 0 0 0-.515-.686c-3.746-1.088-6.362-4.574-6.362-8.476V42.432c0-4.868 3.96-8.828 8.828-8.828h33.745c4.867 0 8.828 3.96 8.828 8.828v10.423c0 4.09-2.893 7.71-6.879 8.608a.715.715 0 0 0-.558.698v3.008l-3.277-3.277a.715.715 0 0 0-.506-.21h-29.52a.715.715 0 0 0-.506.21Zm34.019 5.51a.715.715 0 0 0 1.22-.506v-4.18a10.312 10.312 0 0 0 5.155-3.413 10.276 10.276 0 0 0 2.282-6.448V42.432c0-5.656-4.602-10.258-10.258-10.258H15.78c-5.657 0-10.259 4.602-10.259 10.258v10.423c0 4.353 2.802 8.26 6.878 9.684v4.357a.715.715 0 0 0 1.22.505l4.29-4.289H46.835l4.289 4.29Z" fill="#0059AB"/><path d="M116.306 69.322H78.962a3.56 3.56 0 0 0-3.556 3.555v4.595h44.456v-4.595a3.56 3.56 0 0 0-3.556-3.555" fill="#4550E5"/><path d="M119.862 77.471H75.406v-4.594a3.56 3.56 0 0 1 3.556-3.556h37.344a3.56 3.56 0 0 1 3.556 3.556v4.594Zm0 41.226a3.56 3.56 0 0 1-3.556 3.556H78.962a3.56 3.56 0 0 1-3.556-3.556V78.902h44.456v39.795Zm-45.886-45.82v45.82a4.991 4.991 0 0 0 4.986 4.986h37.344a4.991 4.991 0 0 0 4.986-4.986v-45.82a4.991 4.991 0 0 0-4.986-4.985H78.962a4.991 4.991 0 0 0-4.986 4.985Z" fill="#0059AB"/><path d="M113.906 87.376c0 .395-.32.715-.715.715h-20.5a.715.715 0 1 1 0-1.43h20.5c.395 0 .715.32.715.715Zm-.715 4.045h-20.5a.715.715 0 1 1 0-1.43h20.5a.715.715 0 1 1 0 1.43Zm0 9.776h-20.5a.715.715 0 1 1 0-1.43h20.5a.715.715 0 1 1 0 1.43Zm0 3.329h-20.5a.715.715 0 1 1 0-1.43h20.5a.715.715 0 1 1 0 1.43Zm0 9.776h-20.5a.715.715 0 1 1 0-1.43h20.5a.715.715 0 1 1 0 1.43Zm0 3.329h-20.5a.715.715 0 1 1 0-1.43h20.5a.715.715 0 1 1 0 1.43Zm-29.503 1.367a5.305 5.305 0 0 1-5.299-5.299c0-2.922 2.377-5.3 5.3-5.3 2.921 0 5.299 2.378 5.299 5.3 0 2.922-2.378 5.3-5.3 5.3Zm0-23.76c1.01 0 1.953.284 2.757.776l1.207-2.11a.715.715 0 0 1 1.241.71l-1.326 2.318a5.277 5.277 0 0 1 1.42 3.606c0 2.922-2.377 5.3-5.299 5.3a5.305 5.305 0 0 1-5.299-5.3c0-2.922 2.377-5.3 5.3-5.3Zm0-13.16c1.066 0 2.06.316 2.891.86l1.073-1.875a.715.715 0 0 1 1.241.71l-1.214 2.123a5.276 5.276 0 0 1 1.309 3.48c0 2.922-2.378 5.3-5.3 5.3a5.305 5.305 0 0 1-5.299-5.3c0-2.922 2.377-5.299 5.3-5.299ZM75.407 78.9v39.796a3.56 3.56 0 0 0 3.555 3.556h37.344a3.56 3.56 0 0 0 3.556-3.556V78.901H75.407Z" fill="#EDEEFF"/><path d="M83.688 91.245a3.874 3.874 0 0 0 3.87-3.869c0-.79-.239-1.525-.647-2.138l-2.602 4.548a.716.716 0 0 1-.605.36h-.016a.715.715 0 0 1-.604-.333l-1.641-2.592a.715.715 0 0 1 1.208-.765l1.006 1.589 2.21-3.864a3.845 3.845 0 0 0-2.179-.674 3.873 3.873 0 0 0-3.869 3.87 3.873 3.873 0 0 0 3.87 3.868" fill="#EDEEFF"/><path d="M83.688 83.507c.808 0 1.559.25 2.18.675l-2.21 3.863-1.007-1.59a.715.715 0 1 0-1.208.766l1.641 2.592c.132.207.36.332.604.332h.016a.715.715 0 0 0 .605-.36l2.602-4.547c.408.613.647 1.348.647 2.138a3.874 3.874 0 0 1-3.87 3.87 3.873 3.873 0 0 1-3.869-3.87 3.873 3.873 0 0 1 3.87-3.869m0 9.169c2.921 0 5.299-2.378 5.299-5.3a5.276 5.276 0 0 0-1.309-3.48l1.214-2.122a.715.715 0 1 0-1.241-.71l-1.073 1.874a5.27 5.27 0 0 0-2.89-.861 5.305 5.305 0 0 0-5.3 5.3c0 2.921 2.377 5.299 5.3 5.299" fill="#0059AB"/><path d="M83.688 104.407a3.874 3.874 0 0 0 3.87-3.87c0-.852-.279-1.642-.748-2.282l-2.5 4.37a.715.715 0 0 1-.606.36h-.016a.715.715 0 0 1-.604-.332l-1.641-2.592a.715.715 0 0 1 1.208-.765l1.006 1.59 2.077-3.63a3.845 3.845 0 0 0-2.046-.587 3.873 3.873 0 0 0-3.869 3.869 3.873 3.873 0 0 0 3.87 3.869" fill="#EDEEFF"/><path d="M83.688 96.669c.751 0 1.452.215 2.046.587l-2.077 3.63-1.006-1.59a.715.715 0 0 0-1.208.765l1.641 2.592c.132.208.36.333.604.333h.016a.716.716 0 0 0 .605-.36l2.5-4.37c.47.64.749 1.429.749 2.282a3.874 3.874 0 0 1-3.87 3.869 3.873 3.873 0 0 1-3.869-3.87 3.873 3.873 0 0 1 3.87-3.868m0 9.168c2.921 0 5.299-2.377 5.299-5.3 0-1.391-.54-2.659-1.421-3.605l1.326-2.318a.715.715 0 1 0-1.241-.71l-1.207 2.11a5.265 5.265 0 0 0-2.757-.775 5.305 5.305 0 0 0-5.299 5.299c0 2.922 2.377 5.3 5.3 5.3" fill="#0059AB"/><path d="M87.558 113.7a3.873 3.873 0 0 0-3.87-3.87 3.873 3.873 0 0 0-3.869 3.87 3.873 3.873 0 0 0 3.87 3.868 3.873 3.873 0 0 0 3.869-3.869" fill="#EDEEFF"/><path d="M79.82 113.7a3.873 3.873 0 0 1 3.868-3.87 3.873 3.873 0 0 1 3.87 3.87 3.873 3.873 0 0 1-3.87 3.868 3.873 3.873 0 0 1-3.869-3.869m3.87-5.299a5.305 5.305 0 0 0-5.3 5.3c0 2.921 2.378 5.298 5.3 5.298 2.921 0 5.299-2.377 5.299-5.299 0-2.922-2.378-5.299-5.3-5.299M92.69 86.661a.715.715 0 1 0 0 1.43h20.5a.715.715 0 1 0 0-1.43h-20.5ZM113.19 89.99h-20.5a.715.715 0 1 0 0 1.43h20.5a.715.715 0 1 0 0-1.43M113.19 99.766h-20.5a.715.715 0 1 0 0 1.43h20.5a.715.715 0 1 0 0-1.43M113.19 103.096h-20.5a.715.715 0 1 0 0 1.43h20.5a.715.715 0 1 0 0-1.43M113.19 112.872h-20.5a.715.715 0 1 0 0 1.43h20.5a.715.715 0 1 0 0-1.43M113.19 116.2h-20.5a.715.715 0 1 0 0 1.431h20.5a.715.715 0 1 0 0-1.43" fill="#0059AB"/></g></svg>