<svg width="121" height="130" xmlns="http://www.w3.org/2000/svg" xmlns:xlink="http://www.w3.org/1999/xlink"><defs><path id="a" d="M0 .046h34.674v46.972H0z"/><path id="c" d="M.205.208h40.61v66.959H.205z"/></defs><g fill="none" fill-rule="evenodd"><g transform="translate(0 15.867)"><mask id="b" fill="#fff"><use xlink:href="#a"/></mask><path d="M28.245 4.292a.595.595 0 0 1-.306-1.105A58.396 58.396 0 0 1 33.833.1a.595.595 0 1 1 .491 1.084 57.24 57.24 0 0 0-5.774 3.024.592.592 0 0 1-.305.084m-10.44 7.997a.595.595 0 0 1-.413-1.024 58.99 58.99 0 0 1 5.044-4.34.595.595 0 0 1 .723.946 57.614 57.614 0 0 0-4.942 4.251.593.593 0 0 1-.413.167M9.441 22.434a.595.595 0 0 1-.499-.919 58.291 58.291 0 0 1 3.931-5.367.595.595 0 0 1 .919.757 57.126 57.126 0 0 0-3.85 5.257.595.595 0 0 1-.5.272M3.603 34.216a.594.594 0 0 1-.56-.797 58.181 58.181 0 0 1 2.607-6.121.596.596 0 0 1 1.067.528 57.07 57.07 0 0 0-2.554 5.996.595.595 0 0 1-.56.394M.596 47.018a.595.595 0 0 1-.592-.664 58.759 58.759 0 0 1 1.15-6.554.596.596 0 0 1 1.159.272 57.497 57.497 0 0 0-1.127 6.42.595.595 0 0 1-.59.526" fill="#0059AB" mask="url(#b)"/></g><path d="M47.5 126.298a.598.598 0 0 1-.106-.01 58.92 58.92 0 0 1-5.41-1.242.595.595 0 0 1 .32-1.146c1.736.487 3.52.896 5.301 1.218a.595.595 0 0 1-.105 1.18m17.908.435a.595.595 0 0 1-.077-1.185c2.08-.275 4.166-.67 6.202-1.175a.596.596 0 0 1 .286 1.156c-2.079.514-4.21.918-6.332 1.198a.572.572 0 0 1-.079.006m-7.537.496c-1.543 0-3.114-.063-4.667-.187a.595.595 0 1 1 .094-1.186c2.104.168 4.23.22 6.312.156a.596.596 0 0 1 .036 1.19c-.588.018-1.185.027-1.775.027M100.07 30.484a.593.593 0 0 1-.437-.191 57.623 57.623 0 0 0-4.103-4.014.595.595 0 0 1 .789-.892 58.933 58.933 0 0 1 4.188 4.097.595.595 0 0 1-.437 1m7.405 9.957a.595.595 0 0 1-.513-.293 57.656 57.656 0 0 0-3.157-4.794.595.595 0 1 1 .96-.703 58.859 58.859 0 0 1 3.223 4.893.595.595 0 0 1-.513.897m5.113 11.306a.595.595 0 0 1-.565-.41 57.116 57.116 0 0 0-2.06-5.356.595.595 0 1 1 1.087-.483c.79 1.78 1.498 3.62 2.104 5.468a.595.595 0 0 1-.566.78" fill="#0059AB"/><path d="M16.023 64.691C18.41 41.61 39.059 24.835 62.14 27.224c23.082 2.388 39.856 23.036 37.467 46.117-2.388 23.082-23.036 39.856-46.117 37.467-23.081-2.388-39.856-23.036-37.467-46.117" fill="#FFC9BA"/><path d="m33.817 66.797-4.183-3.748c-4.75-4.256-10.052-4.26-13.664-3.515-4.012.83-7.328 2.868-8.711 4.412-2.788 3.11-4.15 7.165-3.839 11.416.309 4.205 2.224 8.084 5.392 10.923l3.625 3.248a3.278 3.278 0 0 0 4.627-.254c1.206-1.345 4.62-.225 3.274-1.43l-7.153-6.445c-1.898-1.7-3.045-4.017-3.229-6.522-.18-2.46.595-4.79 2.183-6.562.408-.455 2.541-1.827 5.157-2.367 3.149-.65 5.754-.004 7.964 1.976l4.183 3.75a3.281 3.281 0 0 0 4.627-.255 3.281 3.281 0 0 0-.253-4.627" fill="#FFF"/><path d="M19.538 59.756c-1.254 0-2.421.15-3.447.361-3.88.802-7.069 2.753-8.39 4.226-2.678 2.989-3.987 6.886-3.687 10.975.297 4.051 2.142 7.789 5.195 10.524l3.625 3.248a2.684 2.684 0 0 0 3.787-.208c.74-.826 2.016-.918 2.908-.96l-6.742-6.076c-2.012-1.803-3.229-4.261-3.424-6.92-.192-2.623.636-5.11 2.333-7.004.562-.625 2.872-2.013 5.48-2.552 3.346-.692 6.12.001 8.481 2.116l4.183 3.749c.533.477 1.22.717 1.937.679a2.662 2.662 0 0 0 1.85-.887 2.685 2.685 0 0 0-.208-3.787l-4.182-3.748c-3.218-2.884-6.704-3.736-9.7-3.736m-4.913 31.209c-.94 0-1.863-.342-2.585-.989l-3.624-3.248c-3.284-2.942-5.268-6.963-5.588-11.323-.324-4.414 1.092-8.625 3.988-11.856 1.447-1.614 4.891-3.741 9.035-4.597 3.746-.774 9.247-.768 14.181 3.653l4.183 3.749a3.877 3.877 0 0 1 .3 5.467 3.842 3.842 0 0 1-2.672 1.281 3.847 3.847 0 0 1-2.796-.98l-4.183-3.75c-2.06-1.845-4.496-2.446-7.447-1.836-2.61.54-4.569 1.886-4.834 2.181-1.479 1.65-2.2 3.825-2.032 6.121.172 2.35 1.25 4.525 3.033 6.123l7.153 6.446c.177.158.65.582.464 1.103-.19.535-.77.562-1.504.596-.739.034-1.75.08-2.189.57a3.88 3.88 0 0 1-2.883 1.289" fill="#0059AB"/><path d="M46.805 92.13v13.154c0 12.423-9.796 22.587-21.769 22.587-11.972 0-21.768-10.164-21.768-22.587V91.987c0-2.448 1.912-4.431 4.271-4.431h34.857c2.435 0 4.409 2.047 4.409 4.574" fill="#FFF"/><path d="M7.54 88.151c-2.028 0-3.677 1.721-3.677 3.836v13.297c0 12.126 9.498 21.992 21.173 21.992 11.675 0 21.174-9.866 21.174-21.992V92.13c0-2.194-1.711-3.979-3.814-3.979H7.539Zm17.496 40.315c-12.33 0-22.363-10.4-22.363-23.182V91.987c0-2.771 2.183-5.026 4.866-5.026h34.857c2.759 0 5.004 2.319 5.004 5.17v13.153c0 12.782-10.033 23.182-22.364 23.182Z" fill="#0059AB"/><path d="M32.378 113.473a.593.593 0 0 1-.42-.174c-4.615-4.613-9.612-4.698-14.072-.24a.595.595 0 1 1-.842-.84c4.93-4.93 10.673-4.843 15.755.238a.595.595 0 0 1-.421 1.016" fill="#0059AB"/><path d="M35.56 108.278a.593.593 0 0 1-.42-.175c-6.347-6.345-14.414-6.48-20.552-.342a.595.595 0 1 1-.842-.842c6.65-6.649 15.378-6.514 22.235.343a.595.595 0 0 1-.42 1.016" fill="#0059AB"/><path d="M39.05 103.198a.593.593 0 0 1-.421-.174c-8.393-8.392-19.064-8.568-27.185-.448a.595.595 0 1 1-.841-.842c8.632-8.631 19.963-8.455 28.867.448a.595.595 0 0 1-.42 1.016" fill="#0059AB"/><path d="M27.459 117.488a2.708 2.708 0 1 1-5.416 0 2.708 2.708 0 0 1 5.416 0" fill="#4550E5"/><path d="M24.75 115.376a2.115 2.115 0 0 0-2.112 2.112c0 1.165.948 2.113 2.113 2.113a2.115 2.115 0 0 0 2.112-2.113 2.115 2.115 0 0 0-2.112-2.112m0 5.415a3.306 3.306 0 0 1-3.303-3.303 3.307 3.307 0 0 1 3.303-3.302 3.307 3.307 0 0 1 3.303 3.302 3.306 3.306 0 0 1-3.303 3.303" fill="#0059AB"/><path d="M74.377 46.69v15.435a5.067 5.067 0 0 1-5.067 5.067H45.856a5.067 5.067 0 0 1-5.067-5.067V5.662A5.067 5.067 0 0 1 45.856.595H69.31a5.067 5.067 0 0 1 5.067 5.067V46.69Z" fill="#4550E5"/><path d="M69.31 67.787H45.856a5.668 5.668 0 0 1-5.662-5.662V5.662A5.669 5.669 0 0 1 45.856 0H69.31a5.669 5.669 0 0 1 5.662 5.662v15.355a.595.595 0 0 1-1.19 0V5.662A4.477 4.477 0 0 0 69.31 1.19H45.856a4.477 4.477 0 0 0-4.472 4.472v56.463a4.477 4.477 0 0 0 4.472 4.472H69.31a4.477 4.477 0 0 0 4.472-4.472V46.69a.595.595 0 1 1 1.19 0v15.435a5.669 5.669 0 0 1-5.662 5.662" fill="#0059AB"/><path d="M48.303 24.388a.594.594 0 0 1-.356-1.072l12.384-9.242a.595.595 0 1 1 .712.953L48.659 24.27a.592.592 0 0 1-.356.118M47.09 18.11a.594.594 0 0 1-.362-1.067l6.502-4.984a.595.595 0 0 1 .724.945l-6.502 4.984a.594.594 0 0 1-.362.123" fill="#F6F6F6"/><path d="M82.427 33.894c0 7.906-6.41 14.316-14.317 14.316S53.794 41.8 53.794 33.894c0-7.908 6.41-14.318 14.316-14.318 7.907 0 14.317 6.41 14.317 14.318" fill="#FFF"/><path d="M68.11 20.171c-7.566 0-13.721 6.156-13.721 13.722 0 7.567 6.155 13.722 13.721 13.722 7.567 0 13.722-6.155 13.722-13.722 0-7.566-6.155-13.722-13.722-13.722m0 28.634c-8.222 0-14.911-6.69-14.911-14.912 0-8.222 6.689-14.912 14.911-14.912 8.223 0 14.912 6.69 14.912 14.912 0 8.223-6.69 14.912-14.912 14.912" fill="#0059AB"/><path d="M68.117 27.89c-.125 0-.25.006-.376.02-1.387.16-2.531 1.278-2.721 2.658a3.127 3.127 0 0 0 1.701 3.237c.25.123.38.403.315.673l-1.391 5.763a.889.889 0 0 0 .46 1.003c.88.432 2.934.54 4.164.03.312-.131.414-.589.33-.938l-1.414-5.858a.595.595 0 0 1 .315-.673 3.095 3.095 0 0 0 1.732-2.791c0-.892-.382-1.743-1.046-2.336a3.08 3.08 0 0 0-2.069-.789m.078 14.918c-.978 0-1.945-.166-2.615-.494a2.06 2.06 0 0 1-1.092-2.352l1.285-5.327a4.321 4.321 0 0 1-1.932-4.228c.262-1.91 1.845-3.456 3.763-3.677a4.33 4.33 0 0 1 3.374 1.061 4.322 4.322 0 0 1 1.444 3.224 4.276 4.276 0 0 1-1.975 3.62l1.309 5.423c.236.977-.207 1.972-1.03 2.315-.698.29-1.62.435-2.531.435M87.2 21.264a.595.595 0 0 1-.596-.595 4.268 4.268 0 0 0-4.263-4.263.595.595 0 1 1 0-1.19 5.46 5.46 0 0 1 5.453 5.453.595.595 0 0 1-.595.595M94.036 21.265a.595.595 0 0 1-.595-.596c0-2.965-1.154-5.752-3.25-7.85a11.028 11.028 0 0 0-7.85-3.25.595.595 0 1 1 0-1.19 12.21 12.21 0 0 1 8.691 3.6 12.21 12.21 0 0 1 3.6 8.69.595.595 0 0 1-.596.596M101.165 21.264a.595.595 0 0 1-.595-.595 18.11 18.11 0 0 0-5.339-12.89 18.108 18.108 0 0 0-12.89-5.339.595.595 0 1 1 0-1.19 19.29 19.29 0 0 1 13.732 5.688 19.293 19.293 0 0 1 5.687 13.731.595.595 0 0 1-.595.595" fill="#0059AB"/><path d="M80.896 122.142V59.07a2.696 2.696 0 0 1 2.695-2.696h34.028a2.696 2.696 0 0 1 2.696 2.696v63.073h-39.42Z" fill="#FFF"/><g transform="translate(80.096 55.57)"><mask id="d" fill="#fff"><use xlink:href="#c"/></mask><path d="M40.22 67.167a.595.595 0 0 1-.596-.595V3.499c0-1.159-.942-2.101-2.1-2.101H3.496c-1.158 0-2.1.942-2.1 2.1v63.074a.595.595 0 0 1-1.191 0V3.499A3.294 3.294 0 0 1 3.495.208h34.029a3.295 3.295 0 0 1 3.29 3.29v63.074a.595.595 0 0 1-.595.595" fill="#0059AB" mask="url(#d)"/></g><path d="M114.943 60.346H86.267a1.4 1.4 0 0 0-1.399 1.4v60.396h31.474V61.745a1.4 1.4 0 0 0-1.399-1.399" fill="#EDEEFF"/><path d="M85.463 121.547h30.284V61.745a.805.805 0 0 0-.804-.804H86.267a.805.805 0 0 0-.804.804v59.802Zm30.88 1.19H84.867a.595.595 0 0 1-.595-.595V61.745c0-1.1.895-1.994 1.994-1.994h28.676c1.1 0 1.994.894 1.994 1.994v60.397a.595.595 0 0 1-.595.595Z" fill="#0059AB"/><path d="M91.097 91.612c-.91 0-1.65.74-1.65 1.65 0 .91.74 1.65 1.65 1.65.91 0 1.65-.74 1.65-1.65 0-.91-.74-1.65-1.65-1.65m0 4.49a2.843 2.843 0 0 1-2.84-2.84 2.843 2.843 0 0 1 2.84-2.84 2.843 2.843 0 0 1 2.84 2.84 2.843 2.843 0 0 1-2.84 2.84" fill="#0059AB"/><path d="M91.928 96.333h1.115a4.079 4.079 0 0 0 0-8.158h-1.115a4.08 4.08 0 0 0 0 8.158" fill="#FFF"/><path d="M91.928 88.77a3.488 3.488 0 0 0-3.484 3.484 3.488 3.488 0 0 0 3.484 3.484h1.115a3.488 3.488 0 0 0 3.484-3.484 3.488 3.488 0 0 0-3.484-3.484h-1.115Zm1.115 8.159h-1.115a4.68 4.68 0 0 1-4.674-4.675 4.68 4.68 0 0 1 4.674-4.674h1.115a4.68 4.68 0 0 1 4.674 4.674 4.68 4.68 0 0 1-4.674 4.675Z" fill="#0059AB"/><path d="M94.523 124.035c4.416-5.719 7.186-15.078 7.186-15.078a2.8 2.8 0 1 0-5.075-2.368l-3.518 7.55v-19.94a2.8 2.8 0 1 0-5.6 0v12.097a2.8 2.8 0 1 0-5.599 0v.56a2.8 2.8 0 1 0-5.6 0v.56a2.8 2.8 0 1 0-5.599 0v8.343c0 7.37 5.973 13.345 13.34 13.345 2.681 0 5.178-.792 7.269-2.154a13.416 13.416 0 0 0 3.196-2.915" fill="#FFF"/><path d="M73.518 105.21c-1.216 0-2.205.99-2.205 2.206v8.343c0 7.03 5.717 12.75 12.745 12.75a12.69 12.69 0 0 0 6.944-2.057 12.791 12.791 0 0 0 3.052-2.783c4.297-5.567 7.057-14.788 7.084-14.88a.614.614 0 0 1 .032-.083 2.209 2.209 0 0 0-1.067-2.932 2.188 2.188 0 0 0-1.685-.073 2.19 2.19 0 0 0-1.245 1.14l-3.518 7.548a.594.594 0 0 1-1.134-.25V94.197a2.208 2.208 0 0 0-2.205-2.206c-1.215 0-2.204.99-2.204 2.206v12.098a.595.595 0 1 1-1.19 0 2.207 2.207 0 0 0-2.205-2.206c-1.216 0-2.205.99-2.205 2.206v.56a.595.595 0 0 1-1.19 0c0-1.216-.989-2.206-2.205-2.206-1.215 0-2.204.99-2.204 2.206v.56a.595.595 0 0 1-1.19 0 2.208 2.208 0 0 0-2.205-2.205Zm10.54 24.489c-7.684 0-13.935-6.253-13.935-13.94v-8.343a3.4 3.4 0 0 1 3.395-3.396c1.048 0 1.987.478 2.61 1.228a3.39 3.39 0 0 1 5.6-.56 3.398 3.398 0 0 1 2.989-1.788c.84 0 1.611.308 2.204.816v-9.518a3.4 3.4 0 0 1 3.395-3.396 3.4 3.4 0 0 1 3.395 3.396v17.255l2.384-5.115a3.373 3.373 0 0 1 1.915-1.756 3.372 3.372 0 0 1 2.596.114 3.4 3.4 0 0 1 1.661 4.471c-.23.769-2.943 9.624-7.273 15.232a13.878 13.878 0 0 1-10.936 5.3Z" fill="#0059AB"/><path d="M81.917 107.696v-1.4 1.4Z" fill="#FFF"/><path d="M81.917 108.291a.595.595 0 0 1-.595-.595v-1.4a.595.595 0 0 1 1.19 0v1.4a.595.595 0 0 1-.595.595" fill="#0059AB"/><path d="M87.515 106.296v1.4-1.4Z" fill="#FFF"/><path d="M87.515 108.291a.595.595 0 0 1-.595-.595v-1.4a.595.595 0 0 1 1.19 0v1.4a.595.595 0 0 1-.595.595" fill="#0059AB"/><path d="M76.318 106.856v.84-.84Z" fill="#FFF"/><path d="M76.318 108.291a.595.595 0 0 1-.595-.595v-.84a.595.595 0 0 1 1.19 0v.84a.595.595 0 0 1-.595.595" fill="#0059AB"/></g></svg>