<svg xmlns="http://www.w3.org/2000/svg" xmlns:xlink="http://www.w3.org/1999/xlink" width="496" height="496"><defs><path id="a" d="M0 .067h495.786v493.726H0z"/><path id="c" d="M0 496h496V0H0z"/></defs><g fill="none" fill-rule="evenodd"><mask id="b" fill="#fff"><use xlink:href="#a"/></mask><path fill="#CADDFF" d="M5.747 404.516c14.63 35.363 48.77 52.11 70.59 62.814 86.01 42.19 216.624 37.346 310.597-39.427 21.99-17.966 130.376-112.092 105.038-239.676C469.572 75.44 357.247 9.937 262.682 1.171 184.342-6.09 82.057 22.3 45.949 91.068c-22.705 43.243 4.621 57.002-13.904 155.01-16.033 84.83-44.19 115.182-26.297 158.438" mask="url(#b)"/><path fill="#5479F7" d="M453.534 181.738 40.801 169C30.985 169 23 175.383 23 183.23V413.54c0 7.846 7.985 14.23 17.8 14.23l149.134-8.076-19.146 55.862-20.26.128c-6.316 0-11.455 4.108-11.455 9.157 0 5.05 5.14 9.158 11.456 9.158l169.662-6.468c6.317 0-5.504-59.761-5.504-59.761S463.35 181.738 453.534 181.738"/><path fill="#99B9FF" d="M311.136 398H205.864L176 485h165z"/><path fill="#99B9FF" d="M469.199 170H48.801C39.522 170 32 176.007 32 183.416v230.168C32 420.994 39.522 427 48.801 427h420.398c9.279 0 16.801-6.007 16.801-13.416V183.416c0-7.41-7.522-13.416-16.801-13.416M359.535 477h-201.07c-5.78 0-10.465 3.582-10.465 8s4.685 8 10.465 8h201.07c5.78 0 10.465-3.582 10.465-8s-4.685-8-10.465-8"/><path fill="#000" d="M344.1 494h-53.2c-.497 0-.9-.448-.9-1s.403-1 .9-1h53.2c.497 0 .9.448.9 1s-.403 1-.9 1M469.295 428H310.423a.896.896 0 1 1 0-1.791h158.872c8.774 0 15.912-5.622 15.912-12.532V183.323c0-6.91-7.138-12.531-15.912-12.531H48.705c-8.774 0-15.911 5.621-15.911 12.531v230.354c0 6.91 7.137 12.532 15.911 12.532h40.509a.896.896 0 1 1 0 1.791H48.705C38.942 428 31 421.574 31 413.677V183.323C31 175.426 38.942 169 48.705 169h420.59c9.763 0 17.705 6.426 17.705 14.323v230.354c0 7.897-7.942 14.323-17.705 14.323"/><path fill="#000" d="M471 409c-.552 0-1-.403-1-.9v-91.2c0-.497.448-.9 1-.9s1 .403 1 .9v91.2c0 .497-.448.9-1 .9M389.106 416h-60.212c-.494 0-.894-.448-.894-1s.4-1 .894-1h60.212c.494 0 .894.448.894 1s-.4 1-.894 1M92.106 416H55.223c-5.085 0-9.223-3.61-9.223-8.048 0-.526.4-.952.894-.952s.894.426.894.952c0 3.388 3.335 6.144 7.435 6.144h36.883c.494 0 .894.426.894.952s-.4.952-.894.952M47 214c-.552 0-1-.402-1-.898v-14.204c0-.496.448-.898 1-.898s1 .402 1 .898v14.204c0 .496-.448.898-1 .898M45.913 189c-.504 0-.913-.426-.913-.952 0-4.438 4.225-8.048 9.418-8.048h24.67c.503 0 .912.426.912.952s-.409.952-.912.952h-24.67c-4.186 0-7.593 2.757-7.593 6.144 0 .526-.408.952-.912.952M471.105 200a.902.902 0 0 1-.895-.91v-11.406c0-3.234-3.339-5.866-7.443-5.866h-24.872a.902.902 0 0 1-.895-.91c0-.501.4-.908.895-.908h24.872c5.09 0 9.233 3.447 9.233 7.684v11.407c0 .502-.4.909-.895.909M471 231c-.552 0-1-.391-1-.873v-15.254c0-.482.448-.873 1-.873s1 .391 1 .873v15.254c0 .482-.448.873-1 .873"/><mask id="d" fill="#fff"><use xlink:href="#c"/></mask><path fill="#FFF" d="M60 414h387V70H60z" mask="url(#d)"/><path fill="#CADDFF" d="M250.353 165H84.646C78.766 165 74 169.75 74 175.612v68.776C74 250.248 78.767 255 84.646 255h165.707c5.88 0 10.647-4.751 10.647-10.612v-68.776c0-5.861-4.767-10.612-10.647-10.612" mask="url(#d)"/><path fill="#FFF" d="M106 189h126v-11H106zM90 210h160v-7H90zM90 225h160v-7H90zM90 241h121v-7H90z" mask="url(#d)"/><path fill="#CADDFF" d="M423.72 165H279.28c-5.125 0-9.28 4.75-9.28 10.612v68.776c0 5.86 4.155 10.612 9.28 10.612h144.44c5.125 0 9.28-4.751 9.28-10.612v-68.776c0-5.861-4.155-10.612-9.28-10.612" mask="url(#d)"/><path fill="#FFF" d="M287 206h129v-7H287zM288 189h79v-7h-79zM287 222h100v-7H287z" mask="url(#d)"/><path fill="#CADDFF" d="M287 238h129v-7H287zM250.353 264H84.646C78.766 264 74 271.337 74 280.39v106.22c0 9.052 4.767 16.39 10.646 16.39h165.707c5.88 0 10.647-7.338 10.647-16.39V280.39c0-9.053-4.767-16.39-10.647-16.39" mask="url(#d)"/><path fill="#FFF" d="M104 288h126v-11H104zM93 308h150v-7H93zM93 324h150v-7H93zM94 340h104v-7H94zM94 355h150v-7H94zM94 371h100v-7H94z" mask="url(#d)"/><path fill="#5479F7" d="M426.663 233H281.337c-5.156 0-9.337 7.313-9.337 16.335v105.872c0 9.022 4.766 14.793 9.923 14.793l145.218-.299c5.157 0 8.859-5.472 8.859-14.494V249.335c0-9.022-4.18-16.335-9.337-16.335" mask="url(#d)"/><path fill="#CADDFF" d="m271 345.382 50.856-54.231a6.822 6.822 0 0 1 9.651-.293l52.06 49.14 26.22-28.255a4.926 4.926 0 0 1 6.79-.407L437 328.633l-.243 35.178c-.032 4.531-3.728 8.189-8.277 8.189H281.663c-4.988 0-9.122-3.851-9.458-8.81L271 345.383ZM395 268a9 9 0 1 1-18 0 9 9 0 0 1 18 0" mask="url(#d)"/><path fill="#000" d="M281.245 233.793c-4.583 0-8.453 7.082-8.453 15.463v106.032c0 8.713 4.596 13.919 9.04 13.919l145.4-.3c4.772 0 7.976-5.472 7.976-13.619V249.256c0-8.381-3.87-15.463-8.453-15.463h-145.51ZM281.833 371c-5.252 0-10.833-5.506-10.833-15.712V249.256c0-9.676 4.5-17.256 10.245-17.256h145.51C432.5 232 437 239.58 437 249.256v106.032c0 9.219-3.924 15.413-9.766 15.413l-145.4.299Z" mask="url(#d)"/><path fill="#5479F7" d="M273.353 32H107.646C101.766 32 97 37.86 97 45.088v84.824C97 137.14 101.767 143 107.646 143h165.707c5.88 0 10.647-5.86 10.647-13.088V45.088C284 37.859 279.233 32 273.353 32" mask="url(#d)"/><path fill="#000" d="M107.555 32.795c-5.382 0-9.76 5.48-9.76 12.215v84.98c0 6.735 4.378 12.215 9.76 12.215h165.89c5.382 0 9.76-5.48 9.76-12.215V45.01c0-6.736-4.378-12.215-9.76-12.215h-165.89ZM273.445 144h-165.89C101.184 144 96 137.716 96 129.99V45.01C96 37.284 101.184 31 107.555 31h165.89C279.816 31 285 37.284 285 45.01v84.98c0 7.726-5.184 14.01-11.555 14.01Z" mask="url(#d)"/><path fill="#FFF" d="M125 57h126V46H125z" mask="url(#d)"/><path fill="#CADDFF" d="M112 76h157v-7H112zM112 93h103v-7H112zM113 126h103v-7H113zM112 108h157v-7H112z" mask="url(#d)"/><path fill="#000" d="M341.469 50.892c4.496 7.6 15.048 9.097 17.415 9.36 9.618 1.067 16.718-3.516 18.639-4.85 3.33 2.03 11.402 6.3 21.937 5.5 8.33-.633 22.362-4.751 25.08-14.401 3.255-11.552-11.415-24.965-24-29.702-10.555-3.973-26.644-4.48-34.346 3.561-2.83 2.955-3.266 5.746-6.607 6.71-5.997 1.733-10.406-5.578-18.178-5.206-4.661.222-8.301 3.102-10.55 5.34-5.737 1.879-9.252 5.652-8.824 8.686.447 3.162 5.112 5.079 6.022 5.453 4.724 1.941 7.231-.018 10.03 2.015 2.48 1.803 1.475 4.31 3.382 7.534" mask="url(#d)"/><path fill="#FFF" d="M353.6 61.694s-23.619 7.539-35.1 0c-5.399-3.545-25.496-28.578-29.853-30.893-2.65-1.407-6.768-3.521-9.588-4.962a7.668 7.668 0 0 0-6.322-.296L261 30.207s3.417 2.74 8.983 1.644c3.588-.707 7.305-.345 10.61 1.22l.226.106-10.543 3.278s1.596 2.66 7.248 1.638c2.985-.54 6.58.131 9.309.884l.192.1s10.08 27.96 24.863 36.711c21.51 12.733 44.112 4.73 44.112 4.73l-2.4-18.824Z" mask="url(#d)"/><path fill="#000" d="M280.678 36.955c2.568 0 5.232.561 7.228 1.113l.176.07.504.262.119.33c.1.278 10.17 27.876 24.541 36.397 18.898 11.203 38.871 6.07 42.786 4.893l-2.177-17.106c-4.771 1.387-24.444 6.48-34.931-.416-2.788-1.834-8.921-8.711-15.415-15.993-6.09-6.83-12.389-13.893-14.446-14.987-2.798-1.488-7.215-3.756-9.6-4.976a6.783 6.783 0 0 0-5.598-.263l-10.035 3.994c1.4.609 3.725 1.225 6.768.624 3.91-.772 7.782-.324 11.197 1.293l2.309 1.093-11.21 3.49c.929.473 2.567.88 5.28.39.804-.146 1.65-.208 2.504-.208M340.024 84c-8.076 0-18.023-1.593-27.693-7.326-14.152-8.39-23.848-33.38-25.174-36.946-2.465-.661-5.877-1.3-8.664-.796-6.204 1.124-8.12-1.937-8.198-2.068l-.588-.98 9.233-2.876c-2.52-.767-5.243-.89-7.995-.348-5.921 1.167-9.589-1.709-9.742-1.832L260 29.862l13.201-5.253a8.573 8.573 0 0 1 7.08.332c2.389 1.222 6.817 3.495 9.626 4.99 2.34 1.245 8.462 8.11 14.943 15.378 6.13 6.874 12.47 13.982 15.06 15.686 11.02 7.248 34.196-.03 34.429-.105l1.028-.328L358 81.254l-.682.242c-.128.046-7.268 2.504-17.294 2.504M398 105.437s-20.458 13.902-49 9.809c0 0 3.858-7.459 10.453-10.135 6.596-2.677 38.547.326 38.547.326" mask="url(#d)"/><path fill="#99B9FF" d="M426 141c-1.28-31.419-19.362-43-19.362-43l-37.265 9.31L354 141h72Z" mask="url(#d)"/><path fill="#5479F7" d="m348.35 56.104 19.495-9.795a12.265 12.265 0 0 1 14.633 2.758c8.505 9.445 23.156 27.702 30.522 48.487 0 0-13.245 16.997-30.76 15.813-17.516-1.184-27.84-2.317-34.034 2.633 0 0-5.153-26.059-6.194-49.074a11.535 11.535 0 0 1 6.338-10.822" mask="url(#d)"/><path fill="#FFF" d="M348.99 39.592c.03-.036 2.047-2.338.94-4.024-1.114-1.7-3.319.55-3.319.55s-1.87-3.23-6.137-3.115c0 0-1.822 4.13-6.474 4.109 0 0 1.062 2.417 2.631 5.1l.507 2.888c.077.435.566.66.947.436a.657.657 0 0 1 .856.172c1.15 1.51 2.399 2.774 3.624 3.322 1.714.767 3.25-.022 4.404-1.494 2.719 3.29 6.735 8.886 4.862 11.306 0 0 6.12 1.768 12.169-6.533l-15.01-12.717Z" mask="url(#d)"/><path fill="#000" d="M353.135 57.251c1.764.046 5.528-.528 9.452-5.495l-14.784-12.394.602-.668c.406-.46 1.43-1.964.845-2.846-.134-.203-.234-.213-.287-.218-.429-.038-1.197.488-1.595.887l-.818.817-.583-.993c-.06-.1-1.5-2.437-4.722-2.583-.625 1.06-2.333 3.372-5.541 3.884a54.22 54.22 0 0 0 2.004 3.736l.08.136.467 2.633a1.546 1.546 0 0 1 1.659.536c1.192 1.546 2.273 2.54 3.214 2.957 1.137.504 2.234.103 3.259-1.19l.68-.86.703.841c4.06 4.86 5.857 8.487 5.365 10.82m.193 1.749c-1.008 0-1.637-.17-1.718-.193l-1.252-.357.797-1.02c.987-1.262-.583-4.71-4.11-9.1-1.393 1.282-3.042 1.616-4.643.909-1.197-.53-2.434-1.624-3.78-3.341a1.53 1.53 0 0 1-1.202-.028 1.495 1.495 0 0 1-.855-1.095l-.47-2.65a54.12 54.12 0 0 1-2.548-4.906L333 35.985l1.364.006h.03c3.916 0 5.491-3.43 5.507-3.466l.226-.507.562-.015c3.28-.083 5.264 1.58 6.192 2.633.58-.41 1.408-.828 2.253-.75.456.044 1.104.254 1.601 1.003 1.015 1.53.177 3.287-.459 4.249L365 51.48l-.484.657c-4.368 5.93-8.822 6.861-11.188 6.862" mask="url(#d)"/><path fill="#000" d="M346.793 48a.753.753 0 0 1-.51-.203.915.915 0 0 1-.096-1.215c.575-.742 1.103-2.39 1.257-2.962.124-.457.564-.719.985-.585.421.134.662.613.539 1.07-.066.246-.673 2.435-1.567 3.588a.768.768 0 0 1-.608.307" mask="url(#d)"/><path fill="#FFF" d="M371.075 71s-14.687 19.968-28.366 20.57c-6.43.282-37.281-8.286-42.154-7.614-2.963.41-7.523 1.104-10.643 1.586a7.638 7.638 0 0 0-5.283 3.464l-5.45 8.597c-.549.866.25 1.976 1.233 1.698 1.608-.454 3.753-1.453 5.753-3.642 2.38-2.605 5.473-4.445 8.934-5.089l.517-.096s5.6 2.177 8.245 1.19l.214-.032s24.464 16.818 41.518 15.267C370.406 104.642 384 84.892 384 84.892L371.075 71Z" mask="url(#d)"/><path fill="#000" d="m304.42 89.93.29.197c.244.165 24.622 16.49 41.302 14.995 21.912-1.96 35.167-17.668 37.663-20.883l-11.8-12.474c-3.068 3.88-16.08 19.38-28.652 19.923-3.338.13-12.363-1.822-21.914-3.903-8.959-1.954-18.225-3.976-20.537-3.658-2.932.397-7.45 1.073-10.724 1.57a6.814 6.814 0 0 0-4.708 3.036l-5.499 8.53c-.072.113-.033.208.012.27.09.119.194.09.229.08 1.392-.387 3.456-1.284 5.385-3.359 2.624-2.824 5.914-4.664 9.513-5.322l.773-.14.238.09c1.484.566 5.759 1.88 7.68 1.175l.186-.046.563-.08ZM343.758 107c-16.163 0-36.761-13.217-39.735-15.184-2.712.781-7.243-.747-8.44-1.184l-.276.05c-3.211.588-6.155 2.24-8.513 4.777-2.215 2.383-4.608 3.418-6.225 3.868a2.018 2.018 0 0 1-2.162-.733 1.984 1.984 0 0 1-.085-2.287l5.499-8.53a8.617 8.617 0 0 1 5.953-3.839c3.28-.498 7.81-1.176 10.753-1.575 2.638-.355 11.638 1.606 21.17 3.683 9.017 1.965 18.337 4.003 21.447 3.863 13.22-.57 27.79-19.855 27.937-20.05l.643-.859L386 84.09l-.413.59c-.14.2-14.247 19.965-39.413 22.216-.79.07-1.6.104-2.416.104Z" mask="url(#d)"/><path fill="#000" d="M371.813 72a.727.727 0 0 1-.332-.081c-.41-.21-.593-.759-.41-1.226l4.374-11.145c.184-.467.665-.676 1.074-.467.41.21.593.759.41 1.226l-4.374 11.145c-.135.344-.432.548-.742.548M384.914 85a.913.913 0 0 1-.85-.556.868.868 0 0 1 .514-1.14l11.173-4.242c.47-.178 1 .043 1.185.494a.868.868 0 0 1-.514 1.14l-11.174 4.243a.943.943 0 0 1-.334.061M448.047 136H380l47.016-78.08c1.47-2.44 4.15-3.92 7.103-3.92h55.224c3.508 0 5.805 3.778 4.06 6.677L448.046 136Z" mask="url(#d)"/><path fill="#CADDFF" d="M460.032 81.5c-2.034 3.59-6.608 6.5-10.215 6.5s-4.883-2.91-2.849-6.5 6.608-6.5 10.215-6.5 4.883 2.91 2.849 6.5" mask="url(#d)"/><path fill="#000" d="M447.404 144H301.596c-1.434 0-2.596-1.254-2.596-2.801V135h151v6.199c0 1.547-1.162 2.801-2.596 2.801" mask="url(#d)"/><path fill="#FFF" d="M445.103 137h-69.206c-.496 0-.897-.448-.897-1s.401-1 .897-1h69.206c.495 0 .897.448.897 1s-.402 1-.897 1" mask="url(#d)"/><path fill="#000" d="M386.292 487H319l80.637-77.129c2.52-2.41 5.818-3.871 8.738-3.871h54.612c3.469 0 4.088 3.732 1.095 6.596L386.292 487Z" mask="url(#d)"/><path fill="#CADDFF" d="M422.435 434c-3.476 3.314-9.174 6-12.728 6-3.553 0-3.617-2.686-.142-6s9.174-6 12.727-6c3.554 0 3.618 2.686.143 6" mask="url(#d)"/><path fill="#000" d="M385.456 495H242.544c-1.405 0-2.544-1.115-2.544-2.49V487h148v5.51c0 1.375-1.139 2.49-2.544 2.49" mask="url(#d)"/><path fill="#FFF" d="M384.104 488h-68.208c-.495 0-.896-.448-.896-1s.401-1 .896-1h68.208c.495 0 .896.448.896 1s-.401 1-.896 1" mask="url(#d)"/><path fill="#000" d="M180.298 353s-13.786-12.826-18.844-15.81c-5.06-2.985-11.36-15.226 5.64-22.723 5.51-2.43 6.594-9.163 17.205-10.312 10.61-1.15 19.424 4.27 20.566 11.002 1.142 6.732-5.202 12.564-9.945 13.343-4.743.779-14.622 24.5-14.622 24.5" mask="url(#d)"/><path fill="#FFF" d="m204.36 336.858 1.484-2.17-5.875-7.596-4.028-9.977c-11.382-.78-15.944 2.362-16.093 11.184-.096 5.656-3.043 5.79-3.043 5.79s-4.328-4.706-6.566.877c-2.24 5.583 7.067 9.462 7.067 9.462a7.824 7.824 0 0 1-.755 7.917L160 375.071s31.035 8.303 31.362 3.356c.092-1.402-.38-2.599-1.103-3.595-3.578-4.923 2.885-18.234 2.885-18.234l10.36-4.228c1.899-.775 2.908-2.877 2.337-4.864l-2.049-7.122a4.195 4.195 0 0 1 .567-3.526" mask="url(#d)"/><path fill="#000" d="M161.404 373.746c10.34 2.643 26.343 5.838 28.956 3.973.136-.097.14-.152.143-.185.069-1.034-.246-2.031-.936-2.966-3.87-5.24 2.541-18.383 2.816-18.94a.896.896 0 0 1 .47-.434l10.404-4.178a3.08 3.08 0 0 0 1.823-3.731l-2.058-7.037a4.96 4.96 0 0 1 .693-4.242l1.116-1.604-5.495-6.99a.885.885 0 0 1-.123-.213l-3.834-9.34c-5.947-.342-9.759.446-11.969 2.465-1.766 1.612-2.617 4.074-2.68 7.747-.11 6.354-3.758 6.59-3.913 6.597a.883.883 0 0 1-.698-.284c-.47-.498-1.963-1.746-3.194-1.52-.754.14-1.397.852-1.912 2.115-1.888 4.63 6.525 8.156 6.61 8.191a.897.897 0 0 1 .468.443 8.503 8.503 0 0 1-.847 8.734l-15.84 21.399ZM186.97 380c-8.532 0-25.044-4.267-27.303-4.861a.894.894 0 0 1-.616-.566.886.886 0 0 1 .124-.825l16.624-22.458a6.732 6.732 0 0 0 .803-6.617c-1.769-.794-9.571-4.676-7.252-10.364.76-1.867 1.856-2.944 3.254-3.2 1.888-.344 3.67 1 4.438 1.686.592-.258 1.833-1.217 1.894-4.754.07-4.138 1.137-7.092 3.26-9.03 2.666-2.435 7.07-3.356 13.862-2.897.342.022.64.237.77.552l3.998 9.745 5.825 7.41a.889.889 0 0 1 .03 1.056l-1.49 2.144a3.191 3.191 0 0 0-.446 2.729l2.057 7.037a4.856 4.856 0 0 1-2.872 5.883l-10.084 4.049c-1.801 3.762-5.44 13.263-2.833 16.794.948 1.283 1.378 2.675 1.28 4.139-.029.424-.206 1.03-.886 1.516-.827.59-2.407.832-4.437.832Z" mask="url(#d)"/><path fill="#000" d="m178.686 327.264 7.991 10.654c3.39 4.518 9.596 5.96 14.675 3.409l4.34-2.18 8.017 14.55c.859 2.07-.254 4.422-2.415 5.104l-11.654 4.764c-3.33 1.05-6.977.166-9.433-2.287l-12.529-12.516s4.75-4.344.163-14.13c-4.588-9.785.845-7.368.845-7.368" mask="url(#d)"/><path fill="#5479F7" d="m311 415.98-17.94-13.52s-11.702 6.006-34.683 7.157c-11.056.554-21.1-13.377-26.806-17.09-8.637-5.622-18.496-9.097-28.775-9.942l-41.3-3.391c-22.823-1.875-44.58 9.979-55.308 30.16-11.471 21.579-25.69 50.36-34.764 75.97-1.673 4.72 1.814 9.676 6.835 9.676h109.595l24.114-60.227c12.013 5.103 28.666 12.167 54.78 11.824C297.048 446.2 311 415.98 311 415.98" mask="url(#d)"/><path fill="#000" d="M156.732 379.792c-20.771 0-39.975 11.395-49.82 29.932-10.727 20.2-25.462 49.778-34.74 75.984a6.305 6.305 0 0 0 .805 5.819 6.284 6.284 0 0 0 5.19 2.68h109.078l23.909-59.77a.898.898 0 0 1 1.185-.492c12.026 5.112 28.477 12.117 54.463 11.773 26.954-.354 40.928-25.169 43.165-29.51l-16.923-12.765c-2.519 1.17-14.019 5.99-34.564 7.02-8.32.435-16.047-6.944-21.687-12.32-2.217-2.113-4.132-3.94-5.676-4.945-8.6-5.602-18.414-8.997-28.382-9.817l-41.335-3.397a57.045 57.045 0 0 0-4.668-.192M187.854 496H78.167c-2.682 0-5.108-1.253-6.656-3.438-1.554-2.195-1.93-4.911-1.031-7.451 9.314-26.31 24.09-55.974 34.846-76.227 10.915-20.551 32.985-32.592 56.222-30.687l41.334 3.398c10.265.844 20.368 4.338 29.216 10.102 1.683 1.097 3.653 2.975 5.935 5.15 5.704 5.437 12.804 12.2 20.357 11.826 22.5-1.128 34.232-7.013 34.347-7.072a.901.901 0 0 1 .952.081l17.954 13.544c.337.255.451.708.275 1.091-.145.314-3.638 7.791-10.94 15.43-6.761 7.075-18.176 15.554-34.152 15.763-25.733.342-42.247-6.42-54.345-11.557l-23.794 59.483a.898.898 0 0 1-.833.564" mask="url(#d)"/><path fill="#5479F7" d="M216.307 447.067C199.292 441.436 190.1 415 190.1 415L140 425.085s34.724 55.391 58.655 60.463c14.915 3.16 44.88-10.904 65.345-21.95a6150.23 6150.23 0 0 0-9.194-20.24c-14.961 3.635-30.772 6.266-38.499 3.71" mask="url(#d)"/><path fill="#000" d="M203.406 487c-1.779 0-3.434-.151-4.942-.471-24.066-5.107-57.899-58.76-59.327-61.041a.896.896 0 0 1 1.517-.953c.346.553 34.855 55.29 58.18 60.24 11.153 2.368 33.9-5.276 64.11-21.53a6055.805 6055.805 0 0 0-8.557-18.862c-18.828 4.53-31.725 5.718-38.337 3.526-17.265-5.721-26.434-31.618-26.816-32.718a.897.897 0 0 1 1.692-.589c.09.261 9.263 26.163 25.687 31.606 6.284 2.083 19.448.788 38.07-3.74a.898.898 0 0 1 1.026.498c2.78 6.086 6.544 14.4 9.211 20.301a.897.897 0 0 1-.39 1.159C244.848 475.063 219.233 487 203.406 487" mask="url(#d)"/><path fill="#FFF" d="m318.973 448.465-23.32-12.637a15.206 15.206 0 0 0-11.788-1.129c-6.502 2.046-17.437 5.32-28.865 8.029 2.816 6.006 6.607 14.17 9.246 19.859 12.44-6.553 21.391-12.024 21.391-12.024l15.055 7.733s-.839 12.89 2.151 13.243c2.99.355 4.113-11.537 4.113-11.537s2.57 14.762 7.01 11.537l1.703-17.83s2.948 7.897 4.64 8.223l1.691.327-3.027-13.794Z" mask="url(#d)"/><path fill="#000" d="M306.243 459.816c.431 0 .802.317.875.753.724 4.331 2.6 10.781 4.504 11.558.165.067.387.114.705-.037l1.642-17.945a.897.897 0 0 1 .772-.813c.41-.057.806.19.948.587 1.418 3.961 3.23 7.586 3.959 7.915l.313.063-2.625-12.486-22.698-12.834a13.641 13.641 0 0 0-10.947-1.095c-6.7 2.199-16.832 5.349-27.548 8.039 2.566 5.72 5.832 13.054 8.3 18.608 11.7-6.465 20.17-11.857 20.256-11.912a.878.878 0 0 1 .886-.033l14.88 7.977c.31.166.495.501.473.857-.437 7.007.365 12.583 1.346 12.704.026.003.095.011.24-.108 1.448-1.189 2.506-7.364 2.833-10.977a.896.896 0 0 1 .851-.82l.035-.001M311.93 474c-.375 0-.704-.086-.97-.195-2.12-.864-3.603-4.703-4.516-8.03-.535 2.889-1.42 6.11-2.805 7.247-.603.495-1.185.543-1.57.496-3.27-.404-3.186-9.516-2.94-14.029l-13.924-7.464c-1.932 1.216-10.097 6.297-20.757 12.157a.872.872 0 0 1-.706.06.893.893 0 0 1-.526-.483 6190.243 6190.243 0 0 0-9.137-20.48.92.92 0 0 1 .01-.771.894.894 0 0 1 .589-.484c11.047-2.733 21.578-6.002 28.467-8.264a15.4 15.4 0 0 1 12.355 1.235l23.05 13.034a.904.904 0 0 1 .438.602l2.991 14.228a.915.915 0 0 1-.235.823.888.888 0 0 1-.806.253l-1.672-.337c-1.283-.258-2.72-2.88-3.87-5.542l-1.342 14.648a.908.908 0 0 1-.354.641c-.648.492-1.253.655-1.77.655" mask="url(#d)"/><path fill="#5479F7" d="m199.929 384.746 1.018-6.18c.34-2.065-1-4.03-3.046-4.46-10.205-2.152-38.488-8.28-42.17-10.876-4.504-3.175-37.123 27.56-32.233 26.754 36.413-6.002 76.43-5.238 76.43-5.238" mask="url(#d)"/><path fill="#000" d="M154.858 363.815c-.29 0-.79.079-1.616.41-8.007 3.216-26 20.329-29.013 24.82 33.154-5.368 69.333-5.205 75.048-5.14l.896-5.462a3.03 3.03 0 0 0-2.358-3.467c-14.35-3.038-38.966-8.52-42.603-11.095-.007-.005-.1-.066-.354-.066M123.246 391c-.748 0-1.04-.5-1.117-.67-.27-.597-.679-1.498 5.283-7.632 3.436-3.535 7.999-7.737 12.205-11.241 13.509-11.25 15.854-9.59 16.624-9.042 2.86 2.025 23.541 6.91 41.943 10.805a4.822 4.822 0 0 1 3.75 5.515l-1.02 6.224a.905.905 0 0 1-.898.751c-.4-.008-40.457-.698-76.455 5.263a1.931 1.931 0 0 1-.315.027" mask="url(#d)"/><path fill="#FFF" d="M312.553 372.079c.978-1.008 5.105-3.632 6.795-4.224L338.003 359s-.179 7.08-3.657 10.178c4.373 1.56 7.632 3.433 7.632 3.433s8.42-3.723 10.378-4.205c1.955-.48 4.598-1.389 6.792-.656 2.2.735 3.852 3.13 3.852 3.13l-17.745 12.07-25.015-.984L310.96 416 293 402.365l19.553-30.286Z" mask="url(#d)"/><path fill="#000" d="m294.083 402.45 16.056 12.158 8.83-32.302a.881.881 0 0 1 .892-.654l24.446.96 16.508-11.2c-.6-.677-1.623-1.657-2.793-2.047-1.616-.54-3.695.007-5.364.446-.299.078-.587.154-.861.22-1.526.375-7.82 3.086-10.116 4.099a.885.885 0 0 1-.799-.043c-.031-.018-3.211-1.829-7.403-3.319a.892.892 0 0 1-.292-1.505c2.192-1.947 2.941-5.791 3.193-7.91l-17.057 8.076a.885.885 0 0 1-.088.036c-1.512.528-5.34 2.946-6.317 3.89l-18.835 29.095ZM310.649 417a.888.888 0 0 1-.535-.18l-17.761-13.449a.891.891 0 0 1-.21-1.194l19.336-29.871a.9.9 0 0 1 .11-.138c1.04-1.07 5.165-3.702 7.016-4.367l18.408-8.716a.887.887 0 0 1 1.267.828c-.007.272-.188 6.108-2.948 9.644a53.348 53.348 0 0 1 6.037 2.766c1.715-.75 8.246-3.588 10.005-4.02.266-.065.545-.139.833-.214 1.897-.499 4.258-1.118 6.375-.414 2.429.81 4.186 3.32 4.26 3.426a.893.893 0 0 1-.232 1.244L345.06 384.25a.89.89 0 0 1-.532.152l-24.033-.943-8.99 32.886a.89.89 0 0 1-.857.655ZM69.038 23c-.43 0-.821-.235-.932-.588l-1.076-3.44c-.13-.418.18-.842.695-.948.515-.105 1.038.146 1.169.564l1.076 3.44c.13.418-.18.842-.695.948-.08.016-.16.024-.237.024M61.785 30c-.355 0-.678-.204-.764-.506-.1-.354.16-.708.583-.792l3.428-.684c.423-.084.846.134.946.488.1.354-.16.709-.582.792l-3.428.684a.91.91 0 0 1-.183.018M74.785 27c-.355 0-.678-.204-.764-.506-.1-.354.16-.708.583-.792l3.428-.684c.422-.085.846.135.947.488.1.354-.16.709-.583.793l-3.428.683a.91.91 0 0 1-.183.018M72.038 37c-.43 0-.821-.235-.932-.588l-1.076-3.44c-.13-.418.18-.842.695-.948.515-.105 1.038.146 1.169.564l1.076 3.44c.13.418-.18.842-.695.948a1.18 1.18 0 0 1-.237.024M45.382 46.816c-1 0-1.962.317-2.767.922a4.522 4.522 0 0 0-1.771 3.028c-.35 2.558 1.463 4.963 4.04 5.362a4.606 4.606 0 0 0 3.5-.866 4.524 4.524 0 0 0 1.773-3.028c.348-2.558-1.464-4.963-4.04-5.362a4.833 4.833 0 0 0-.735-.056M45.622 58c-.335 0-.673-.026-1.012-.079-3.542-.547-6.032-3.868-5.55-7.402a6.326 6.326 0 0 1 2.479-4.235 6.378 6.378 0 0 1 4.85-1.205c3.543.547 6.033 3.868 5.551 7.402a6.326 6.326 0 0 1-2.479 4.235A6.355 6.355 0 0 1 45.623 58M326 331c-.552 0-1-.375-1-.837v-4.326c0-.462.448-.837 1-.837s1 .375 1 .837v4.326c0 .462-.448.837-1 .837M326 342c-.552 0-1-.375-1-.837v-4.327c0-.461.448-.836 1-.836s1 .375 1 .836v4.327c0 .462-.448.837-1 .837M322.163 335h-4.326c-.463 0-.837-.448-.837-1s.374-1 .837-1h4.326c.463 0 .837.448.837 1s-.374 1-.837 1M333.163 335h-4.327c-.462 0-.836-.448-.836-1s.374-1 .836-1h4.327c.462 0 .837.448.837 1s-.375 1-.837 1" mask="url(#d)"/></g></svg>