<svg xmlns="http://www.w3.org/2000/svg" width="50" height="50" fill="none"><path fill="#CADDFF" fill-rule="evenodd" d="m25.414 21.021-10.316 1.845L6 36.214l15.373-5.79 4.04-9.403ZM32.644 26.085l2.055 10.4-9.038 13.234-.247-16.55 7.23-7.083Z" clip-rule="evenodd"/><path fill="#5479F7" fill-rule="evenodd" stroke="#000" stroke-width=".5" d="M44.512 1.137 44.31 1C23.872 6.056 19.35 31.232 19.35 31.232l5.475 3.737S46.998 21.842 44.512 1.137Z" clip-rule="evenodd"/><path fill="#CADDFF" fill-rule="evenodd" d="M44.594 6.806c.166-1.819.153-3.71-.082-5.669L44.31 1a27.587 27.587 0 0 0-5.384 1.938l5.667 3.868Z" clip-rule="evenodd"/><path fill="#000" fill-rule="evenodd" d="M37.063 17.08a3.29 3.29 0 0 1-4.546.826 3.214 3.214 0 0 1-.835-4.5 3.29 3.29 0 0 1 4.546-.825 3.214 3.214 0 0 1 .835 4.499ZM15.456 43.665l-.983-.671 9.956-14.287.984.671-9.957 14.287Z" clip-rule="evenodd"/></svg>