<svg xmlns="http://www.w3.org/2000/svg" width="50" height="50" fill="none"><path fill="#5479F7" fill-rule="evenodd" d="M5.932 25.034c0 12.169 9.865 22.034 22.034 22.034C40.136 47.068 50 37.203 50 25.034 50 12.864 40.135 3 27.966 3 15.797 3 5.932 12.865 5.932 25.034Z" clip-rule="evenodd"/><path fill="#CADDFF" fill-rule="evenodd" stroke="#00242B" stroke-width=".95" d="M12.712 25.034c0 8.424 6.83 15.254 15.254 15.254 8.425 0 15.254-6.83 15.254-15.254 0-8.425-6.829-15.254-15.254-15.254-8.424 0-15.254 6.83-15.254 15.254Z" clip-rule="evenodd"/><path fill="#5479F7" fill-rule="evenodd" d="M19.491 25.034a8.475 8.475 0 1 0 16.95 0 8.475 8.475 0 0 0-16.95 0Z" clip-rule="evenodd"/><path fill="#000" fill-rule="evenodd" d="M24.576 24.61a2.966 2.966 0 1 0 5.932 0 2.966 2.966 0 0 0-5.932 0ZM17.663 16.56l4.096 2.756s.648.8-.046 1.826c-.694 1.026-2.146.162-2.146.162l-3.056-2.802-.41-1.63 1.562-.313Z" clip-rule="evenodd"/><path fill="#CADDFF" fill-rule="evenodd" d="m22.034 20.535 5.932 4.499-5.593-5.085-.34.585Z" clip-rule="evenodd"/><path fill="#000" fill-rule="evenodd" d="m18.644 17.11-8.387-5.335-2.233-6.753s-.763-2.138-3.147-2.017C2.493 3.127 2.08 5.959 2.08 5.959L.294 5.323l1.053 1.454S-.416 7.45.092 9.844s3.642 2.803 3.642 2.803l5.767.073 7.95 6.382s-.038-.745.344-1.239c.381-.493.85-.754.85-.754Z" clip-rule="evenodd"/></svg>