<svg width="137" height="130" xmlns="http://www.w3.org/2000/svg"><g fill="none" fill-rule="evenodd"><path d="M23.362 59.34C26.13 32.59 50.06 13.148 76.81 15.917c26.75 2.768 46.192 26.698 43.424 53.448-2.769 26.75-26.699 46.192-53.45 43.423-26.75-2.768-46.19-26.698-43.422-53.448" fill="#FFC9BA"/><path d="M62.38.812C31.373 5.368 7.57 32.08 7.57 64.352c0 .638.01 1.273.028 1.906M128.107 95.269c5.046-9.171 7.917-19.709 7.917-30.916 0-15.999-5.85-30.632-15.527-41.876M29.925 113.054c8.432 7.257 18.77 12.362 30.162 14.46 3.797.7 7.711 1.065 11.71 1.065" stroke="#3B50A8" stroke-width="1.623" stroke-linecap="round" stroke-linejoin="round" stroke-dasharray="6.493"/><path d="M48.858 56.961c0 8.928-7.237 16.165-16.165 16.165-8.928 0-16.165-7.237-16.165-16.165 0-8.928 7.237-16.165 16.165-16.165 8.928 0 16.165 7.237 16.165 16.165" fill="#FFF"/><path d="M48.858 56.961c0 8.928-7.237 16.165-16.165 16.165-8.928 0-16.165-7.237-16.165-16.165 0-8.928 7.237-16.165 16.165-16.165 8.928 0 16.165 7.237 16.165 16.165Z" stroke="#3B50A8" stroke-width="1.623" stroke-linecap="round" stroke-linejoin="round"/><path fill="#FFF" d="m32.589 73.126.104 5.035"/><path stroke="#3B50A8" stroke-width="1.623" stroke-linecap="round" stroke-linejoin="round" d="m32.589 73.126.104 5.035"/><path fill="#FFF" d="M32.693 78.16v8.421"/><path stroke="#3B50A8" stroke-width="1.623" stroke-linecap="round" stroke-linejoin="round" d="M32.693 78.16v8.421M56.39 86.581v-7.235c0-.655-.53-1.186-1.185-1.186H9.79c-.655 0-1.185.53-1.185 1.186v7.235"/><path d="M56.39 91.568a2.813 2.813 0 1 1 .001-5.627 2.813 2.813 0 0 1-.001 5.627" fill="#4550E5"/><path d="M56.39 91.568a2.813 2.813 0 1 1 .001-5.627 2.813 2.813 0 0 1-.001 5.627Z" stroke="#3B50A8" stroke-width="1.623" stroke-linecap="round" stroke-linejoin="round"/><path d="M32.693 91.568a2.813 2.813 0 1 1 .001-5.627 2.813 2.813 0 0 1-.001 5.627" fill="#4550E5"/><path d="M32.693 91.568a2.813 2.813 0 1 1 .001-5.627 2.813 2.813 0 0 1-.001 5.627Z" stroke="#3B50A8" stroke-width="1.623" stroke-linecap="round" stroke-linejoin="round"/><path d="M8.604 91.568a2.813 2.813 0 1 1 .001-5.627 2.813 2.813 0 0 1 0 5.627" fill="#4550E5"/><path d="M8.604 91.568a2.813 2.813 0 1 1 .001-5.627 2.813 2.813 0 0 1 0 5.627Z" stroke="#3B50A8" stroke-width="1.623" stroke-linecap="round" stroke-linejoin="round"/><path fill="#FFF" d="M48.185 105.116H63.82v-9.849H48.185z"/><path stroke="#3B50A8" stroke-width="1.623" stroke-linecap="round" stroke-linejoin="round" d="M48.185 105.116H63.82v-9.849H48.185z"/><path fill="#FFF" d="M25.08 105.116h15.635v-9.849H25.08z"/><path stroke="#3B50A8" stroke-width="1.623" stroke-linecap="round" stroke-linejoin="round" d="M25.08 105.116h15.635v-9.849H25.08z"/><path fill="#FFF" d="M.812 105.116h15.635v-9.849H.812z"/><path stroke="#3B50A8" stroke-width="1.623" stroke-linecap="round" stroke-linejoin="round" d="M.812 105.116h15.635v-9.849H.812z"/><path d="M21.266 67.95a2.958 2.958 0 0 1 1.643-1.093c1.525-.387 3.615-.795 4.98-1.188a1.685 1.685 0 0 0 1.214-1.622v-1.282a.577.577 0 0 0-.227-.448c-.915-.734-1.543-1.97-1.768-3.118a5.204 5.204 0 0 1-.042-.25s-.667.006-.765-.609c-.298-1.88-.514-1.961-.514-2.787 0-.825.302-1.022.665-.808a4.554 4.554 0 0 1-.185-1.267c-.024-3.719 2.76-6.082 6.14-6.082s6.222 2.283 6.14 6.082a4.96 4.96 0 0 1-.185 1.267c.363-.214.664-.017.664.808 0 .826-.215.907-.514 2.787-.097.615-.764.609-.764.609-.03.2-.097.43-.186.666-.375.996-1.011 2.028-1.835 2.703a.57.57 0 0 0-.217.44v1.289c0 .752.498 1.416 1.224 1.624 1.365.393 3.8.688 5.321 1.073a2.956 2.956 0 0 1 1.803 1.33l.192.39" fill="#FFF"/><path d="M21.266 67.95a2.958 2.958 0 0 1 1.643-1.093c1.525-.387 3.615-.795 4.98-1.188a1.685 1.685 0 0 0 1.214-1.622v-1.282a.577.577 0 0 0-.227-.448c-.915-.734-1.543-1.97-1.768-3.118a5.204 5.204 0 0 1-.042-.25s-.667.006-.765-.609c-.298-1.88-.514-1.961-.514-2.787 0-.825.302-1.022.665-.808a4.554 4.554 0 0 1-.185-1.267c-.024-3.719 2.76-6.082 6.14-6.082s6.222 2.283 6.14 6.082a4.96 4.96 0 0 1-.185 1.267c.363-.214.664-.017.664.808 0 .826-.215.907-.514 2.787-.097.615-.764.609-.764.609-.03.2-.097.43-.186.666-.375.996-1.011 2.028-1.835 2.703a.57.57 0 0 0-.217.44v1.289c0 .752.498 1.416 1.224 1.624 1.365.393 3.8.688 5.321 1.073a2.956 2.956 0 0 1 1.803 1.33l.192.39" stroke="#3B50A8" stroke-width="1.623" stroke-linecap="round" stroke-linejoin="round"/><path d="M28.301 61.75c2.217 2.217 5.798 2.082 7.82.19" fill="#FFF"/><path d="M28.301 61.75c2.217 2.217 5.798 2.082 7.82.19M38.486 56.262l.26-2.734a5.35 5.35 0 0 0-2.448-5.043 5.018 5.018 0 0 0-.457-.251c-2.44-1.21-5.326-.856-5.326-.856a2.707 2.707 0 0 0-2.078 1.169l-.488.72c-1.257.224-2.149 1.308-2.088 2.538l.462 4.233 1.082-2.355c.052-.077.13-.155.22-.23a5.32 5.32 0 0 0 1.364-1.702l.244-.496.403.18c1.855.83 3.91 1.079 5.946.874.333-.034.586.028.647.265 1.057 4.126 2.257 3.688 2.257 3.688Z" stroke="#3B50A8" stroke-width="1.623" stroke-linecap="round" stroke-linejoin="round"/><path d="m28.301 65.483 2.883 1.34c.653.303 1.405.31 2.063.02l3.072-1.36" fill="#FFF"/><path d="m28.301 65.483 2.883 1.34c.653.303 1.405.31 2.063.02l3.072-1.36" stroke="#3B50A8" stroke-width="1.623" stroke-linecap="round" stroke-linejoin="round"/><path d="M86.81 3.41V5.72c0 .62-.504 1.124-1.125 1.124H65.581a2.546 2.546 0 0 0-2.546 2.546v19.773a2.546 2.546 0 0 0 2.546 2.546h32.69a2.546 2.546 0 0 0 2.547-2.546V3.411c0-.821-.666-1.486-1.486-1.486H88.296c-.82 0-1.486.665-1.486 1.486" fill="#FFF"/><path d="M86.81 3.41V5.72c0 .62-.504 1.124-1.125 1.124H65.581a2.546 2.546 0 0 0-2.546 2.546v19.773a2.546 2.546 0 0 0 2.546 2.546h32.69a2.546 2.546 0 0 0 2.547-2.546V3.411c0-.821-.666-1.486-1.486-1.486H88.296c-.82 0-1.486.665-1.486 1.486Z" stroke="#3B50A8" stroke-width="1.623" stroke-linecap="round" stroke-linejoin="round"/><path d="M92.411 9.011v2.308c0 .622-.504 1.125-1.125 1.125H71.182a2.546 2.546 0 0 0-2.546 2.546v19.773a2.546 2.546 0 0 0 2.546 2.546h32.69a2.546 2.546 0 0 0 2.547-2.546V9.011c0-.82-.666-1.485-1.486-1.485H93.897c-.82 0-1.486.665-1.486 1.485" fill="#FFF"/><path d="M92.411 9.011v2.308c0 .622-.504 1.125-1.125 1.125H71.182a2.546 2.546 0 0 0-2.546 2.546v19.773a2.546 2.546 0 0 0 2.546 2.546h32.69a2.546 2.546 0 0 0 2.547-2.546V9.011c0-.82-.666-1.485-1.486-1.485H93.897c-.82 0-1.486.665-1.486 1.485Z" stroke="#3B50A8" stroke-width="1.623" stroke-linecap="round" stroke-linejoin="round"/><path d="M97.864 14.465v2.308c0 .62-.503 1.124-1.125 1.124H76.635a2.546 2.546 0 0 0-2.546 2.546v19.773a2.546 2.546 0 0 0 2.546 2.546h32.69a2.546 2.546 0 0 0 2.547-2.546V14.465c0-.821-.665-1.486-1.486-1.486H99.35c-.82 0-1.486.665-1.486 1.486" fill="#4550E5"/><path d="M97.864 14.465v2.308c0 .62-.503 1.124-1.125 1.124H76.635a2.546 2.546 0 0 0-2.546 2.546v19.773a2.546 2.546 0 0 0 2.546 2.546h32.69a2.546 2.546 0 0 0 2.547-2.546V14.465c0-.821-.665-1.486-1.486-1.486H99.35c-.82 0-1.486.665-1.486 1.486Z" stroke="#3B50A8" stroke-width="1.623" stroke-linecap="round" stroke-linejoin="round"/><path d="M119.475 124.137H77.216a2.555 2.555 0 0 1-2.55-2.56v-56.45a2.555 2.555 0 0 1 2.55-2.559h35.674c.65 0 1.276.249 1.749.696l6.585 6.221c.512.484.802 1.158.802 1.863v50.23a2.555 2.555 0 0 1-2.551 2.559" fill="#EDEEFF"/><path d="M119.475 124.137H77.216a2.555 2.555 0 0 1-2.55-2.56v-56.45a2.555 2.555 0 0 1 2.55-2.559h35.674c.65 0 1.276.249 1.749.696l6.585 6.221c.512.484.802 1.158.802 1.863v50.23a2.555 2.555 0 0 1-2.551 2.559Z" stroke="#3B50A8" stroke-width="1.623" stroke-linecap="round" stroke-linejoin="round"/><path d="M91.042 72.087c0 2.301-1.796 4.167-4.012 4.167-2.215 0-4.011-1.866-4.011-4.167 0-2.301 1.796-4.167 4.011-4.167 2.216 0 4.012 1.866 4.012 4.167" fill="#FFF"/><path d="M91.042 72.087c0 2.301-1.796 4.167-4.012 4.167-2.215 0-4.011-1.866-4.011-4.167 0-2.301 1.796-4.167 4.011-4.167 2.216 0 4.012 1.866 4.012 4.167Z" stroke="#3B50A8" stroke-width="1.623" stroke-linecap="round" stroke-linejoin="round"/><path d="M89.496 76.46c-1.949-.069-3.636-.003-5.051-.01-3.695-.018-4.506 4.846-4.94 7.543a.765.765 0 0 0 .753.888l13.654-.01a.765.765 0 0 0 .755-.88c-.404-2.651-1.078-7.387-5.171-7.531" fill="#4550E5"/><path d="M89.496 76.46c-1.949-.069-3.636-.003-5.051-.01-3.695-.018-4.506 4.846-4.94 7.543a.765.765 0 0 0 .753.888l13.654-.01a.765.765 0 0 0 .755-.88c-.404-2.651-1.078-7.387-5.171-7.531Z" stroke="#3B50A8" stroke-width="1.623" stroke-linecap="round" stroke-linejoin="round"/><path fill="#FFF" d="M99.532 74.122h16.214"/><path stroke="#3B50A8" stroke-width="1.623" stroke-linecap="round" stroke-linejoin="round" d="M99.532 74.122h16.214"/><path fill="#FFF" d="M99.532 78.393h18.875"/><path stroke="#3B50A8" stroke-width="1.623" stroke-linecap="round" stroke-linejoin="round" d="M99.532 78.393h18.875"/><path fill="#FFF" d="M99.688 82.684h15.662"/><path stroke="#3B50A8" stroke-width="1.623" stroke-linecap="round" stroke-linejoin="round" d="M99.688 82.684h15.662"/><path fill="#4550E5" d="M85.055 120.096h3.464v-11.78h-3.464z"/><path stroke="#3B50A8" stroke-width="1.623" stroke-linecap="round" stroke-linejoin="round" d="M85.055 120.096h3.464v-11.78h-3.464z"/><path fill="#FFF" d="M78.065 120.096h3.621v-8.31h-3.621z"/><path stroke="#3B50A8" stroke-width="1.623" stroke-linecap="round" stroke-linejoin="round" d="M78.065 120.096h3.621v-8.31h-3.621z"/><path fill="#FFF" d="M93.081 111.785h25.79"/><path stroke="#3B50A8" stroke-width="1.623" stroke-linecap="round" stroke-linejoin="round" d="M93.081 111.785h25.79"/><path fill="#FFF" d="M93.081 115.116h23.128"/><path stroke="#3B50A8" stroke-width="1.623" stroke-linecap="round" stroke-linejoin="round" d="M93.081 115.116h23.128"/><path fill="#FFF" d="m93.081 118.448 25.13.115"/><path stroke="#3B50A8" stroke-width="1.623" stroke-linecap="round" stroke-linejoin="round" d="m93.081 118.448 25.13.115"/><path fill="#FFF" d="M97.067 96.046h18.284"/><path stroke="#3B50A8" stroke-width="1.623" stroke-linecap="round" stroke-linejoin="round" d="M97.067 96.046h18.284"/><path fill="#FFF" d="M97.534 99.862h11.436"/><path stroke="#3B50A8" stroke-width="1.623" stroke-linecap="round" stroke-linejoin="round" d="M97.534 99.862h11.436"/><path fill="#FFF" d="M97.534 103.447h14.941"/><path stroke="#3B50A8" stroke-width="1.623" stroke-linecap="round" stroke-linejoin="round" d="M97.534 103.447h14.941"/><path fill="#4550E5" d="M121.886 70.243h-7.735l-.097-7.253z"/><path stroke="#3B50A8" stroke-width="1.623" stroke-linecap="round" stroke-linejoin="round" d="M121.886 70.243h-7.735l-.097-7.253z"/><path d="M83.966 98.796a2.394 2.394 0 0 1-.61-3.293 2.308 2.308 0 0 1 3.246-.596 2.394 2.394 0 0 1 .608 3.294 2.308 2.308 0 0 1-3.244.595m6.297 2.96 1.303-1.923a.283.283 0 0 0-.072-.389l-1.008-.706a.269.269 0 0 1-.1-.297c.088-.295.15-.594.186-.894a.261.261 0 0 1 .21-.23l.99-.182a.491.491 0 0 0 .391-.576l-.386-2.09a.278.278 0 0 0-.322-.225l-1.2.22a.262.262 0 0 1-.279-.14 5.409 5.409 0 0 0-.493-.77.269.269 0 0 1-.012-.313l.69-1.017a.283.283 0 0 0-.073-.39l-1.904-1.333a.273.273 0 0 0-.383.07l-.69 1.018a.258.258 0 0 1-.293.1 5.247 5.247 0 0 0-.883-.194.265.265 0 0 1-.228-.215l-.225-1.218a.278.278 0 0 0-.322-.226l-2.268.417a.277.277 0 0 0-.22.325l.225 1.218a.264.264 0 0 1-.136.281 5.231 5.231 0 0 0-.756.495.259.259 0 0 1-.31.011l-1.008-.705a.273.273 0 0 0-.383.07l-1.303 1.922a.283.283 0 0 0 .072.39l1.008.705a.268.268 0 0 1 .1.298c-.087.294-.149.593-.185.894a.261.261 0 0 1-.21.23l-1.2.22a.278.278 0 0 0-.221.325l.425 2.302a.278.278 0 0 0 .322.225l1.2-.22a.262.262 0 0 1 .279.14c.141.268.306.526.493.77.07.092.077.218.012.313l-.689 1.018a.283.283 0 0 0 .072.39l1.904 1.332a.273.273 0 0 0 .384-.07l.69-1.017a.258.258 0 0 1 .292-.1c.291.09.586.155.884.194.113.015.206.1.227.214l.225 1.218a.278.278 0 0 0 .322.226l2.268-.416a.278.278 0 0 0 .22-.326l-.225-1.218a.264.264 0 0 1 .137-.281 5.24 5.24 0 0 0 .756-.495.258.258 0 0 1 .31-.01l1.007.705a.273.273 0 0 0 .383-.07" fill="#FFF"/><path d="M83.966 98.796a2.394 2.394 0 0 1-.61-3.293 2.308 2.308 0 0 1 3.246-.596 2.394 2.394 0 0 1 .608 3.294 2.308 2.308 0 0 1-3.244.595Zm6.297 2.96 1.303-1.923a.283.283 0 0 0-.072-.389l-1.008-.706a.269.269 0 0 1-.1-.297c.088-.295.15-.594.186-.894a.261.261 0 0 1 .21-.23l.99-.182a.491.491 0 0 0 .391-.576l-.386-2.09a.278.278 0 0 0-.322-.225l-1.2.22a.262.262 0 0 1-.279-.14 5.409 5.409 0 0 0-.493-.77.269.269 0 0 1-.012-.313l.69-1.017a.283.283 0 0 0-.073-.39l-1.904-1.333a.273.273 0 0 0-.383.07l-.69 1.018a.258.258 0 0 1-.293.1 5.247 5.247 0 0 0-.883-.194.265.265 0 0 1-.228-.215l-.225-1.218a.278.278 0 0 0-.322-.226l-2.268.417a.277.277 0 0 0-.22.325l.225 1.218a.264.264 0 0 1-.136.281 5.231 5.231 0 0 0-.756.495.259.259 0 0 1-.31.011l-1.008-.705a.273.273 0 0 0-.383.07l-1.303 1.922a.283.283 0 0 0 .072.39l1.008.705a.268.268 0 0 1 .1.298c-.087.294-.149.593-.185.894a.261.261 0 0 1-.21.23l-1.2.22a.278.278 0 0 0-.221.325l.425 2.302a.278.278 0 0 0 .322.225l1.2-.22a.262.262 0 0 1 .279.14c.141.268.306.526.493.77.07.092.077.218.012.313l-.689 1.018a.283.283 0 0 0 .072.39l1.904 1.332a.273.273 0 0 0 .384-.07l.69-1.017a.258.258 0 0 1 .292-.1c.291.09.586.155.884.194.113.015.206.1.227.214l.225 1.218a.278.278 0 0 0 .322.226l2.268-.416a.278.278 0 0 0 .22-.326l-.225-1.218a.264.264 0 0 1 .137-.281 5.24 5.24 0 0 0 .756-.495.258.258 0 0 1 .31-.01l1.007.705a.273.273 0 0 0 .383-.07Z" stroke="#3B50A8" stroke-width="1.623" stroke-linecap="round" stroke-linejoin="round"/></g></svg>