<svg xmlns="http://www.w3.org/2000/svg" width="50" height="50" fill="none"><path fill="#CADDFF" fill-rule="evenodd" d="m31.542 21.476-.165-10.426c-.076-3.37-2.722-6.127-6.057-6.281-3.676-.17-6.726 2.863-6.641 6.576 0 0 .411 13.674-1.284 11.497 0 0-2.758.26-2.773-.778l.211-10.483C14.695 5.617 19.426.721 25.526.971v.005c5.04.207 9.65 4.682 9.776 10.13l.13 10.53-3.89-.16Z" clip-rule="evenodd"/><path fill="#000" fill-rule="evenodd" d="M17.716 22.302c.08 0 .158.037.208.102.07.09.116.122.136.132.1-.076.604-.719.72-5.951.064-2.867-.02-5.697-.02-5.726a6.89 6.89 0 0 1 2.04-5.047 6.627 6.627 0 0 1 5.011-1.931c3.526.163 6.35 3.09 6.43 6.663l.165 10.376 3.438.14-.13-10.45c-.12-5.24-4.57-9.849-9.716-10.06a.273.273 0 0 1-.052-.007c-2.868-.104-5.543.928-7.54 2.908-2.026 2.008-3.105 4.72-3.038 7.635l-.216 10.696c.002.073.033.137.104.2.399.363 1.706.389 2.435.32a.228.228 0 0 1 .025 0Zm.347.775c-.131 0-.29-.055-.459-.23-.502.036-2.081.098-2.703-.466a.812.812 0 0 1-.28-.6l.217-10.694c-.071-3.053 1.064-5.905 3.196-8.018C20.149.972 22.984-.116 26.02.01c.019.002.037.004.054.009C31.466.269 36.118 5.103 36.245 10.6l.133 10.735a.27.27 0 0 1-.08.196.258.258 0 0 1-.196.075l-3.968-.162a.267.267 0 0 1-.255-.264l-.168-10.627c-.074-3.29-2.676-5.988-5.924-6.138a6.116 6.116 0 0 0-4.616 1.78 6.35 6.35 0 0 0-1.88 4.65c0 .026.085 2.911.018 5.814-.138 6.042-.773 6.275-1.078 6.387a.487.487 0 0 1-.168.03Z" clip-rule="evenodd"/><mask id="a" width="32" height="30" x="11" y="20" maskUnits="userSpaceOnUse" style="mask-type:luminance"><path fill="#5479F7" d="M11.795 20.2h31.143V50H11.795V20.2Z"/></mask><g mask="url(#a)"><path fill="#5479F7" fill-rule="evenodd" d="M27.24 49.827 22.81 50c-6.132-.152-11.554-7.411-10.972-15.944l.93-13.65 26.068-.207c2.314-.009 4.252 2.035 4.093 4.32l-.805 11.528c-.529 7.756-7.035 13.78-14.884 13.78Z" clip-rule="evenodd"/></g><path fill="#5479F7" fill-rule="evenodd" d="M22.715 49.038c-8.517 0-15.255-7.199-14.68-15.685l.89-13.16H36.11c1.25 0 2.24 1.056 2.155 2.302l-.869 12.84c-.522 7.713-6.94 13.703-14.68 13.703Z" clip-rule="evenodd"/><mask id="b" width="32" height="30" x="8" y="20" maskUnits="userSpaceOnUse" style="mask-type:luminance"><path fill="#000" d="M8 20.268h31.147v29.686H8V20.268Z"/></mask><g mask="url(#b)"><path fill="#000" fill-rule="evenodd" d="M23.067 49.954c-3.692 0-7.251-1.327-10.022-3.738a15.092 15.092 0 0 1-5.042-9.182.264.264 0 0 1 .224-.299.264.264 0 0 1 .3.223c1.042 7.109 7.293 12.47 14.54 12.47 7.7 0 14.138-5.977 14.657-13.607l.888-13.047a1.829 1.829 0 0 0-.498-1.391 1.854 1.854 0 0 0-1.364-.588H11.213a2.05 2.05 0 0 0-2.045 1.899l-.124 1.818a.266.266 0 0 1-.529-.036l.124-1.818a2.58 2.58 0 0 1 2.574-2.39H36.75c.671 0 1.293.269 1.751.755.458.487.686 1.121.64 1.786l-.888 13.047c-.538 7.906-7.209 14.098-15.186 14.098Z" clip-rule="evenodd"/></g><path fill="#000" fill-rule="evenodd" d="M22.359 41.346c-.644 0-1.154-.579-1.113-1.263l.606-10.125c.037-.625.525-1.112 1.113-1.112.644 0 1.155.58 1.114 1.264l-.607 10.124c-.037.625-.524 1.112-1.113 1.112Z" clip-rule="evenodd"/><path fill="#000" fill-rule="evenodd" d="M27.865 30.288c0 2.39-1.906 4.327-4.257 4.327-2.35 0-4.257-1.937-4.257-4.327 0-2.39 1.906-4.326 4.257-4.326s4.257 1.937 4.257 4.326Z" clip-rule="evenodd"/></svg>