<svg xml:space="preserve" width="798.587" height="292.573" xmlns="http://www.w3.org/2000/svg"><path d="M511.699 1298.62c90.258 0 160.461 42.98 203.442 111.75v124.65l-194.848-32.96c-90.258-15.76-127.508-54.44-127.508-108.88 0-55.88 44.41-94.56 118.914-94.56zm-267.918 88.83c0 108.88 84.532 187.68 237.832 213.47l233.528 38.68v37.25c0 88.83-65.903 143.27-159.032 143.27-78.796 0-140.398-35.82-181.949-94.56l-110.32 84.53c64.473 85.96 167.625 140.4 296.57 140.4 194.848 0 302.301-114.61 302.301-273.64v-477.09h-147.57v81.67c-51.578-63.04-141.836-103.16-230.661-103.16-143.273 0-240.699 81.67-240.699 209.18M942.941 1921.84h147.569v-70.2c54.44 57.31 126.08 98.85 229.23 98.85 159.03 0 280.81-107.44 280.81-316.62v-434.11h-149v428.38c0 114.61-63.04 183.38-166.2 183.38-98.85 0-157.59-61.6-194.84-124.64v-487.12H942.941v722.08M841.059 488.09l118.871-90.981c-67.508-90.988-176.106-149.687-312.578-149.687-248.008 0-403.571 183.437-403.571 399.156 0 215.731 155.563 399.162 403.571 399.162 135.007 0 245.07-58.689 312.578-149.681L841.059 805.07c-41.09 57.239-108.594 98.328-193.707 98.328-142.352 0-245.079-111.527-245.079-256.82 0-146.75 102.727-256.808 246.543-256.808 83.649 0 151.153 41.089 192.243 98.32M1193.17 864.922h-160.31V998.16h160.31v180.52h149V998.16h258.38V864.922h-258.38V526.801c0-97.422 51.58-128.949 131.81-128.949 48.71 0 100.79 5.738 126.57 15.769V283.238c-34.38-14.328-93.62-21.488-149.49-21.488-169.06 0-257.89 88.832-257.89 265.051v338.121M1700.77 2049.67v-99.17h143.57v139.13c0 50.21-44.65 101.41-94.75 104.65h-149.04v-138.46l100.22-6.15" style="fill:#2b3e88;fill-opacity:1;fill-rule:nonzero;stroke:none" transform="matrix(.13333 0 0 -.13333 0 292.573)"/><path d="M1700.77 144.609v99.18h143.57V104.66c0-50.219-44.65-101.41-94.75-104.66h-149.04v138.469l100.22 6.14" style="fill:#fbc707;fill-opacity:1;fill-rule:nonzero;stroke:none" transform="matrix(.13333 0 0 -.13333 0 292.573)"/><path d="M143.563 144.609v99.18H0V104.66C0 54.441 44.645 3.25 94.742 0h149.039v138.469l-100.218 6.14" style="fill:#5c6abc;fill-opacity:1;fill-rule:nonzero;stroke:none" transform="matrix(.13333 0 0 -.13333 0 292.573)"/><path d="M143.563 2049.67v-99.17H0v139.13c0 50.21 44.645 101.41 94.742 104.65h149.039v-138.46l-100.218-6.15" style="fill:#298472;fill-opacity:1;fill-rule:nonzero;stroke:none" transform="matrix(.13333 0 0 -.13333 0 292.573)"/><path d="M2397.38 1498.23c22.63 0 41.19 10.8 52.33 29.03v33.41l-50.3-8.44c-23.29-4.05-33.75-14.51-33.75-29.03 0-14.51 11.82-24.97 31.72-24.97zm-60.76 23.96c0 25.66 19.59 43.88 55.7 49.96l57.39 9.45v11.81c0 23.63-16.88 37.14-41.19 37.14-19.57 0-35.44-9.12-45.9-23.64l-21.6 16.55c14.85 20.25 38.81 32.74 68.52 32.74 43.21 0 68.86-25.32 68.86-62.79v-114.09h-28.69v21.61c-12.83-16.54-35.11-26.33-57.04-26.33-33.42 0-56.05 18.56-56.05 47.59M2692.73 1596.12c0 20.92-14.18 37.8-38.82 37.8-25.32 0-39.15-16.88-39.15-37.8 0-20.93 13.83-37.47 39.15-37.47 24.64 0 38.82 16.87 38.82 37.47zm-32.4-177.22c35.77 0 58.39 14.18 58.39 36.46 0 16.2-9.12 29.03-39.5 29.03h-55.02c-11.81-8.78-18.9-18.91-18.9-32.41 0-20.59 21.26-33.08 55.03-33.08zm-57.73 72.58c-7.76 6.07-11.81 15.18-11.81 24.29 0 13.51 7.08 24.65 20.25 33.09-14.86 11.14-23.63 28.35-23.63 47.26 0 32.74 25.65 60.42 66.16 60.42 12.49 0 23.63-2.7 32.74-7.09h63.13v-24.98h-36.8c4.73-8.44 7.09-18.23 7.09-28.35 0-32.41-25.32-60.09-66.16-60.09-8.43 0-16.54 1.35-23.62 3.38-7.09-5.07-11.14-11.14-11.14-17.55 0-7.09 3.7-12.15 14.17-12.15h48.61c44.89 0 65.82-21.95 65.82-52.33 0-35.78-35.78-62.45-86.75-62.45-50.3 0-83.37 19.59-83.37 53.67 0 17.22 8.43 31.06 25.31 42.88M2854.75 1585.99h101.93c-1.01 24.97-18.23 45.9-48.26 45.9-28.02 0-47.6-16.53-53.67-45.9zm61.43-113.42c-57.38 0-92.82 42.2-92.82 91.82 0 51.64 33.07 91.81 85.73 91.81 46.25 0 76.29-32.41 76.29-74.26 0-6.75-1.01-13.17-2.02-17.89h-130.64c1.02-40.85 27-65.48 63.46-65.48 21.94 0 40.5 10.12 51.64 25.31l21.27-16.54c-15.86-21.27-41.18-34.77-72.91-34.77M3094.72 1649.45h28.7v-19.25c13.83 15.19 31.39 26 56.71 26 38.14 0 66.49-25.65 66.49-73.92v-102.96h-28.69v101.94c0 30.38-17.21 47.94-43.54 47.94-24.64 0-40.17-14.18-50.97-32.07v-117.81h-28.7v170.13M3492.01 1524.55l22.61-17.21c-15.87-21.27-40.51-34.77-71.56-34.77-56.37 0-92.49 42.2-92.49 91.82 0 49.61 36.12 91.81 92.49 91.81 30.72 0 55.69-13.84 71.56-34.77l-22.61-17.21c-10.47 14.85-27.69 24.98-48.95 24.98-36.46 0-62.44-28.7-62.44-64.81 0-36.46 25.98-64.82 62.78-64.82 20.92 0 38.14 10.14 48.61 24.98M3624.99 1585.99h101.93c-1.01 24.97-18.23 45.9-48.26 45.9-28.02 0-47.6-16.53-53.67-45.9zm61.43-113.42c-57.38 0-92.82 42.2-92.82 91.82 0 51.64 33.07 91.81 85.73 91.81 46.25 0 76.29-32.41 76.29-74.26 0-6.75-1.01-13.17-2.02-17.89h-130.64c1.02-40.85 27-65.48 63.46-65.48 21.94 0 40.5 10.12 51.64 25.31l21.27-16.54c-15.86-21.27-41.18-34.77-72.91-34.77M4016.86 1649.45h28.69v-19.25c13.84 15.19 31.39 26 56.7 26 38.14 0 66.5-25.65 66.5-73.92v-102.96h-28.69v101.94c0 30.38-17.22 47.94-43.55 47.94-24.64 0-40.16-14.18-50.96-32.07v-117.81h-28.69v170.13M4338.18 1498.23c22.62 0 41.18 10.8 52.32 29.03v33.41l-50.29-8.44c-23.29-4.05-33.76-14.51-33.76-29.03 0-14.51 11.82-24.97 31.73-24.97zm-60.76 23.96c0 25.66 19.58 43.88 55.7 49.96l57.38 9.45v11.81c0 23.63-16.87 37.14-41.18 37.14-19.58 0-35.44-9.12-45.91-23.64l-21.6 16.55c14.86 20.25 38.81 32.74 68.53 32.74 43.2 0 68.86-25.32 68.86-62.79v-114.09h-28.7v21.61c-12.82-16.54-35.1-26.33-57.04-26.33-33.42 0-56.04 18.56-56.04 47.59M4547.44 1623.46h-32.06v25.99h32.06v42.53h29.04v-42.53h59.07v-25.99h-59.07v-87.09c0-26.66 13.5-34.09 34.09-34.09 11.14 0 18.9 1.35 25.32 4.05v-25.66c-8.1-3.37-17.22-4.72-29.37-4.72-37.81 0-59.08 18.9-59.08 60.42v87.09M4740.17 1649.45h28.7v-170.13h-28.7zm-5.73 64.47c0 10.8 9.11 19.92 20.25 19.92s19.91-9.12 19.91-19.92c0-11.14-8.77-20.25-19.91-20.25s-20.25 9.11-20.25 20.25M5029.78 1564.39c0 35.43-25.98 64.81-61.42 64.81-36.46 0-62.45-29.38-62.45-64.81 0-35.44 25.99-64.82 62.45-64.82 35.44 0 61.42 29.71 61.42 64.82zm30.38 0c0-49.62-37.46-91.82-92.15-91.82-55.02 0-92.15 42.2-92.15 91.82 0 49.61 37.13 91.81 92.15 91.81 54.69 0 92.15-42.2 92.15-91.81M5167.16 1649.45h28.69v-19.25c13.84 15.19 31.39 26 56.7 26 38.15 0 66.51-25.65 66.51-73.92v-102.96h-28.7v101.94c0 30.38-17.22 47.94-43.54 47.94-24.65 0-40.17-14.18-50.97-32.07v-117.81h-28.69v170.13M5488.48 1498.23c22.62 0 41.19 10.8 52.33 29.03v33.41l-50.3-8.44c-23.29-4.05-33.75-14.51-33.75-29.03 0-14.51 11.81-24.97 31.72-24.97zm-60.76 23.96c0 25.66 19.58 43.88 55.7 49.96l57.39 9.45v11.81c0 23.63-16.88 37.14-41.19 37.14-19.57 0-35.44-9.12-45.9-23.64l-21.61 16.55c14.86 20.25 38.82 32.74 68.53 32.74 43.21 0 68.86-25.32 68.86-62.79v-114.09h-28.69v21.61c-12.83-16.54-35.11-26.33-57.05-26.33-33.42 0-56.04 18.56-56.04 47.59M5687.96 1732.48h28.69v-253.16h-28.69v253.16M5855.04 1585.99h101.94c-1.02 24.97-18.23 45.9-48.27 45.9-28.02 0-47.59-16.53-53.67-45.9zm61.43-113.42c-57.38 0-92.82 42.2-92.82 91.82 0 51.64 33.07 91.81 85.73 91.81 46.25 0 76.3-32.41 76.3-74.26 0-6.75-1.02-13.17-2.03-17.89h-130.63c1.01-40.85 27-65.48 63.45-65.48 21.95 0 40.51 10.12 51.65 25.31l21.26-16.54c-15.86-21.27-41.17-34.77-72.91-34.77M2422.7 1077.66c23.64 0 44.56 11.48 57.05 31.39v66.84c-13.16 20.25-33.76 31.39-57.05 31.39-36.11 0-60.41-28.69-60.41-64.81 0-36.12 24.3-64.81 60.41-64.81zm-3.37 156.63c25.31 0 45.23-9.79 60.42-27.01v103.29h28.69v-253.16h-28.69v20.25c-15.19-17.22-35.11-27.01-60.42-27.01-53.34 0-87.42 42.2-87.42 91.82 0 49.62 34.08 91.82 87.42 91.82M2646.48 1164.07h101.95c-1.02 24.98-18.23 45.91-48.28 45.91-28.02 0-47.59-16.54-53.67-45.91zm61.44-113.42c-57.39 0-92.83 42.2-92.83 91.82 0 51.65 33.08 91.82 85.74 91.82 46.24 0 76.29-32.41 76.29-74.27 0-6.75-1.02-13.16-2.03-17.88h-130.63c1.01-40.85 27.01-65.49 63.46-65.49 21.94 0 40.51 10.13 51.65 25.32l21.26-16.54c-15.87-21.27-41.18-34.78-72.91-34.78M3038.35 1310.57h28.69v-253.16h-28.69v253.16M3239.52 1076.31c22.62 0 41.18 10.8 52.32 29.03v33.42l-50.3-8.44c-23.29-4.05-33.75-14.51-33.75-29.03 0-14.51 11.82-24.98 31.73-24.98zm-60.76 23.96c0 25.66 19.58 43.89 55.7 49.97l57.38 9.45v11.81c0 23.63-16.88 37.13-41.18 37.13-19.58 0-35.44-9.12-45.91-23.63l-21.6 16.54c14.85 20.25 38.82 32.75 68.52 32.75 43.21 0 68.86-25.32 68.86-62.79v-114.09h-28.69v21.6c-12.83-16.54-35.11-26.33-57.04-26.33-33.42 0-56.04 18.57-56.04 47.59M3717.8 1102.64l22.62-17.21c-15.87-21.27-40.51-34.78-71.56-34.78-56.38 0-92.49 42.2-92.49 91.82 0 49.62 36.11 91.82 92.49 91.82 30.71 0 55.69-13.84 71.56-34.78l-22.62-17.21c-10.46 14.86-27.68 24.98-48.94 24.98-36.46 0-62.45-28.69-62.45-64.81 0-36.45 25.99-64.81 62.78-64.81 20.93 0 38.15 10.13 48.61 24.98M3973.32 1142.47c0 35.44-26 64.81-61.44 64.81-36.45 0-62.45-29.37-62.45-64.81s26-64.81 62.45-64.81c35.44 0 61.44 29.7 61.44 64.81zm30.38 0c0-49.62-37.47-91.82-92.15-91.82-55.03 0-92.15 42.2-92.15 91.82 0 49.62 37.12 91.82 92.15 91.82 54.68 0 92.15-42.2 92.15-91.82M4110.68 1310.57h28.7v-102.28c13.83 15.19 31.38 26 56.7 26 38.15 0 66.5-25.66 66.5-73.93v-102.95h-28.69v101.94c0 30.38-16.88 47.93-43.54 47.93-24.98 0-40.17-14.51-50.97-32.07v-117.8h-28.7v253.16M4439.44 1254.54l35.1 56.03h32.41l-39.5-56.03zm-41.52-90.47h101.94c-1.02 24.98-18.23 45.91-48.27 45.91-28.02 0-47.59-16.54-53.67-45.91zm61.43-113.42c-57.38 0-92.82 42.2-92.82 91.82 0 51.65 33.07 91.82 85.73 91.82 46.25 0 76.3-32.41 76.3-74.27 0-6.75-1.02-13.16-2.03-17.88H4395.9c1.01-40.85 27-65.49 63.45-65.49 21.95 0 40.51 10.13 51.65 25.32l21.26-16.54c-15.86-21.27-41.17-34.78-72.91-34.78M4638.58 1097.92c11.82-14.86 25.99-23.3 43.21-23.3 18.89 0 29.7 11.48 29.7 26.33 0 38.15-85.06 24.64-85.06 84.73 0 26.66 22.62 48.61 55.36 48.61 24.3 0 45.22-11.48 57.04-28.02l-19.92-16.88c-9.11 12.83-21.93 20.93-36.79 20.93-18.23 0-28.01-10.81-28.01-23.97 0-38.14 85.4-25.99 85.4-84.05-.35-31.73-25.66-51.65-57.39-51.65-27 0-48.26 10.81-63.8 30.05l20.26 17.22M4846.84 1227.54h28.69v-170.13h-28.69zm-5.74 64.47c0 10.8 9.11 19.91 20.25 19.91s19.92-9.11 19.92-19.91c0-11.14-8.78-20.25-19.92-20.25-11.14 0-20.25 9.11-20.25 20.25M5136.45 1142.47c0 35.44-26 64.81-61.44 64.81-36.45 0-62.45-29.37-62.45-64.81s26-64.81 62.45-64.81c35.44 0 61.44 29.7 61.44 64.81zm30.38 0c0-49.62-37.47-91.82-92.15-91.82-55.03 0-92.15 42.2-92.15 91.82 0 49.62 37.12 91.82 92.15 91.82 54.68 0 92.15-42.2 92.15-91.82M5273.81 1227.54h28.69v-19.25c13.84 15.19 31.39 26 56.7 26 38.15 0 66.51-25.66 66.51-73.93v-102.95h-28.69v101.94c0 30.38-17.22 47.93-43.55 47.93-24.65 0-40.17-14.18-50.97-32.07v-117.8h-28.69v170.13M2422.7 655.75c23.64 0 44.56 11.469 57.05 31.391v66.839c-13.16 20.25-33.76 31.391-57.05 31.391-36.11 0-60.41-28.699-60.41-64.812 0-36.118 24.3-64.809 60.41-64.809zm-3.37 156.621c25.31 0 45.23-9.789 60.42-27V888.66h28.69V635.488h-28.69v20.262c-15.19-17.219-35.11-27.012-60.42-27.012-53.34 0-87.42 42.203-87.42 91.821 0 49.621 34.08 91.812 87.42 91.812M2646.48 742.16h101.95c-1.02 24.981-18.23 45.899-48.28 45.899-28.02 0-47.59-16.528-53.67-45.899zm61.44-113.422c-57.39 0-92.83 42.203-92.83 91.821 0 51.64 33.08 91.812 85.74 91.812 46.24 0 76.29-32.41 76.29-74.262 0-6.757-1.02-13.168-2.03-17.89h-130.63c1.01-40.848 27.01-65.481 63.46-65.481 21.94 0 40.51 10.121 51.65 25.313l21.26-16.551c-15.87-21.262-41.18-34.762-72.91-34.762M2887.14 676c11.81-14.859 25.99-23.289 43.2-23.289 18.91 0 29.71 11.469 29.71 26.328 0 38.133-85.06 24.641-85.06 84.723 0 26.668 22.61 48.609 55.35 48.609 24.31 0 45.24-11.48 57.06-28.012l-19.92-16.89c-9.12 12.832-21.95 20.929-36.79 20.929-18.23 0-28.02-10.796-28.02-23.957 0-38.152 85.39-26 85.39-84.05-.33-31.731-25.65-51.653-57.37-51.653-27.01 0-48.28 10.813-63.8 30.043L2887.14 676M3257.07 779.629H3225v25.992h32.07v42.527h29.02v-42.527h59.08v-25.992h-59.08v-87.09c0-26.668 13.51-34.098 34.1-34.098 11.14 0 18.9 1.36 25.31 4.047V636.84c-8.1-3.371-17.21-4.731-29.36-4.731-37.8 0-59.07 18.911-59.07 60.43v87.09M3463.3 742.16h101.94c-1.01 24.981-18.23 45.899-48.27 45.899-28.01 0-47.6-16.528-53.67-45.899zm61.44-113.422c-57.39 0-92.83 42.203-92.83 91.821 0 51.64 33.08 91.812 85.74 91.812 46.25 0 76.28-32.41 76.28-74.262 0-6.757-1.01-13.168-2.02-17.89h-130.64c1.02-40.848 27.01-65.481 63.47-65.481 21.94 0 40.5 10.121 51.64 25.313l21.27-16.551c-15.87-21.262-41.19-34.762-72.91-34.762M3703.28 805.621h28.69v-21.262c12.5 14.84 28.02 24.629 49.62 24.629 5.41 0 10.47-.679 14.52-2.019v-28.02c-5.06 1.352-10.12 2.02-16.88 2.02-22.28 0-36.79-11.469-47.26-28.688V635.488h-28.69v170.133M3898.03 805.621h28.7v-21.262c12.49 14.84 28.01 24.629 49.62 24.629 5.4 0 10.46-.679 14.51-2.019v-28.02c-5.06 1.352-10.12 2.02-16.88 2.02-22.28 0-36.79-11.469-47.25-28.688V635.488h-28.7v170.133M4092.79 805.621h28.69V635.488h-28.69zm-5.74 64.469c0 10.801 9.11 19.91 20.25 19.91s19.91-9.109 19.91-19.91c0-11.141-8.77-20.25-19.91-20.25s-20.25 9.109-20.25 20.25M4252.77 779.629h-32.06v25.992h32.06v42.527h29.04v-42.527h59.07v-25.992h-59.07v-87.09c0-26.668 13.5-34.098 34.09-34.098 11.14 0 18.9 1.36 25.32 4.047V636.84c-8.1-3.371-17.22-4.731-29.37-4.731-37.81 0-59.08 18.911-59.08 60.43v87.09M4581.54 720.559c0 35.441-25.99 64.812-61.43 64.812-36.46 0-62.44-29.371-62.44-64.812 0-35.438 25.98-64.809 62.44-64.809 35.44 0 61.43 29.699 61.43 64.809zm30.38 0c0-49.618-37.46-91.821-92.15-91.821-55.02 0-92.15 42.203-92.15 91.821 0 49.621 37.13 91.812 92.15 91.812 54.69 0 92.15-42.191 92.15-91.812M4718.9 805.621h28.7V635.488h-28.7zm-5.73 64.469c0 10.801 9.11 19.91 20.25 19.91s19.91-9.109 19.91-19.91c0-11.141-8.77-20.25-19.91-20.25s-20.25 9.109-20.25 20.25M4869.11 805.621h28.69v-21.262c12.49 14.84 28.02 24.629 49.62 24.629 5.4 0 10.46-.679 14.51-2.019v-28.02c-5.06 1.352-10.12 2.02-16.87 2.02-22.28 0-36.8-11.469-47.26-28.688V635.488h-28.69v170.133M5070.62 742.16h101.93c-1.01 24.981-18.23 45.899-48.26 45.899-28.02 0-47.6-16.528-53.67-45.899zm61.43-113.422c-57.38 0-92.82 42.203-92.82 91.821 0 51.64 33.07 91.812 85.73 91.812 46.25 0 76.29-32.41 76.29-74.262 0-6.757-1.02-13.168-2.02-17.89h-130.64c1.02-40.848 27-65.481 63.46-65.481 21.94 0 40.5 10.121 51.64 25.313l21.27-16.551c-15.86-21.262-41.18-34.762-72.91-34.762M5311.27 676c11.82-14.859 26-23.289 43.21-23.289 18.9 0 29.7 11.469 29.7 26.328 0 38.133-85.06 24.641-85.06 84.723 0 26.668 22.61 48.609 55.36 48.609 24.31 0 45.23-11.48 57.05-28.012l-19.92-16.89c-9.12 12.832-21.94 20.929-36.79 20.929-18.23 0-28.02-10.796-28.02-23.957 0-38.152 85.4-26 85.4-84.05-.34-31.731-25.66-51.653-57.38-51.653-27.01 0-48.28 10.813-63.8 30.043L5311.27 676" style="fill:#2b3e88;fill-opacity:1;fill-rule:nonzero;stroke:none" transform="matrix(.13333 0 0 -.13333 0 292.573)"/></svg>