<svg version="1.1" id="Calque_1" xmlns="http://www.w3.org/2000/svg" x="0" y="0" style="enable-background:new 0 0 1024 768" xml:space="preserve" viewBox="207.28 175.77 221.23 59.17"><style>.st2{enable-background:new}.st3{fill:#4550e5}</style><g id="Page-1_00000178178204201232521590000016678567363722804100_"><g id="ACCUEIL-Copy_00000183208416609485701270000017226002593960029600_" transform="translate(-262 -46)"><g id="Group-8_00000065756536974909478120000014126431500791226799_" transform="translate(261 45)"><g id="Group-2_00000181084994089931998880000012414916376362382224_"><g id="Group-7_00000103953711595590367450000010492837180900294295_" transform="translate(144.113)"><g id="Group-3_00000134234569167736475510000006272395679607445923_" transform="translate(10.238 .733)"><path id="Fill-1_00000147906197803728393290000015781043914082598058_" d="M264.3 235.2c-2-5.6-4.4-8.6-20.1-6.4-14.4 2-25.6 1.5-33.8-10-6.7-9.3-7.4-33.3 14.3-39.8 21.8-6.5 47.5-2.9 50.1 17.4 2.6 21.3-10.5 38.8-10.5 38.8" style="fill-rule:evenodd;clip-rule:evenodd;fill:#abb2ec"/></g><g id="Group-6_00000015345578640797530430000016818041942523575183_" transform="translate(.787 5.458)"><path id="Fill-4_00000124147081490966448810000016240598569264249758_" d="M223.9 229.1c.1-4.8 1.1-7.7 13.4-10 11.2-2.1 19.5-5.3 22.7-16.2 2.6-8.8-2.9-27.4-20.7-26.9-17.9.5-36.1 9.8-32.9 26 3.3 17 17.5 27.1 17.5 27.1" style="fill-rule:evenodd;clip-rule:evenodd;fill:#4550e5"/></g></g><g class="st2"><path class="st3" d="M216 191.2c1.5 0 2.7.4 3.4 1.1.7.7 1.2 1.7 1.5 2.9l-.5-.3.2-.5c.2-.4.6-.9 1.1-1.4s1.1-.9 1.8-1.3 1.5-.5 2.3-.5c1.4 0 2.5.3 3.2.9.7.6 1.2 1.4 1.5 2.4s.4 2.1.4 3.3v7.4c0 .5-.2.9-.5 1.3-.3.3-.7.5-1.2.5s-.9-.2-1.2-.5c-.3-.3-.5-.8-.5-1.3v-7.4c0-.6-.1-1.2-.2-1.7-.2-.5-.4-.9-.8-1.2-.4-.3-1-.5-1.7-.5s-1.4.2-1.9.5-.9.7-1.2 1.2-.4 1.1-.4 1.7v7.4c0 .5-.2.9-.5 1.3-.3.3-.7.5-1.2.5s-.9-.2-1.2-.5c-.3-.3-.5-.8-.5-1.3v-7.4c0-.6-.1-1.2-.2-1.7-.2-.5-.4-.9-.8-1.2-.4-.3-1-.5-1.7-.5s-1.4.2-1.9.5-.9.7-1.2 1.2c-.3.5-.4 1.1-.4 1.7v7.4c0 .5-.2.9-.5 1.3-.3.3-.7.5-1.2.5s-.9-.2-1.2-.5c-.3-.3-.5-.8-.5-1.3v-12c0-.5.2-.9.5-1.3s.7-.5 1.2-.5.9.2 1.2.5c.3.3.5.8.5 1.3v1.2l-.4-.1c.2-.3.4-.7.7-1.1.3-.4.7-.7 1.1-1.1.4-.3.9-.6 1.5-.8.2 0 .8-.1 1.4-.1zm33.7 8.1c0 1.6-.4 3-1.1 4.2-.7 1.2-1.7 2.2-2.8 2.8-1.2.7-2.5 1-4 1s-2.8-.3-4-1c-1.2-.7-2.1-1.6-2.8-2.8-.7-1.2-1.1-2.6-1.1-4.2s.4-3 1.1-4.2c.7-1.2 1.7-2.2 2.8-2.8 1.2-.7 2.5-1 4-1s2.8.3 4 1c1.2.7 2.1 1.6 2.8 2.8.8 1.2 1.1 2.6 1.1 4.2zm-3.5 0c0-1-.2-1.8-.6-2.6-.4-.7-.9-1.3-1.6-1.7-.7-.4-1.4-.6-2.2-.6s-1.6.2-2.2.6c-.7.4-1.2 1-1.6 1.7-.4.7-.6 1.6-.6 2.6s.2 1.8.6 2.5c.4.7.9 1.3 1.6 1.7.7.4 1.4.6 2.2.6s1.6-.2 2.2-.6c.7-.4 1.2-1 1.6-1.7.4-.7.6-1.5.6-2.5zm14.9-8.1c1.4 0 2.5.3 3.3.9.7.6 1.3 1.4 1.5 2.4s.4 2.1.4 3.3v7.4c0 .5-.2.9-.5 1.3-.3.3-.7.5-1.2.5s-.9-.2-1.2-.5c-.3-.3-.5-.8-.5-1.3v-7.4c0-.6-.1-1.2-.2-1.7-.2-.5-.5-.9-.9-1.2s-1-.5-1.8-.5-1.4.2-2 .5c-.5.3-.9.7-1.2 1.2-.3.5-.4 1.1-.4 1.7v7.4c0 .5-.2.9-.5 1.3-.3.3-.7.5-1.2.5s-.9-.2-1.2-.5c-.3-.3-.5-.8-.5-1.3v-12c0-.5.2-.9.5-1.3s.7-.5 1.2-.5.9.2 1.2.5c.3.3.5.8.5 1.3v1.2l-.4-.1c.2-.3.4-.7.8-1.1.3-.4.7-.7 1.2-1.1.4-.3.9-.6 1.5-.8s.9-.1 1.6-.1zm16.2 13.5c-.2-.3-.3-.6-.3-1s.3-.8.8-1.1c.3-.2.6-.3 1-.2s.7.2 1 .5c.6.6 1.2 1 1.8 1.3.6.3 1.4.5 2.3.5.3 0 .6-.1 1-.1.3-.1.7-.2.9-.5.3-.2.4-.6.4-1.1 0-.4-.1-.8-.4-1-.3-.3-.7-.5-1.1-.6-.5-.2-1-.3-1.6-.5l-1.8-.6c-.6-.2-1.2-.5-1.7-.8-.5-.3-.9-.8-1.3-1.4-.3-.6-.5-1.3-.5-2.1 0-1 .3-1.8.8-2.5s1.2-1.2 2.1-1.6c.9-.4 1.8-.6 2.7-.6.6 0 1.2.1 1.9.2s1.3.4 1.9.7c.6.3 1.1.7 1.5 1.3.2.3.3.6.4 1 0 .4-.1.8-.6 1.1-.3.2-.6.3-1 .3s-.7-.2-1-.4c-.3-.4-.8-.8-1.3-1-.6-.3-1.2-.4-1.9-.4-.3 0-.6 0-.9.1-.3.1-.6.2-.9.4-.3.2-.4.6-.4 1.1 0 .4.1.8.4 1.1s.7.5 1.2.6c.5.2 1 .3 1.6.5.6.2 1.2.3 1.8.6.6.2 1.2.5 1.7.8.5.3.9.8 1.2 1.4.3.6.5 1.3.5 2.1 0 1-.3 1.8-.9 2.5-.6.7-1.3 1.2-2.2 1.6-.9.4-1.8.5-2.7.5-1.1 0-2.3-.2-3.4-.6-1.3-.4-2.2-1.1-3-2.1zm26.5-13.2c.5 0 .9.2 1.2.5.3.3.5.8.5 1.3v7.4c0 2.1-.6 3.7-1.7 4.9-1.1 1.2-2.8 1.8-4.9 1.8s-3.8-.6-4.9-1.8c-1.1-1.2-1.7-2.8-1.7-4.9v-7.4c0-.5.2-.9.5-1.3s.7-.5 1.2-.5.9.2 1.2.5c.3.3.5.8.5 1.3v7.4c0 1.2.3 2.1.8 2.6.5.6 1.3.9 2.4.9 1.1 0 1.9-.3 2.4-.9.5-.6.8-1.4.8-2.6v-7.4c0-.5.2-.9.5-1.3s.7-.5 1.2-.5zm7-1.9c-.7 0-1.1-.1-1.4-.3-.3-.2-.4-.6-.4-1.1v-.6c0-.6.1-.9.5-1.1.3-.2.8-.3 1.4-.3.7 0 1.2.1 1.4.3.3.2.4.6.4 1.1v.6c0 .6-.1.9-.4 1.1-.4.2-.8.3-1.5.3zm1.8 15.7c0 .5-.2.9-.5 1.3-.3.3-.7.5-1.2.5s-.9-.2-1.2-.5c-.3-.3-.5-.8-.5-1.3v-12c0-.5.2-.9.5-1.3.3-.3.7-.5 1.2-.5s.9.2 1.2.5c.3.3.5.8.5 1.3v12zm4.3-13.8c.4 0 .7.1 1 .3.3.2.5.5.7.8l4.3 9.8-.6.3 4.4-10c.3-.8.8-1.1 1.5-1.1.5 0 .9.2 1.2.5.3.3.5.7.5 1.1 0 .1 0 .3-.1.4s-.1.3-.2.4l-5.4 12c-.3.7-.8 1.1-1.5 1.1-.4.1-.7 0-1.1-.2-.3-.2-.6-.5-.8-.9l-5.4-12c0-.1-.1-.2-.1-.4s-.1-.3-.1-.6.2-.7.5-1 .6-.5 1.2-.5zm17.1-1.9c-.7 0-1.1-.1-1.4-.3-.3-.2-.4-.6-.4-1.1v-.6c0-.6.1-.9.5-1.1.3-.2.8-.3 1.4-.3.7 0 1.2.1 1.4.3.3.2.4.6.4 1.1v.6c0 .6-.1.9-.4 1.1-.4.2-.8.3-1.5.3zm1.8 15.7c0 .5-.2.9-.5 1.3-.3.3-.7.5-1.2.5s-.9-.2-1.2-.5c-.3-.3-.5-.8-.5-1.3v-12c0-.5.2-.9.5-1.3.3-.3.7-.5 1.2-.5s.9.2 1.2.5c.3.3.5.8.5 1.3v12z"/></g><g class="st2"><path class="st3" d="M258.9 228.3c-.2-.3-.3-.6-.3-1s.3-.8.8-1.1c.3-.2.6-.3 1-.2s.7.2 1 .5c.6.6 1.2 1 1.8 1.3.6.3 1.4.5 2.3.5.3 0 .6-.1 1-.1.3-.1.7-.2.9-.5.3-.2.4-.6.4-1.1 0-.4-.1-.8-.4-1-.3-.3-.7-.5-1.1-.6-.5-.2-1-.3-1.6-.5l-1.8-.6c-.6-.2-1.2-.5-1.7-.8-.5-.3-.9-.8-1.3-1.4-.3-.6-.5-1.3-.5-2.1 0-1 .3-1.8.8-2.5s1.2-1.2 2.1-1.6c.9-.4 1.8-.6 2.7-.6.6 0 1.2.1 1.9.2s1.3.4 1.9.7c.6.3 1.1.7 1.5 1.3.2.3.3.6.4 1 0 .4-.1.8-.6 1.1-.3.2-.6.3-1 .3s-.7-.2-1-.4c-.3-.4-.8-.8-1.3-1-.6-.3-1.2-.4-1.9-.4-.3 0-.6 0-.9.1-.3.1-.6.2-.9.4-.3.2-.4.6-.4 1.1 0 .4.1.8.4 1.1s.7.5 1.2.6c.5.2 1 .3 1.6.5.6.2 1.2.3 1.8.6.6.2 1.2.5 1.7.8.5.3.9.8 1.2 1.4.3.6.5 1.3.5 2.1 0 1-.3 1.8-.9 2.5-.6.7-1.3 1.2-2.2 1.6-.9.4-1.8.5-2.7.5-1.1 0-2.3-.2-3.4-.6-1.3-.4-2.2-1.1-3-2.1zm30-5.4c0 1.6-.4 3-1.1 4.2-.7 1.2-1.7 2.2-2.8 2.8-1.2.7-2.5 1-4 1s-2.8-.3-4-1c-1.2-.7-2.1-1.6-2.8-2.8-.7-1.2-1.1-2.6-1.1-4.2s.4-3 1.1-4.2c.7-1.2 1.7-2.2 2.8-2.8 1.2-.7 2.5-1 4-1s2.8.3 4 1c1.2.7 2.1 1.6 2.8 2.8.7 1.2 1.1 2.6 1.1 4.2zm-3.5 0c0-1-.2-1.8-.6-2.6-.4-.7-.9-1.3-1.6-1.7-.7-.4-1.4-.6-2.2-.6s-1.6.2-2.2.6c-.7.4-1.2 1-1.6 1.7-.4.7-.6 1.6-.6 2.6s.2 1.8.6 2.5c.4.7.9 1.3 1.6 1.7.7.4 1.4.6 2.2.6s1.6-.2 2.2-.6c.7-.4 1.2-1 1.6-1.7.4-.6.6-1.5.6-2.5zm13.5-8c1.1 0 2.1.1 2.9.3.8.2 1.5.6 1.9 1 .5.4.7.9.7 1.5 0 .4-.1.8-.3 1.1-.2.3-.6.5-1 .5-.3 0-.6 0-.8-.1-.2-.1-.4-.2-.5-.3-.2-.1-.3-.3-.6-.4-.2-.1-.5-.2-.9-.3-.4-.1-.7-.1-.9-.1-1 0-1.8.2-2.5.6-.7.4-1.2 1-1.6 1.7-.4.7-.6 1.6-.6 2.5 0 .9.2 1.8.6 2.5s.9 1.3 1.6 1.7 1.4.6 2.3.6c.5 0 .9 0 1.2-.1.3-.1.6-.1.9-.3.3-.2.5-.3.7-.5.2-.2.5-.3 1-.3s.9.2 1.2.5c.3.3.4.7.4 1.2s-.3.9-.8 1.3-1.3.7-2.1 1c-.9.2-1.8.4-2.9.4-1.5 0-2.9-.4-4-1.1-1.1-.7-2-1.7-2.6-2.9s-.9-2.6-.9-4.1c0-1.6.3-3 1-4.2.6-1.2 1.6-2.2 2.7-2.8 1.1-.6 2.4-.9 3.9-.9zm9.7-1.6c-.7 0-1.1-.1-1.4-.3-.3-.2-.4-.6-.4-1.1v-.6c0-.6.1-.9.5-1.1.3-.2.8-.3 1.4-.3.7 0 1.2.1 1.4.3.3.2.4.6.4 1.1v.6c0 .6-.1.9-.4 1.1-.4.2-.9.3-1.5.3zm1.7 15.6c0 .5-.2.9-.5 1.3-.3.3-.7.5-1.2.5s-.9-.2-1.2-.5c-.3-.3-.5-.8-.5-1.3v-12c0-.5.2-.9.5-1.3.3-.3.7-.5 1.2-.5s.9.2 1.2.5c.3.3.5.8.5 1.3v12zm16.4-14c.5 0 .9.2 1.2.5.3.3.5.8.5 1.3V229c0 .5-.2.9-.5 1.3-.3.3-.7.5-1.2.5s-.9-.2-1.2-.5c-.3-.3-.5-.8-.5-1.3v-1.4l.6.3c0 .3-.1.6-.4.9-.3.4-.6.7-1.1 1.1-.5.3-1 .6-1.6.9-.6.2-1.3.4-2 .4-1.3 0-2.5-.3-3.6-1s-1.9-1.6-2.6-2.8c-.6-1.2-.9-2.6-.9-4.2s.3-3 .9-4.2c.6-1.2 1.5-2.2 2.5-2.8 1.1-.7 2.2-1 3.5-1 .8 0 1.6.1 2.3.4.7.3 1.3.6 1.8 1s.9.8 1.2 1.2c.3.4.4.7.4 1l-1 .4v-2.1c0-.5.2-.9.5-1.3.2-.8.6-.9 1.2-.9zm-5.9 12.9c.9 0 1.6-.2 2.2-.6.6-.4 1.1-1 1.5-1.7s.5-1.6.5-2.5c0-.9-.2-1.8-.5-2.5-.4-.7-.9-1.3-1.5-1.7-.6-.4-1.4-.6-2.2-.6-.8 0-1.6.2-2.2.6-.6.4-1.1 1-1.5 1.7-.4.7-.5 1.6-.5 2.5 0 .9.2 1.7.5 2.5.4.7.9 1.3 1.5 1.7.6.4 1.3.6 2.2.6zm15.2 1.1c0 .5-.2.9-.5 1.3-.3.3-.8.5-1.3.5s-.9-.2-1.2-.5c-.3-.3-.5-.8-.5-1.3v-18c0-.5.2-.9.5-1.3.3-.3.8-.5 1.3-.5s.9.2 1.2.5c.3.3.5.8.5 1.3v18z"/></g></g></g></g></g></svg>