<svg xmlns="http://www.w3.org/2000/svg" xmlns:xlink="http://www.w3.org/1999/xlink" width="269" height="179"><defs><path id="a" d="M0 .003h88.423v58.509H0z"/><path id="c" d="M.032.017h55.834v22.64H.032z"/><path id="e" d="M.087.094h51.414v22.273H.087z"/><path id="g" d="M.008.029h2.158v8.366H.008z"/><path id="i" d="M.043.041h3.22V10.24H.042z"/><path id="k" d="M3.882.017A3.846 3.846 0 0 0 .03 3.858v53.257a3.846 3.846 0 0 0 3.852 3.841H61.07a3.846 3.846 0 0 0 3.852-3.84V3.857A3.846 3.846 0 0 0 61.07.018"/><path id="m" d="M3.882.017A3.846 3.846 0 0 0 .03 3.858v53.257a3.846 3.846 0 0 0 3.852 3.841H61.07a3.846 3.846 0 0 0 3.852-3.84V3.857A3.846 3.846 0 0 0 61.07.018"/><path id="o" d="M3.882.017A3.846 3.846 0 0 0 .03 3.858v53.257a3.846 3.846 0 0 0 3.852 3.841H61.07a3.846 3.846 0 0 0 3.852-3.84V3.857A3.846 3.846 0 0 0 61.07.018"/><path id="q" d="M3.882.017A3.846 3.846 0 0 0 .03 3.858v53.257a3.846 3.846 0 0 0 3.852 3.841H61.07a3.846 3.846 0 0 0 3.852-3.84V3.857A3.846 3.846 0 0 0 61.07.018"/><path id="s" d="M3.882.017A3.846 3.846 0 0 0 .03 3.858v53.257a3.846 3.846 0 0 0 3.852 3.841H61.07a3.846 3.846 0 0 0 3.852-3.84V3.857A3.846 3.846 0 0 0 61.07.018"/><path id="u" d="M3.882.017A3.846 3.846 0 0 0 .03 3.858v53.257a3.846 3.846 0 0 0 3.852 3.841H61.07a3.846 3.846 0 0 0 3.852-3.84V3.857A3.846 3.846 0 0 0 61.07.018"/><path id="w" d="M3.882.017A3.846 3.846 0 0 0 .03 3.858v53.257a3.846 3.846 0 0 0 3.852 3.841H61.07a3.846 3.846 0 0 0 3.852-3.84V3.857A3.846 3.846 0 0 0 61.07.018"/><path id="y" d="M.084 0h19.582v19.596H.084z"/><path id="A" d="M0 179h268.943V0H0z"/></defs><g fill="none" fill-rule="evenodd"><path fill="#FFF" d="M185.27 117.393H18.268l-6.888 1.006v2.584c0 3.113 2.513 5.637 5.612 5.637h165.09c3.1 0 5.612-2.524 5.612-5.637v-2.066l-2.422-1.524Z"/><path fill="#FFF" d="M187.693 118.917H11.38V18.093c0-2.655 2.143-4.806 4.785-4.806h166.745c2.642 0 4.784 2.151 4.784 4.806v100.824Z"/><path fill="#000" d="M11.595 118.701h175.883V18.093c0-2.531-2.05-4.59-4.57-4.59H16.165c-2.52 0-4.57 2.059-4.57 4.59V118.7Zm176.098.433H11.38a.216.216 0 0 1-.215-.217V18.093c0-2.77 2.243-5.022 5-5.022h166.745c2.757 0 5 2.252 5 5.022v100.824c0 .12-.097.217-.216.217Z"/><path fill="#000" d="M17.402 34.958a.216.216 0 0 1-.216-.216V19.816c0-.384.312-.697.694-.697h74.646a.216.216 0 0 1 0 .433H17.88a.264.264 0 0 0-.263.264v14.926c0 .12-.097.216-.215.216M133.63 113.085H17.403a.216.216 0 0 1-.216-.217v-12.205a.216.216 0 1 1 .43 0v11.99h116.015a.216.216 0 0 1 0 .432M181.671 74.367a.216.216 0 0 1-.215-.216V19.816a.264.264 0 0 0-.264-.264h-6.187a.216.216 0 0 1 0-.433h6.187c.383 0 .694.313.694.697v54.335c0 .12-.096.216-.215.216M182.082 126.836H16.99c-3.213 0-5.827-2.626-5.827-5.853a.216.216 0 1 1 .43 0c0 2.989 2.421 5.42 5.397 5.42h165.09c2.976 0 5.397-2.431 5.397-5.42a.216.216 0 1 1 .43 0c0 3.227-2.613 5.853-5.826 5.853"/><path fill="#FFF" d="M127.664 143.732H71.408c-2.24 0-4.055-1.823-4.055-4.073v-13.04h64.367v13.04c0 2.25-1.816 4.073-4.056 4.073"/><path fill="#000" d="M67.568 126.836v12.823c0 2.127 1.723 3.857 3.84 3.857h56.256c2.118 0 3.84-1.73 3.84-3.857v-12.823H67.568Zm60.096 17.112H71.408c-2.355 0-4.27-1.924-4.27-4.289v-13.04c0-.119.096-.215.215-.215h64.366c.12 0 .216.096.216.216v13.039c0 2.365-1.916 4.29-4.27 4.29Z"/><path fill="#000" d="M129.322 130.856h-59.57a.216.216 0 0 1 0-.433h59.57a.216.216 0 0 1 0 .433"/><path fill="#FFF" d="M84.822 96.435H3.602a3.394 3.394 0 0 1-3.387-3.401V41.759a3.394 3.394 0 0 1 3.386-3.4h81.22a3.394 3.394 0 0 1 3.387 3.4v51.275a3.394 3.394 0 0 1-3.386 3.401"/><g transform="translate(0 38.14)"><mask id="b" fill="#fff"><use xlink:href="#a"/></mask><path fill="#000" d="M3.601.435A3.182 3.182 0 0 0 .431 3.62v51.274A3.181 3.181 0 0 0 3.6 58.08h81.22a3.181 3.181 0 0 0 3.171-3.185V3.62a3.181 3.181 0 0 0-3.17-3.185H3.602Zm81.22 58.077H3.602C1.616 58.512 0 56.889 0 54.894V3.62C0 1.625 1.616.003 3.601.003h81.22c1.986 0 3.602 1.622 3.602 3.617v51.274c0 1.995-1.616 3.618-3.601 3.618Z" mask="url(#b)"/></g><g transform="translate(17.152 71.032)"><mask id="d" fill="#fff"><use xlink:href="#c"/></mask><path fill="#E2EAFF" d="M46.19.017c-6.279 10.79-10.4 14.65-10.4 14.65s-6.951-3.09-12.7-3.767C17.34 10.223.032 17.01.032 17.01s7.073 24.156 29.23 16.741c22.157-7.414 24.519-20.197 25.835-23.68.224-.593.485-1.32.769-2.124-5.007-1.244-8.035-5.028-9.677-7.929" mask="url(#d)"/></g><path fill="#FFF" d="M76.1 58.23c-.669-.486-4.818-1.26-11.692 10.957-.363.644-.717 1.261-1.067 1.862 1.642 2.9 4.67 6.685 9.677 7.929 1.385-3.922 3.325-9.714 4.287-11.108 1.16-1.679-.2-2.829-.2-2.829.504-1.359-1.013-2.08-1.013-2.08.05-2.295-2.776-.779-2.776-.779-.218-1.21 3.454-3.464 2.785-3.951"/><path fill="#000" d="M73.018 79.192a.213.213 0 0 1-.203-.284c.207-.587.426-1.215.653-1.864 1.324-3.79 2.824-8.086 3.66-9.295 1.032-1.494-.113-2.503-.162-2.545a.213.213 0 0 1-.062-.236c.428-1.158-.85-1.789-.906-1.815a.214.214 0 0 1-.122-.197c.01-.47-.109-.783-.355-.933-.56-.338-1.707.136-2.103.347a.217.217 0 0 1-.196.005.214.214 0 0 1-.118-.155c-.136-.753.83-1.677 1.762-2.571.445-.427 1.118-1.072 1.101-1.261-.156-.103-.636-.259-1.402-.093-1.608.347-5.04 2.238-9.969 10.996-.33.588-.68 1.198-1.068 1.865a.217.217 0 0 1-.294.078.213.213 0 0 1-.08-.292c.388-.665.736-1.273 1.066-1.86 5.01-8.904 8.574-10.842 10.253-11.205.856-.185 1.468-.027 1.755.182.102.074.16.178.169.3.025.373-.428.827-1.232 1.597-.6.576-1.384 1.327-1.59 1.869.532-.226 1.532-.553 2.17-.167.359.218.548.612.562 1.173.566.318 1.358 1.083 1.045 2.152.318.342 1.18 1.488.131 3.008-.802 1.161-2.358 5.615-3.608 9.193a625.2 625.2 0 0 1-.653 1.865.216.216 0 0 1-.204.143"/><path fill="#000" d="M69.581 70.335a.213.213 0 0 1-.207-.272c.262-.917 1.111-1.475 1.907-1.901l.175-.093c.692-.367 1.407-.746 1.782-1.383.15-.255.26-.646.075-.91-.18-.257-.581-.337-1.193-.235-.923.152-1.829.412-2.692.773a.216.216 0 0 1-.282-.114.213.213 0 0 1 .115-.28 12.536 12.536 0 0 1 2.789-.801c.79-.13 1.334.008 1.616.413.3.428.168.989-.056 1.37-.437.74-1.206 1.149-1.95 1.543l-.174.093c-.717.383-1.48.878-1.698 1.642a.215.215 0 0 1-.207.155"/><path fill="#000" d="M72.98 65.322a.214.214 0 0 1-.215-.235c.068-.657.247-1.291.535-1.886a.216.216 0 0 1 .287-.1c.107.05.153.178.101.285a5.234 5.234 0 0 0-.494 1.744.215.215 0 0 1-.214.192M73.751 66.17a.213.213 0 0 1-.085-.41 3.572 3.572 0 0 0 2.006-2.246.216.216 0 0 1 .414.12 4.004 4.004 0 0 1-2.25 2.519.215.215 0 0 1-.085.017M74.594 68.045c-.68 0-1.3-.401-1.512-.982a.213.213 0 0 1 .13-.274.216.216 0 0 1 .275.128c.151.413.624.71 1.124.701.458-.006.939-.24 1.318-.64.393-.415.637-.947.805-1.364a.216.216 0 0 1 .28-.118c.111.044.165.168.12.278-.183.451-.449 1.03-.89 1.496-.46.485-1.053.768-1.628.775h-.022"/><path fill="#000" d="M75.46 69.063c-.304 0-.59-.117-.767-.328-.223-.265-.245-.618-.262-.875a.214.214 0 0 1 .201-.227.216.216 0 0 1 .229.2c.017.257.04.482.163.629.13.154.393.214.64.146.27-.075.502-.268.694-.447a.217.217 0 0 1 .304.008.212.212 0 0 1-.008.302c-.23.216-.514.45-.875.548-.106.03-.214.044-.32.044M51.52 88.06a.213.213 0 0 1-.178-.333l1.12-1.646a.217.217 0 0 1 .3-.058.213.213 0 0 1 .058.297l-1.12 1.646a.216.216 0 0 1-.18.095"/><g transform="translate(6 71.323)"><mask id="f" fill="#fff"><use xlink:href="#e"/></mask><path fill="#E2EAFF" d="M15.66 41.938c-2.63-1.36-13.034-5.336-14.293-8-2.96-6.262.14-2.333.162-9.249.011-3.43 4.643-16.598 6.665-19.381C10.382 2.296 14.122.732 17.822.179c1.491-.223 3.367.063 3.367.063S27.906 4.846 34.562 1.3c1.842-.296 3.738.434 5.193 1.594 1.455 1.16 2.531 2.715 3.512 4.29 2.998 4.815 5.3 10.032 7.145 15.386.652 1.895 1.256 3.874 1.048 5.865-.235 2.253-.657 4.403-2.333 5.94-.543.498-1.059.943-1.509 1.317-.856.713-1.975 1.01-3.082.86-6.09-.832-20.821 3.905-22.068 4.907-1.876 1.509-4.71 1.563-6.807.478" mask="url(#f)"/></g><g transform="translate(22.924 85.295)"><mask id="h" fill="#fff"><use xlink:href="#g"/></mask><path fill="#FFF" d="M.331 9.732a.32.32 0 0 1-.32-.373L1.525.297a.323.323 0 0 1 .638.105L.65 9.464a.322.322 0 0 1-.319.268" mask="url(#h)"/></g><g transform="translate(46.01 83.451)"><mask id="j" fill="#fff"><use xlink:href="#i"/></mask><path fill="#FFF" d="M2.939 11.54a.322.322 0 0 1-.32-.276C2.27 8.847.957 2.926.063.471A.324.324 0 0 1 .67.253c.906 2.489 2.234 8.478 2.588 10.92a.321.321 0 0 1-.32.366" mask="url(#j)"/></g><path fill="#FFF" d="M42.425 72.79s-7.278 6.61-20.574-.69l6.512-1.37a1.499 1.499 0 0 0 1.18-1.264l1.361-10.448 6.638 2.794-.872 8.52c-.048.55.311 1.055.85 1.194l4.905 1.264Z"/><path fill="#000" d="M42.425 73.004a.214.214 0 0 1-.054-.007l-4.905-1.264a1.344 1.344 0 0 1-1.01-1.42l.855-8.366-6.23-2.623-1.323 10.169a1.717 1.717 0 0 1-1.35 1.445l-6.512 1.37a.214.214 0 1 1-.09-.418l6.513-1.37c.533-.112.94-.547 1.011-1.083l1.36-10.447a.214.214 0 0 1 .107-.158.217.217 0 0 1 .191-.011l6.638 2.795c.087.036.14.125.13.218l-.872 8.52a.916.916 0 0 0 .69.965l4.905 1.265a.213.213 0 0 1-.054.42M16.419 49.005c1.555-1.491 3.99-1.765 6.084-1.226 2.18.562 4.117 1.949 5.4 3.778 1.144 1.633 2.214 3.957 1.248 5.9-.618 1.242-1.857 2.113-3.202 2.489-1.344.375-2.783.296-4.146-.006-2.446-.543-4.81-1.89-6.061-4.045-1.251-2.154-1.125-5.162.677-6.89"/><path fill="#000" d="M30.857 48.384c2.696-2.407 6.859-3.047 10.162-1.561 1.565.703 2.984 1.925 3.482 3.555.5 1.63-.173 3.656-1.748 4.337.825.224 1.051 1.405.562 2.1-.49.697-1.408.961-2.263.993-.858.031-1.746-.117-2.555.167-.594.21-1.081.632-1.572 1.024-1.397 1.119-3.033 2.093-4.828 2.15-5.037.16-4.923-6.514-3.443-9.75a9.134 9.134 0 0 1 2.203-3.015"/><path fill="#FFF" d="M32.262 55.297c-.065.598.256 1.167.345 1.762.089.596-.25 1.368-.855 1.318-.599-.05-.8-.795-1.128-1.293-.66-1.003-2.302-1.061-3.157-.216-.855.846-.886 2.313-.216 3.31.67.997 1.908 1.529 3.115 1.54.685 2.412 3.01 4.144 5.491 4.612.998.187 2.096.181 2.95-.364 1.268-.81 1.584-2.493 1.665-3.987a28.67 28.67 0 0 0-.497-7.091c-.32-1.622-2.296-.249-3.354.003-.328.078-4.38.608-4.359.406"/><path fill="#000" d="M28.98 56.492c-.523 0-1.02.19-1.36.528-.752.743-.836 2.079-.19 3.04.591.879 1.717 1.433 2.939 1.445.095.001.179.064.205.156.62 2.183 2.759 3.975 5.323 4.459 1.164.219 2.104.107 2.793-.333 1.262-.806 1.5-2.566 1.567-3.82a28.45 28.45 0 0 0-.493-7.038c-.054-.274-.159-.45-.32-.535-.407-.217-1.17.095-1.842.37-.338.14-.657.27-.93.335-.034.008-3.122.483-4.2.44.013.258.092.52.174.793.068.224.138.456.174.696.068.458-.079.97-.367 1.274-.2.21-.448.31-.72.288-.565-.047-.832-.552-1.067-.998-.074-.141-.145-.274-.222-.391-.255-.388-.707-.642-1.24-.697a2.191 2.191 0 0 0-.224-.012m8 10.164c-.363 0-.75-.039-1.163-.117-2.662-.501-4.896-2.344-5.613-4.611-1.3-.059-2.49-.675-3.133-1.631-.755-1.125-.648-2.697.244-3.58.48-.475 1.203-.713 1.933-.638.663.068 1.23.392 1.557.888.088.134.167.283.243.427.201.382.392.743.722.77a.442.442 0 0 0 .369-.154c.196-.208.303-.594.255-.92-.032-.209-.094-.416-.16-.636-.114-.376-.23-.764-.186-1.18a.215.215 0 0 1 .343-.149c.49.06 3.773-.344 4.18-.441.241-.058.545-.182.867-.314.76-.312 1.624-.665 2.21-.353.278.149.46.428.539.83a28.87 28.87 0 0 1 .5 7.144c-.073 1.347-.336 3.243-1.764 4.155-.532.34-1.182.51-1.943.51"/><path fill="#000" d="M30.145 60.464a.215.215 0 0 1-.196-.125 1.671 1.671 0 0 0-1.235-.924.214.214 0 1 1 .066-.422 2.083 2.083 0 0 1 1.56 1.168.213.213 0 0 1-.195.303"/><path fill="#FFF" d="M103.143 66.785h62.742a3.829 3.829 0 0 0 3.836-3.821V7.131a3.829 3.829 0 0 0-3.836-3.821h-62.742a3.829 3.829 0 0 0-3.836 3.82v55.834a3.829 3.829 0 0 0 3.836 3.821"/><path fill="#000" d="M165.885 67h-62.742c-2.234 0-4.051-1.81-4.051-4.036V7.13c0-2.226 1.817-4.036 4.051-4.036h21.118a.215.215 0 1 1 0 .43h-21.118a3.618 3.618 0 0 0-3.62 3.606v55.833a3.618 3.618 0 0 0 3.62 3.607h62.742a3.618 3.618 0 0 0 3.62-3.607V7.13a3.618 3.618 0 0 0-3.62-3.607h-23.018a.215.215 0 1 1 0-.429h23.018c2.234 0 4.051 1.81 4.051 4.036v55.833c0 2.225-1.817 4.036-4.051 4.036"/><g transform="translate(102 3)"><mask id="l" fill="#fff"><use xlink:href="#k"/></mask><path fill="#5479F7" d="M63.785 59.894c.338-.337 1.053-.986 1.093-2.108.117-3.221-.09-11.488-.09-11.488S51.091 24.158 33.94 26.27l-11.49-.699S9.344 31.39 5.864 35.18C.21 41.334.583 55.798 7.083 60.956c0 0 13.167-.14 24.317 0h29.67c1.799 0 2.517-.864 2.715-1.062" mask="url(#l)"/></g><g transform="translate(102 3)"><mask id="n" fill="#fff"><use xlink:href="#m"/></mask><path fill="#FFF" d="M60.521 55.246a.324.324 0 0 1-.297-.193 172.077 172.077 0 0 0-7.419-14.782.323.323 0 0 1 .124-.44.325.325 0 0 1 .442.123 172.733 172.733 0 0 1 7.446 14.837.323.323 0 0 1-.296.455" mask="url(#n)"/></g><g transform="translate(102 3)"><mask id="p" fill="#fff"><use xlink:href="#o"/></mask><path fill="#FFF" d="m22.168 25.54.256-1.75h13.908l.324 2.692a2.448 2.448 0 0 1-.755 2.076l-2.533 2.381-9.931-3.338a1.887 1.887 0 0 1-1.269-2.06" mask="url(#p)"/></g><g transform="translate(102 3)"><mask id="r" fill="#fff"><use xlink:href="#q"/></mask><path fill="#5479F7" d="M36.655 26.697a.216.216 0 0 1-.214-.19l-.3-2.502H22.61l-.229 1.567a.216.216 0 0 1-.428-.062l.256-1.752a.216.216 0 0 1 .214-.184h13.908c.11 0 .202.081.215.19l.323 2.692a.216.216 0 0 1-.215.241" mask="url(#r)"/></g><g transform="translate(102 3)"><mask id="t" fill="#fff"><use xlink:href="#s"/></mask><path fill="#FFF" d="M46.616 60.786a.324.324 0 0 1-.298-.196c-1.865-4.326-3.606-9.927-5.174-16.649a.324.324 0 0 1 .632-.147c1.559 6.685 3.288 12.25 5.138 16.54a.323.323 0 0 1-.298.452" mask="url(#t)"/></g><g transform="translate(102 3)"><mask id="v" fill="#fff"><use xlink:href="#u"/></mask><path fill="#FFF" d="M20.71 56.023a.324.324 0 0 1-.113-.628 61.698 61.698 0 0 1 12.016-3.072.324.324 0 1 1 .097.64 61.04 61.04 0 0 0-11.889 3.04.325.325 0 0 1-.112.02" mask="url(#v)"/></g><g transform="translate(102 3)"><mask id="x" fill="#fff"><use xlink:href="#w"/></mask><path fill="#FFF" d="M22.746 55.174a.324.324 0 0 1-.309-.225c-1.257-3.944-1.923-6.936-2.459-11.04a.324.324 0 0 1 .643-.083c.53 4.062 1.19 7.023 2.435 10.927a.323.323 0 0 1-.31.421" mask="url(#x)"/></g><g><path fill="#FFF" d="M129.235 19.445v7.48l7.104 2.294v-6.257s-5.221-4.013-7.104-3.517"/><path fill="#000" d="m129.451 26.768 6.672 2.155v-5.855c-1.444-1.097-5.13-3.604-6.672-3.444v7.144Zm6.888 2.666a.218.218 0 0 1-.067-.01l-7.103-2.294a.216.216 0 0 1-.15-.205v-7.48c0-.098.067-.183.161-.208 1.963-.517 7.074 3.388 7.29 3.554.053.04.085.104.085.17v6.258a.215.215 0 0 1-.216.215Z"/><g transform="translate(121.907)"><mask id="z" fill="#fff"><use xlink:href="#y"/></mask><path fill="#000" d="M1.308 17.108c-1.1-1.316-1.593-3.224-.913-4.797.403-.93 1.157-1.654 1.798-2.441 1.133-1.391 1.933-3.016 2.84-4.564.906-1.547 1.962-3.066 3.45-4.072a7.345 7.345 0 0 1 6.121-.941 7.329 7.329 0 0 1 4.602 4.137c.57 1.367.683 3.01-.079 4.281-.854 1.426-2.546 2.06-3.966 2.925-1.955 1.191-3.49 2.918-5.086 4.528-.786.793-1.592 1.572-2.48 2.252a12.7 12.7 0 0 1-1.416.946c-.611.35-.85.268-1.507.014-1.27-.493-2.483-1.213-3.364-2.268" mask="url(#z)"/></g><path fill="#FFF" d="M129.999 14.792c-.091-.81-.498-1.545-.897-2.255a61.65 61.65 0 0 1 6.706-3.598c1.275-.586 2.792.126 3.108 1.491.207.894.51 1.775.823 2.637.627 1.725 1.314 3.468 1.398 5.301.084 1.833-.556 3.815-2.084 4.835-.881.589-1.968.802-3.028.817-2.042.03-4.18-.715-5.425-2.33-.262-.34-1.422-1.436-1.422-1.436s-1.159.226-2.692-.884c-.959-.695-1.317-1.705-.748-2.718a1.82 1.82 0 0 1 1.136-.868c.99-.252 1.38.51 2.208.714.837.207.983-1.12.917-1.706"/><path fill="#000" d="M129.178 20.038c.055 0 .108.02.149.06.048.044 1.175 1.111 1.444 1.46 1.108 1.439 3.075 2.285 5.25 2.247 1.182-.017 2.162-.28 2.912-.78 1.575-1.052 2.06-3.09 1.989-4.647-.077-1.658-.668-3.274-1.24-4.837l-.146-.4c-.306-.841-.618-1.746-.83-2.662a1.963 1.963 0 0 0-1.058-1.322 2.035 2.035 0 0 0-1.75-.022 61.624 61.624 0 0 0-6.507 3.477c.36.645.734 1.365.822 2.156.04.347.033 1.344-.462 1.778a.77.77 0 0 1-.72.161c-.344-.085-.608-.249-.864-.408-.396-.246-.71-.441-1.24-.307a1.605 1.605 0 0 0-1 .765c-.486.864-.23 1.775.686 2.438 1.44 1.043 2.513.85 2.524.847a.22.22 0 0 1 .041-.004m6.725 4.199c-2.265 0-4.305-.898-5.474-2.416-.212-.274-1.068-1.095-1.325-1.341-.346.031-1.415.027-2.745-.936-1.093-.792-1.403-1.94-.809-2.997.27-.481.734-.836 1.271-.972.709-.18 1.169.106 1.574.358.238.148.462.287.74.356.135.034.24.012.331-.067.283-.248.367-.976.319-1.406-.088-.778-.504-1.52-.872-2.174a.215.215 0 0 1 .075-.288 62.053 62.053 0 0 1 6.73-3.61 2.464 2.464 0 0 1 2.12.026 2.392 2.392 0 0 1 1.288 1.612c.207.894.515 1.784.816 2.612l.146.4c.583 1.593 1.186 3.24 1.265 4.964.077 1.674-.455 3.873-2.18 5.024-.82.548-1.879.835-3.145.854h-.125"/><path fill="#000" d="M129.088 19.524a.216.216 0 0 1-.206-.154c-.192-.632-.903-1.064-1.555-.944a.215.215 0 1 1-.079-.423c.857-.159 1.795.41 2.047 1.243a.215.215 0 0 1-.207.278M133.744 13.227c-.155 0-.309.022-.459.067-.484.144-.873.506-1.097 1.02-.229.527-.256 1.148-.077 1.749.366 1.225 1.488 1.978 2.5 1.676 1.014-.301 1.54-1.543 1.175-2.769-.18-.6-.543-1.105-1.024-1.421a1.854 1.854 0 0 0-1.018-.322m.413 5.01c-1.06 0-2.092-.822-2.46-2.051-.208-.697-.174-1.423.095-2.043.275-.633.762-1.081 1.37-1.262.608-.18 1.26-.071 1.838.308.565.372.991.96 1.2 1.658.433 1.454-.224 2.936-1.465 3.305a2.022 2.022 0 0 1-.578.084M138.932 11.057c-.153 0-.306.022-.457.067-1.014.3-1.54 1.543-1.174 2.769.179.6.542 1.105 1.023 1.42.469.31.993.4 1.477.256.484-.144.874-.506 1.097-1.02.229-.528.256-1.149.077-1.749-.311-1.043-1.17-1.743-2.043-1.743m.408 5.01a2.28 2.28 0 0 1-1.254-.393c-.565-.372-.99-.961-1.199-1.658-.434-1.454.223-2.936 1.464-3.305 1.241-.37 2.604.513 3.038 1.966.208.697.174 1.423-.095 2.043-.275.633-.761 1.081-1.37 1.262a2.05 2.05 0 0 1-.584.085"/><path fill="#000" d="M136.07 15.056a.216.216 0 0 1-.207-.275c.166-.567.795-.947 1.375-.83a.215.215 0 1 1-.085.422.792.792 0 0 0-.875.528.216.216 0 0 1-.207.155M129.23 16.68a.216.216 0 0 1-.046-.426l2.548-.554a.216.216 0 1 1 .092.42l-2.548.554a.214.214 0 0 1-.046.005"/><path fill="#FFF" d="M137.985 29.863s-.548-2.18 1.323-1.564c0 0 .16-2.552 2.057-1.09l-2.746-3.573a1 1 0 0 1 .057-1.287 1.005 1.005 0 0 1 1.453-.028c2.849 2.88 7.22 6.519 15.565 20.373-4.09 1.923-6.976 3.412-12.2 4.027 0 0-6.307-14.393-6.657-15.713-.446-1.685 1.148-1.145 1.148-1.145"/><path fill="#000" d="M137.553 33.095a.216.216 0 0 1-.2-.134c-.424-1.04-.661-1.66-.724-1.898-.157-.59-.098-1.017.173-1.27.26-.243.64-.25.913-.212-.048-.39-.053-1.014.326-1.366.252-.234.616-.298 1.083-.192.067-.401.262-1.147.817-1.398.2-.09.422-.108.663-.052l-2.156-2.805a1.214 1.214 0 0 1 .069-1.565c.228-.248.54-.388.877-.395.333-.01.652.123.89.362.298.302.613.612.948.942 1.77 1.74 3.972 3.907 7.12 8.11a.216.216 0 0 1-.346.258c-3.128-4.177-5.318-6.33-7.077-8.061a98.548 98.548 0 0 1-.953-.947.779.779 0 0 0-.574-.233.782.782 0 0 0-.567.255.785.785 0 0 0-.045 1.011l2.746 3.572a.215.215 0 0 1-.303.302c-.322-.248-.776-.513-1.114-.361-.432.195-.577 1-.596 1.294a.216.216 0 0 1-.283.191c-.428-.141-.733-.132-.904.027-.307.284-.207 1.02-.142 1.28a.215.215 0 0 1-.279.257c-.148-.05-.617-.148-.819.04-.181.17-.127.555-.05.846.057.217.295.838.707 1.845a.215.215 0 0 1-.2.297"/><mask id="B" fill="#fff"><use xlink:href="#A"/></mask><path fill="#000" d="M141.706 105.264h88.667v-3.684h-88.667z" mask="url(#B)"/><path fill="#000" d="M252.882 173.864a.216.216 0 0 1-.196-.125l-31.7-68.745a.216.216 0 0 1 .392-.18l31.7 68.745a.215.215 0 0 1-.196.305M251.706 176.547a2.24 2.24 0 0 0 2.242 2.238 2.24 2.24 0 0 0 2.242-2.238 2.24 2.24 0 0 0-2.242-2.238 2.24 2.24 0 0 0-2.242 2.238M121.38 173.864a.215.215 0 0 1-.196-.305l32.476-70.43a.216.216 0 0 1 .392.18l-32.476 70.43a.216.216 0 0 1-.196.125M122.556 176.547a2.24 2.24 0 0 1-2.242 2.238 2.24 2.24 0 0 1-2.242-2.238 2.24 2.24 0 0 1 2.242-2.238 2.24 2.24 0 0 1 2.242 2.238" mask="url(#B)"/><path fill="#FFF" d="m205.065 123.552 17.498 50.74c.76 2.2-.879 4.493-3.211 4.493H197.39l-16.951-52.045 24.626-3.188Z" mask="url(#B)"/><path fill="#000" d="M197.547 178.57h21.805a3.147 3.147 0 0 0 2.59-1.332 3.134 3.134 0 0 0 .417-2.877l-17.44-50.573-24.195 3.133 16.823 51.648Zm21.805.43H197.39a.216.216 0 0 1-.206-.149l-16.95-52.044a.215.215 0 0 1 .177-.28l24.626-3.188a.215.215 0 0 1 .232.143l17.498 50.74a3.56 3.56 0 0 1-.475 3.266 3.574 3.574 0 0 1-2.94 1.512Z" mask="url(#B)"/><path fill="#000" d="M201.402 171.886a13.86 13.86 0 0 1-1.557-.086.215.215 0 1 1 .048-.428c2.805.317 5.617-.328 8.492-1.076a215.888 215.888 0 0 0 10.834-3.122.215.215 0 1 1 .13.41 216.763 216.763 0 0 1-10.855 3.13c-2.39.62-4.738 1.172-7.092 1.172" mask="url(#B)"/><path fill="#FFF" d="m247.128 105.258 4.007 10.366c2.791 7.219-2.575 14.978-10.327 14.93-18.366-.11-45.842-.22-45.842.112 0 .423 12.077 34.652 15.771 45.115.519 1.467-.573 3.004-2.131 3.004h-36.447c-1.217 0-1.72-1.557-.733-2.268l9.013-6.482s-9.993-20.487-17.011-40.366c-4.21-11.92 4.678-24.411 17.341-24.411h66.359Z" mask="url(#B)"/><path fill="#000" d="M180.769 105.473c-5.974 0-11.38 2.792-14.833 7.66-3.444 4.857-4.284 10.858-2.305 16.464 6.934 19.64 16.902 40.139 17.002 40.344a.215.215 0 0 1-.068.269l-9.013 6.482c-.452.325-.493.812-.381 1.16.112.346.43.717.988.717h36.447c.672 0 1.28-.314 1.669-.861a2.01 2.01 0 0 0 .259-1.856c-7.2-20.389-15.784-44.78-15.784-45.186 0-.057.026-.118.067-.159.145-.143.445-.442 45.992-.167h.07c3.594 0 6.824-1.691 8.868-4.648 2.059-2.976 2.491-6.617 1.187-9.99l-3.954-10.229h-66.211ZM208.606 179h-36.447c-.65 0-1.2-.399-1.399-1.016-.2-.618.012-1.262.54-1.641l8.865-6.377c-.958-1.981-10.327-21.492-16.941-40.225-2.027-5.74-1.166-11.884 2.36-16.856 3.534-4.984 9.07-7.842 15.185-7.842h66.359c.089 0 .169.054.201.137l4.008 10.366a11.17 11.17 0 0 1-1.234 10.391 11.241 11.241 0 0 1-9.296 4.833c-27.16-.163-43.607-.142-45.575.057.719 2.33 8.473 24.392 15.709 44.882.27.766.156 1.585-.314 2.248a2.449 2.449 0 0 1-2.021 1.043Z" mask="url(#B)"/><path fill="#000" d="M190.97 173.497c-3.709 0-6.82-.82-9.273-2.45-.26-.172-.558-.385-.803-.652a.215.215 0 1 1 .318-.29c.213.232.474.417.724.583 2.947 1.958 6.889 2.712 11.715 2.243 2.231-.217 4.475-.66 6.645-1.088 1.79-.354 3.643-.72 5.486-.958a.215.215 0 1 1 .056.427c-1.83.237-3.674.601-5.459.954-2.18.43-4.434.875-6.687 1.094a28.16 28.16 0 0 1-2.722.137M193.384 130.95h-9.222a.216.216 0 1 1 0-.43h9.222a.216.216 0 1 1 0 .43M251.082 134.055h-36.557a3.376 3.376 0 0 1-3.379-3.373v-.371a3.376 3.376 0 0 1 3.38-3.373h36.556c1.866 0 3.38 1.51 3.38 3.373v.371a3.376 3.376 0 0 1-3.38 3.373" mask="url(#B)"/><path fill="#000" d="M199.927 174.055a.215.215 0 0 1-.195-.305l19.002-41.21a.216.216 0 0 1 .392.18l-19.002 41.21a.216.216 0 0 1-.197.125M201.104 176.738a2.24 2.24 0 0 1-2.243 2.238 2.24 2.24 0 0 1-2.242-2.238 2.24 2.24 0 0 1 2.242-2.238 2.24 2.24 0 0 1 2.243 2.238M265.584 173.864a.216.216 0 0 1-.196-.125l-19.003-41.211a.216.216 0 0 1 .392-.18l19.003 41.21a.215.215 0 0 1-.196.306M264.408 176.547a2.24 2.24 0 0 0 2.242 2.238 2.24 2.24 0 0 0 2.242-2.238 2.24 2.24 0 0 0-2.242-2.238 2.24 2.24 0 0 0-2.242 2.238" mask="url(#B)"/><path fill="#FFF" d="M183.418 78.19c-4.425-2.306-9.358-4.683-14.207-3.5-.545.132-1.173.416-1.239.972-.09.766.905 1.134 1.672 1.232l3.778.48.199.05c-.925.413-1.871.923-2.397 1.788-.526.864-.443 2.172.423 2.697a2.39 2.39 0 0 0-.684 2.19 2.393 2.393 0 0 0 1.512 1.726c-.357.477-.248 1.168.044 1.687a2.925 2.925 0 0 0 2.369 1.457 2.93 2.93 0 0 0 2.425-1.142l-.039-.072.107-.02c-.022.032-.045.062-.068.092a23.544 23.544 0 0 0 4.757 6.352l7.15-12.387c-1.881-1.329-3.788-2.551-5.802-3.601" mask="url(#B)"/><path fill="#000" d="M182.07 94.395a.215.215 0 0 1-.15-.06 23.71 23.71 0 0 1-4.651-6.124 3.139 3.139 0 0 1-2.391.973 3.152 3.152 0 0 1-2.547-1.566c-.254-.451-.425-1.13-.167-1.69a2.621 2.621 0 0 1-1.413-1.785 2.617 2.617 0 0 1 .57-2.204c-.79-.672-.804-1.98-.282-2.84.436-.716 1.125-1.193 1.866-1.574l-3.289-.418c-.923-.117-1.964-.573-1.858-1.47.064-.541.562-.952 1.402-1.157 4.785-1.167 9.522.999 14.358 3.52 1.84.96 3.692 2.108 5.827 3.616a.215.215 0 1 1-.25.352c-2.118-1.497-3.954-2.636-5.777-3.587-4.76-2.48-9.416-4.613-14.056-3.482-.378.092-1.02.317-1.075.788-.074.625.898.918 1.484.993l3.778.48a.242.242 0 0 1 .025.005l.199.05a.215.215 0 0 1 .036.405c-.902.403-1.804.888-2.3 1.703-.46.755-.407 1.943.35 2.402a.216.216 0 0 1 .036.341 2.17 2.17 0 0 0-.621 1.988c.15.71.689 1.325 1.373 1.568a.215.215 0 0 1 .101.331c-.32.428-.168 1.05.06 1.454a2.71 2.71 0 0 0 2.19 1.347 2.693 2.693 0 0 0 2.164-.958.216.216 0 0 1 .174-.253l.107-.02a.215.215 0 0 1 .223.323 23.273 23.273 0 0 0 4.654 6.178.215.215 0 0 1-.15.37" mask="url(#B)"/><path fill="#000" d="M172.144 81.79a.216.216 0 0 1-.127-.39 11.47 11.47 0 0 1 2.51-1.373.216.216 0 0 1 .159.4c-.857.338-1.67.783-2.416 1.322a.215.215 0 0 1-.126.041M172.857 85.898a.215.215 0 0 1-.14-.38 8.787 8.787 0 0 1 1.954-1.25.215.215 0 1 1 .183.39 8.352 8.352 0 0 0-1.857 1.189.215.215 0 0 1-.14.051M177.387 87.826h-.006l-1.938-.05a.215.215 0 1 1 .011-.43l1.938.05a.216.216 0 0 1-.005.43" mask="url(#B)"/><path fill="#5479F7" d="M253.835 111.71c-3.044-9.055-15.042-34-16.894-37.849-.65-1.353-1.321-2.735-2.386-3.797-2.45-2.443-6.311-2.619-9.773-2.49-4.348.162-11.19.128-15.048 2.136-3.172 1.65-9.41 13.346-11.504 17.367-3.147-1.994-6.23-3.323-9.01-5.285l-7.15 12.387c.573.55 1.163 1.082 1.765 1.6 1.43 1.231 2.917 2.413 4.575 3.315 4.002 2.177 8.936 2.57 13.234 1.053 4.296-1.516 7.887-4.917 9.63-9.12l.043-.087c.781 4.147 1.799 8.25 3.047 12.282.148.478.536 1.72.926 2.036.466.377 1.121.384 1.721.373l3.78-.067c1.45 3.264 2.683 5.792 4.133 9.057.602 1.354 1.23 2.745 2.308 3.763 1.31 1.236 3.131 1.77 4.91 2.068 4.953.827 10.022.122 14.984-.646 1.516-.235 3.059-.484 4.427-1.176 1.369-.691 2.559-1.907 2.824-3.415.207-1.177-.16-2.371-.542-3.504" mask="url(#B)"/><path fill="#000" d="M211.425 91.05a.216.216 0 0 1-.205-.149 242.888 242.888 0 0 0-1.739-5.1c-.059-.166-.116-.31-.214-.385-.17-.13-.464-.06-.872.209a.216.216 0 0 1-.237-.36c.577-.38 1.038-.444 1.37-.192.21.159.296.405.36.586.597 1.689 1.183 3.407 1.742 5.108a.215.215 0 0 1-.205.282" mask="url(#B)"/><path fill="#FFF" d="M208.373 47.717s-4.605 9.736-.436 13.463c4.168 3.727 11.722-1.852 11.722-1.852s-6.462-14.414-11.286-11.61" mask="url(#B)"/><path fill="#000" d="M208.54 47.87c-.377.828-4.292 9.724-.46 13.15 3.684 3.293 10.26-1.035 11.309-1.764-.612-1.316-4.899-10.277-8.83-11.54-.737-.237-1.398-.187-2.02.154m3.01 14.82c-1.346 0-2.657-.366-3.756-1.35-4.24-3.79.194-13.311.385-13.715a.215.215 0 0 1 .086-.094c.74-.43 1.556-.505 2.428-.225 4.405 1.415 8.972 11.505 9.164 11.934a.215.215 0 0 1-.069.261c-.233.173-4.377 3.19-8.237 3.19" mask="url(#B)"/><path fill="#000" d="M246.904 76.242c-.818-2.508-2.278-4.8-4.13-6.674-.94-.95-1.986-1.765-3.063-2.552-1.091-.797-2.208-1.583-3.16-2.547a9.446 9.446 0 0 1-2.144-3.378c-.491-1.319-.75-2.71-1-4.09-.248-1.365-.495-2.73-.9-4.06a22.799 22.799 0 0 0-1.577-3.877c-1.257-2.419-2.96-4.804-5.172-6.44-1.123-.83-2.415-1.416-3.805-1.617-1.426-.205-2.872-.043-4.26.313-.26.067-.518.143-.773.222a341.89 341.89 0 0 0-3.391-.83c-1.235-.295-2.472-.59-3.746-.636-1.131-.042-2.318.112-3.283.742-1.083.708-1.622 1.891-1.844 3.13-.434 2.425.155 5.203 2.21 6.747.85.64 1.837 1.063 2.807 1.486.954.416 1.949.832 2.747 1.516.979.84 1.378 2.019 1.281 3.294-.106 1.395-.603 2.735-.883 4.1-.502 2.451-.667 5.282.854 7.428 1.455 2.053 4.251 2.877 5.267 5.275.54 1.272.507 2.717.35 4.064-.176 1.51-.506 2.996-.618 4.514-.107 1.455-.027 2.935.47 4.319.4 1.116 1.048 2.138 1.846 3.014 1.667 1.83 3.9 3.074 6.236 3.844 2.917.961 6.082 1.283 9.111.701 2.579-.495 5.048-1.65 7.004-3.41 4.042-3.637 5.225-9.518 3.566-14.598M99.164 174.222H31.681a.216.216 0 0 1-.216-.215V152.62a.216.216 0 0 1 .432 0v21.172h67.267a.216.216 0 1 1 0 .43M99.164 169.621H92.19a.216.216 0 1 1 0-.43h6.975a.216.216 0 1 1 0 .43" mask="url(#B)"/><path fill="#000" d="M86.634 169.621H64.191a.216.216 0 1 1 0-.43h22.443a.216.216 0 1 1 0 .43M99.164 165.02H80.488a.216.216 0 1 1 0-.43h18.676a.216.216 0 1 1 0 .43M73.85 165.02h-9.66a.216.216 0 1 1 0-.43h9.66a.216.216 0 1 1 0 .43" mask="url(#B)"/><path fill="#FFF" d="M51.299 166.97c0-1.228.998-2.224 2.229-2.224 1.23 0 2.228.996 2.228 2.225a2.227 2.227 0 0 1-2.228 2.224 2.227 2.227 0 0 1-2.229-2.224" mask="url(#B)"/><path fill="#000" d="M53.528 164.962c-1.11 0-2.013.901-2.013 2.009a2.013 2.013 0 0 0 4.026 0 2.013 2.013 0 0 0-2.013-2.01m0 4.45a2.445 2.445 0 0 1-2.445-2.44 2.445 2.445 0 0 1 4.89 0 2.445 2.445 0 0 1-2.445 2.44" mask="url(#B)"/><path fill="#E2EAFF" d="M43.845 166.97c0-1.228.998-2.224 2.228-2.224 1.231 0 2.229.996 2.229 2.225a2.227 2.227 0 0 1-2.229 2.224 2.227 2.227 0 0 1-2.228-2.224M36.159 166.97a2.434 2.434 0 0 1 2.436-2.43 2.434 2.434 0 0 1 2.436 2.43 2.434 2.434 0 0 1-2.436 2.432 2.434 2.434 0 0 1-2.436-2.431" mask="url(#B)"/><path fill="#FFF" d="M115.543 101.057c0-1.229.998-2.224 2.229-2.224 1.23 0 2.228.995 2.228 2.224a2.227 2.227 0 0 1-2.228 2.225 2.227 2.227 0 0 1-2.23-2.225" mask="url(#B)"/><path fill="#000" d="M117.772 99.048c-1.11 0-2.013.901-2.013 2.01a2.013 2.013 0 0 0 4.025 0c0-1.109-.903-2.01-2.012-2.01m0 4.449a2.445 2.445 0 0 1-2.445-2.44 2.445 2.445 0 0 1 4.889 0 2.445 2.445 0 0 1-2.444 2.44" mask="url(#B)"/><path fill="#FFF" d="M108.089 101.057c0-1.228.997-2.224 2.228-2.224 1.231 0 2.229.996 2.229 2.224a2.227 2.227 0 0 1-2.229 2.225 2.227 2.227 0 0 1-2.228-2.225" mask="url(#B)"/><path fill="#000" d="M110.317 99.048c-1.11 0-2.013.901-2.013 2.01a2.013 2.013 0 0 0 4.026 0c0-1.109-.903-2.01-2.013-2.01m0 4.449a2.445 2.445 0 0 1-2.444-2.44 2.445 2.445 0 0 1 4.889 0 2.445 2.445 0 0 1-2.445 2.44" mask="url(#B)"/><path fill="#5479F7" d="M100.402 101.057a2.434 2.434 0 0 1 2.437-2.432 2.434 2.434 0 0 1 2.436 2.432 2.434 2.434 0 0 1-2.436 2.432 2.434 2.434 0 0 1-2.437-2.432" mask="url(#B)"/><path fill="#000" d="M119.804 85.934H96.08a.216.216 0 1 1 0-.43h23.508V71.612a.216.216 0 0 1 .432 0v14.107a.216.216 0 0 1-.216.215M119.804 91.004H101.54a.216.216 0 1 1 0-.43h18.263a.216.216 0 1 1 0 .43M119.804 95.182h-11.76a.216.216 0 1 1 0-.43h11.76a.216.216 0 1 1 0 .43M251.426 36.773a.216.216 0 0 1-.216-.215V7.255h-77.4a.216.216 0 1 1 0-.43h77.616c.12 0 .216.096.216.215v29.518a.216.216 0 0 1-.216.215" mask="url(#B)"/><path fill="#E2EAFF" d="M251.426 45.121a2.476 2.476 0 0 1-2.478-2.473 2.476 2.476 0 0 1 2.478-2.474 2.476 2.476 0 0 1 2.478 2.474 2.476 2.476 0 0 1-2.478 2.473M251.426 52.34a2.476 2.476 0 0 1-2.478-2.473 2.476 2.476 0 0 1 2.478-2.474 2.476 2.476 0 0 1 2.478 2.474 2.476 2.476 0 0 1-2.478 2.473M251.426 59.559a2.476 2.476 0 0 1-2.478-2.474 2.476 2.476 0 0 1 2.478-2.473 2.476 2.476 0 0 1 2.478 2.473 2.476 2.476 0 0 1-2.478 2.474" mask="url(#B)"/><path fill="#000" d="M268.727 134.129a.216.216 0 0 1-.216-.215v-14.142a.216.216 0 0 1 .432 0v14.142a.216.216 0 0 1-.216.215M268.727 110.44a.216.216 0 0 1-.216-.216V67.717a.216.216 0 0 1 .432 0v42.507a.216.216 0 0 1-.216.215M261.833 94.104a.216.216 0 0 1-.216-.215V32.195a.216.216 0 0 1 .432 0v61.694a.216.216 0 0 1-.216.215" mask="url(#B)"/></g></g></svg>