<svg xmlns="http://www.w3.org/2000/svg" xmlns:xlink="http://www.w3.org/1999/xlink" width="243" height="170"><defs><path id="a" d="M.258.017h21.508v7.796H.258z"/><path id="c" d="M.173.046h46.66V48H.174z"/></defs><g fill="none" fill-rule="evenodd"><path fill="#000" d="M187.276 46a.276.276 0 0 1-.252-.167.285.285 0 0 1 .14-.373l18.447-8.435a.274.274 0 0 1 .365.142.285.285 0 0 1-.14.373l-18.447 8.435a.272.272 0 0 1-.113.025"/><g transform="translate(142)"><mask id="b" fill="#fff"><use xlink:href="#a"/></mask><path fill="#000" d="M.527 7.813a.278.278 0 0 1-.085-.537L21.411.03c.14-.048.293.03.34.174a.278.278 0 0 1-.17.35L.613 7.798a.264.264 0 0 1-.085.014" mask="url(#b)"/></g><path fill="#000" d="M222.294 32a.297.297 0 0 1-.268-.158c-.067-.135 0-.294.148-.354l13.411-5.465c.148-.06.323 0 .39.135.066.135 0 .293-.15.354l-13.41 5.465a.32.32 0 0 1-.12.023M179.275 34a.275.275 0 0 1-.253-.168.28.28 0 0 1 .144-.366l58.45-25.444c.14-.06.302.005.362.146a.28.28 0 0 1-.144.366l-58.45 25.443a.271.271 0 0 1-.109.023"/><path fill="#000" d="M234.474 12a.185.185 0 0 1-.104-.033c-.101-.07-.136-.225-.078-.346l1.174-2.464-2.304-.658c-.113-.032-.183-.168-.156-.304.027-.136.14-.22.253-.188l2.58.735a.225.225 0 0 1 .144.146.298.298 0 0 1-.011.226l-1.314 2.759c-.04.081-.11.127-.184.127M211.281 48a.283.283 0 0 1-.256-.152c-.064-.13 0-.282.141-.34l30.438-12.486c.142-.057.308 0 .371.13.064.13 0 .282-.141.34l-30.438 12.486a.304.304 0 0 1-.115.022"/><path fill="#000" d="M241.474 38a.184.184 0 0 1-.104-.033c-.101-.07-.136-.225-.078-.346l1.174-2.464-2.304-.657c-.113-.033-.183-.169-.156-.305.027-.136.14-.22.253-.188l2.58.735a.225.225 0 0 1 .144.146.298.298 0 0 1-.011.226l-1.314 2.759c-.04.081-.11.127-.184.127"/><path fill="#5479F7" d="m133.86 78.592 31.139-21.402s.44-6.4-14.856-3.38C134.847 56.826 93 65.57 93 65.57L93.908 80l39.951-1.408Z"/><path fill="#FFF" d="M81 150.543c-10.688 6.004-23.428 8.501-35.74 7.058-2.994-.894.54-3.44 1.398-4.53-57.998 1.52-59.386-2.786-11.864-36.002l-6.58-.147C22.724 114.21 54.824 99.407 58.056 99L81 150.543Z"/><path fill="#000" d="M44.842 157.06c12.283 1.414 24.89-1.014 35.53-6.84L57.49 99.58c-3.678.798-29.537 12.575-30.194 16.489-.035.202-.016.46.417.688l6.554.145a.274.274 0 0 1 .15.498C11.838 132.949-.919 142.91.693 147.816c1.616 4.916 17.904 5.466 45.492 4.753a.264.264 0 0 1 .253.15.272.272 0 0 1-.031.293c-.182.228-.46.5-.784.816-.759.742-1.906 1.863-1.734 2.549.072.285.392.516.953.684m6.871.939a60.65 60.65 0 0 1-6.958-.4.261.261 0 0 1-.046-.009c-.775-.227-1.23-.591-1.353-1.082-.249-.989.933-2.143 1.882-3.071l.312-.306c-15.993.404-25.763.304-32.591-.33-7.993-.742-11.937-2.227-12.788-4.817-.85-2.584 1.44-6.088 7.426-11.36 5.087-4.482 12.83-10.24 25.813-19.196l-5.771-.128a.281.281 0 0 1-.115-.027c-.754-.367-.835-.908-.77-1.296.407-2.42 8.175-6.784 14.62-10.019 7.362-3.696 14.778-6.775 16.246-6.957.12-.014.235.05.284.159l23.072 51.065a.272.272 0 0 1-.117.35C72.066 155.442 61.923 158 51.713 158"/><path fill="#000" d="M42.255 121a.255.255 0 0 1-.229-.138.244.244 0 0 1 .116-.331l11.49-5.505a.258.258 0 0 1 .342.112c.062.123.01.27-.116.331l-11.49 5.505a.259.259 0 0 1-.113.026M16.281 145a.281.281 0 0 1-.14-.526 407.66 407.66 0 0 1 40.466-20.45.282.282 0 0 1 .224.517 407.105 407.105 0 0 0-40.41 20.421.277.277 0 0 1-.14.038M51.269 140a.269.269 0 0 1-.248-.167.274.274 0 0 1 .144-.357l10.462-4.455a.268.268 0 0 1 .352.146.274.274 0 0 1-.144.357l-10.462 4.455a.261.261 0 0 1-.104.021"/><path fill="#FFF" d="M81.114 145.008 81 166.758c-.009 1.687 1.8 2.77 3.302 1.977C94.583 163.31 125.3 145.223 127 122l-45.886 23.008Z"/><g transform="translate(81 122)"><mask id="d" fill="#fff"><use xlink:href="#c"/></mask><path fill="#000" d="M.843 23.697.729 45.465c-.003.704.355 1.34.96 1.7a1.962 1.962 0 0 0 1.94.049c5.255-2.79 15.436-8.684 24.568-16.799C39.285 20.564 45.352 10.6 46.238.791L.843 23.697ZM2.7 48c-.449 0-.896-.121-1.299-.362a2.499 2.499 0 0 1-1.228-2.176l.115-21.936c0-.104.059-.198.151-.245L46.43.075a.281.281 0 0 1 .28.017c.084.055.131.15.124.25-.736 10.114-6.881 20.37-18.264 30.484C19.392 38.98 9.169 44.898 3.892 47.7c-.377.2-.785.3-1.192.3Z" mask="url(#d)"/></g><path fill="#FFF" d="m61.508 102-16.7-14c-1.294-1.085-.983-3.187.57-3.837C56 79.715 89.174 67.64 108 81.367L61.508 102Z"/><path fill="#000" d="M85.125 75.543c-3.567 0-7.385.311-11.45.934-11.79 1.808-22.562 5.806-27.934 8.028a1.927 1.927 0 0 0-1.176 1.508 1.933 1.933 0 0 0 .681 1.792l16.429 13.607 45.504-19.952c-5.672-3.939-13.061-5.917-22.054-5.917M61.63 102a.271.271 0 0 1-.173-.062L44.9 88.223a2.472 2.472 0 0 1-.872-2.291 2.466 2.466 0 0 1 1.505-1.928c5.394-2.232 16.213-6.248 28.059-8.064 14.696-2.253 26.234-.452 34.294 5.355a.272.272 0 0 1-.05.47L61.74 101.977a.269.269 0 0 1-.11.023"/><path fill="#FFF" d="m214 57.33-.013-.027c-35.715-15.57-131.51 28.365-154.236 39.259-13.98 7.728 6.395 45.211 16.164 52.158 2.453 2.333 6.096 2.935 9.188 1.53C108.049 139.822 203.237 94.6 214 57.33"/><path fill="#000" d="M195.402 54.565c-4.954 0-10.459.44-16.496 1.32-12.89 1.88-28.303 5.78-45.812 11.592-31.139 10.336-60.701 23.981-71.966 29.368-2.775 1.53-4.309 4.396-4.547 8.507-.824 14.274 13.556 37.817 20.697 42.882l.03.025c2.374 2.254 5.848 2.83 8.85 1.47 11.374-5.156 40.84-19.002 68.748-36.165 15.693-9.65 28.563-18.923 38.255-27.559 11.579-10.318 18.723-19.828 21.238-28.272-4.958-2.11-11.315-3.168-18.997-3.168M82.806 151a8.521 8.521 0 0 1-5.866-2.338c-3.82-2.72-9.291-10.132-13.62-18.456-4.991-9.595-7.647-18.665-7.288-24.884.25-4.31 1.878-7.323 4.842-8.957 11.288-5.399 40.876-19.055 72.045-29.4 39.164-13.001 66.721-16.244 81.904-9.64.062.027.11.074.139.134l.012.026a.27.27 0 0 1 .016.189c-4.576 15.805-24.693 34.764-59.792 56.35-27.935 17.179-57.427 31.036-68.81 36.197a8.665 8.665 0 0 1-3.582.779"/><path fill="#FFF" d="M93.957 131.246c-21.166 9.383-35.616-21.469-14.914-31.493 21.165-9.382 35.616 21.47 14.914 31.493"/><path fill="#000" d="M86.839 98.54c-2.357 0-4.895.521-7.565 1.705-10.396 5.035-11.4 15.144-7.928 22.404 3.424 7.163 11.886 12.756 22.376 8.107 10.4-5.04 11.403-15.148 7.932-22.407-2.553-5.34-7.908-9.808-14.815-9.808ZM86.143 133c-7.128 0-12.653-4.61-15.289-10.123-3.58-7.489-2.545-17.917 8.189-23.116 10.833-4.804 19.568.967 23.103 8.36 3.58 7.49 2.545 17.918-8.188 23.117a29.22 29.22 0 0 0-.009.004c-2.754 1.22-5.374 1.758-7.806 1.758Z"/><path fill="#FFF" d="M91.827 126.747c-15.119 6.702-25.44-15.335-10.653-22.495 15.118-6.701 25.44 15.336 10.653 22.495"/><path fill="#000" d="M86.738 102.577c-1.66 0-3.448.381-5.328 1.248-7.32 3.688-8.026 11.093-5.581 16.412 2.411 5.246 8.37 9.342 15.757 5.938 7.324-3.692 8.03-11.096 5.585-16.413-1.798-3.912-5.569-7.185-10.433-7.185ZM86.244 128c-5.091 0-9.038-3.425-10.92-7.52-2.557-5.563-1.818-13.31 5.848-17.172 7.741-3.57 13.98.718 16.504 6.21 2.557 5.564 1.818 13.31-5.848 17.172a.11.11 0 0 0-.009.004c-1.967.907-3.838 1.306-5.575 1.306ZM184.72 89a.28.28 0 0 1-.197-.08c-8.216-8.054-13.51-19.215-14.522-30.62a.276.276 0 0 1 .254-.299.277.277 0 0 1 .303.25c1.001 11.28 6.235 22.316 14.36 30.28.11.106.11.28 0 .388a.281.281 0 0 1-.198.081"/><path fill="#FFF" d="M122.402 99c-4.061 3.238-7.378 6.093-8.29 7.444-2.808 4.158-5.048 27.615-3.719 33.556 0 0 5.322-3.952 12.823-9.773 4.19-10.694 3.432-23.335-.814-31.227"/><path fill="#000" d="M121.935 99.696c-4.623 3.552-7.37 5.928-8.17 7.065-2.8 3.983-5.035 26.021-3.869 32.482 1.37-.983 6.285-4.521 12.723-9.319 3.968-9.79 3.679-22.145-.684-30.228M109.695 140a.319.319 0 0 1-.101-.016.278.278 0 0 1-.188-.198c-1.375-5.902.95-29.176 3.86-33.316.848-1.207 3.734-3.699 8.576-7.407a.32.32 0 0 1 .249-.058.295.295 0 0 1 .205.142c4.602 8.217 4.951 20.979.85 31.034a.271.271 0 0 1-.09.114c-7.621 5.68-13.124 9.609-13.179 9.648a.313.313 0 0 1-.182.057"/><path fill="#5479F7" d="M147.87 64.021c-24.562 2.822-44.417 6.639-44.417 6.639l-2.252-6.515-10.378 3.307c-12.496 38.589 43.074 16.608 50.803 15.72 0 0-11.3 8.295-19.48 14.95-1.092 6.704-2.265 18.93.789 30.878 21.297-16.239 84.992-66.18 24.934-64.979"/><path fill="#000" d="M143.255 83a.26.26 0 0 1-.218-.115.229.229 0 0 1 .086-.326l4.49-2.525a.265.265 0 0 1 .35.081.23.23 0 0 1-.086.326l-4.49 2.525a.27.27 0 0 1-.132.034M125.92 7.094c-2.095-8.08-12.11-4.808-17.407-1.974A48.885 48.885 0 0 1 96 8.546C85.438 10.753 66.7 5.681 60.46 16.31c-1.776 4.655 1.864 9.534 6.32 10.978 1.968 12.361 29.275 10.972 37.775 6.5 8.945-3.796 15.443-11.7 17.994-20.897 1.508-1.759 3.923-3.021 3.37-5.796"/><path fill="#FFF" d="M74.304 51C65.717 63.83 49.92 85.107 48.58 89.16c-1.716 5.189.923 6.556.923 6.556 1.25 1.87 2.661.724 2.661.724.886 1.183 3.006.124 3.006.124 2.952 1.806 4.822-3.315 4.822-3.315 3.229-1.35 3.374-8.305 3.374-8.305L81 53.221 74.304 51Z"/><path fill="#000" d="M51.5 95.897a.28.28 0 0 1 .219.108c.752.979 2.687.052 2.707.043a.277.277 0 0 1 .262.01c.6.359 1.171.436 1.744.236 1.68-.586 2.733-3.344 2.744-3.371a.275.275 0 0 1 .153-.159c3.067-1.25 3.247-7.89 3.248-7.957a.278.278 0 0 1 .036-.13l17.705-31.05-6.269-2.028c-3.045 4.428-6.994 9.897-10.815 15.19-7 9.694-14.237 19.719-15.105 22.278-1.633 4.812.7 6.093.8 6.145a.28.28 0 0 1 .102.09c.374.545.792.856 1.242.924.585.089 1.051-.266 1.056-.27a.275.275 0 0 1 .171-.059M52.79 97c-.481 0-.967-.117-1.34-.472a2.02 2.02 0 0 1-1.259.24c-.592-.089-1.123-.46-1.578-1.104-.432-.258-2.67-1.872-1.006-6.773.894-2.637 7.833-12.248 15.18-22.423 3.868-5.358 7.868-10.897 10.924-15.348.069-.101.196-.144.312-.107l6.786 2.195a.276.276 0 0 1 .155.397L63.126 84.89c-.025.771-.324 6.914-3.478 8.336-.226.558-1.296 2.98-3.033 3.587-.685.24-1.385.169-2.083-.21-.294.126-1.013.398-1.743.398"/><path fill="#000" d="M55.59 96a.253.253 0 0 1-.232-.138c-.532-1.146-.467-2.614.167-3.739.061-.11.212-.155.336-.1.124.056.174.19.112.3-.57 1.015-.63 2.337-.15 3.368.052.114-.009.245-.137.292a.276.276 0 0 1-.096.017M51.127 96c-.15 0-.294-.05-.363-.137-1.178-1.472-.979-3.381.496-4.752.12-.113.37-.145.556-.072.187.073.24.223.12.335-1.328 1.234-1.507 2.954-.447 4.279.097.12.012.265-.188.323a.628.628 0 0 1-.174.024"/><path fill="#000" d="M49.4 95a.19.19 0 0 1-.113-.038c-.13-.097-.17-.307-.2-.515a8.366 8.366 0 0 1 .51-4.307c.05-.122.175-.174.281-.117.106.058.152.203.102.326a7.791 7.791 0 0 0-.478 4.004c.02.139.034.198.044.225.073.078.09.208.034.309a.206.206 0 0 1-.18.113ZM57.238 94a.234.234 0 0 1-.132-.04.242.242 0 0 1-.066-.334 36.25 36.25 0 0 0 2.507-4.489.237.237 0 0 1 .317-.114c.119.057.17.2.113.32-.736 1.57-1.59 3.101-2.541 4.55a.237.237 0 0 1-.198.107"/><path fill="#000" d="M59.64 93h-.02l-1.279-.088c-.198-.014-.351-.228-.34-.48.01-.251.179-.447.379-.431l1.279.087c.198.014.35.229.34.48-.01.244-.17.432-.36.432"/><path fill="#FFF" d="m54.185 140.68-40.87-22.688a2.558 2.558 0 0 1-.995-3.473l15.03-27.202a2.546 2.546 0 0 1 3.465-.997l40.87 22.688a2.558 2.558 0 0 1 .995 3.473l-15.03 27.201a2.546 2.546 0 0 1-3.465.998"/><path fill="#000" d="M29.698 86.556a2.25 2.25 0 0 0-1.975 1.186l-14.896 27.42c-.603 1.108-.208 2.51.88 3.124l40.506 22.87a2.202 2.202 0 0 0 1.714.198 2.247 2.247 0 0 0 1.35-1.095l14.896-27.421c.602-1.109.208-2.51-.88-3.123l-40.506-22.87a2.21 2.21 0 0 0-1.089-.29M55.301 142c-.468 0-.931-.121-1.352-.358l-40.507-22.87c-1.35-.763-1.84-2.503-1.092-3.879l14.896-27.42a2.79 2.79 0 0 1 1.676-1.36 2.734 2.734 0 0 1 2.129.246l40.507 22.87c1.35.762 1.84 2.501 1.092 3.878l-14.896 27.42A2.791 2.791 0 0 1 55.3 142"/><path fill="#000" d="M60.956 118.98c1.356.744 3.02.61 4.237-.343l7.002-5.479a2.236 2.236 0 0 0-.91-3.003l-40.69-22.33c-.53-.291-1.141-.36-1.723-.194a2.244 2.244 0 0 0-1.329 1.023l-.972 8.788a3.784 3.784 0 0 0 1.955 3.74l32.43 17.797Zm1.86 1.02c-.728 0-1.459-.18-2.125-.546l-32.43-17.797a4.324 4.324 0 0 1-2.235-4.274l.98-8.844a.269.269 0 0 1 .032-.101 2.787 2.787 0 0 1 1.683-1.328 2.814 2.814 0 0 1 2.138.24l40.692 22.33a2.776 2.776 0 0 1 1.097 3.787.27.27 0 0 1-.07.082l-7.045 5.514a4.401 4.401 0 0 1-2.717.937Z"/><path fill="#FFF" d="M21.846 117.811c-.793-.403-1.08-1.32-.64-2.047L33.129 96 36 97.46l-11.924 19.763c-.438.728-1.437.991-2.23.588"/><path fill="#000" d="M33.066 96.67 21.72 117.47a1.333 1.333 0 0 0 .508 1.796c.304.17.655.21.989.114.334-.098.61-.322.778-.63l11.345-20.802-2.275-1.28ZM22.856 120c-.31 0-.618-.08-.898-.237a1.906 1.906 0 0 1-.726-2.566l11.48-21.05a.28.28 0 0 1 .38-.112l2.764 1.555a.286.286 0 0 1 .109.386l-11.48 21.05a1.852 1.852 0 0 1-1.629.974Z"/><path fill="#FFF" d="M28.794 113 25 110.928 27.206 107 31 109.072z"/><path fill="#000" d="m25.581 110.758 3.052 1.668 1.786-3.184-3.051-1.668-1.787 3.184ZM28.73 113a.248.248 0 0 1-.12-.03l-3.482-1.905a.242.242 0 0 1-.096-.33l2.025-3.61a.249.249 0 0 1 .335-.095l3.482 1.904a.242.242 0 0 1 .096.33l-2.025 3.61a.245.245 0 0 1-.215.126Z"/><path fill="#FFF" d="M46.846 132.811c-.793-.403-1.08-1.32-.64-2.047L58.129 111 61 112.46l-11.924 19.763c-.438.728-1.437.991-2.23.588"/><path fill="#000" d="M58.066 110.67 46.72 131.47a1.333 1.333 0 0 0 .508 1.796c.304.17.655.21.989.114.334-.098.61-.322.779-.63l11.344-20.802-2.275-1.28ZM47.856 134c-.31 0-.618-.08-.898-.237a1.905 1.905 0 0 1-.725-2.566l11.479-21.05a.28.28 0 0 1 .167-.136.274.274 0 0 1 .213.025l2.764 1.554a.286.286 0 0 1 .109.385l-11.48 21.05a1.854 1.854 0 0 1-1.629.975Z"/><path fill="#FFF" d="M52.794 126 49 123.928 51.206 120 55 122.072z"/><path fill="#000" d="m49.581 124.758 3.052 1.668 1.786-3.184-3.051-1.668-1.787 3.184ZM52.73 127a.248.248 0 0 1-.12-.03l-3.482-1.904a.242.242 0 0 1-.096-.331l2.025-3.61a.247.247 0 0 1 .335-.095l3.482 1.904a.242.242 0 0 1 .096.33l-2.025 3.61a.245.245 0 0 1-.215.126Z"/><path fill="#FFF" d="M51 85.534c-2.205-1.157-4.995-.366-6.216 1.723L42 92.022l1.863.978 2.784-4.765c.652-1.116 2.144-1.553 3.321-.935L51 85.534Z"/><path fill="#000" d="m42.635 92.572 1.28.754 2.488-4.77a2.636 2.636 0 0 1 1.533-1.312 2.377 2.377 0 0 1 1.713.091l.711-1.365a3.753 3.753 0 0 0-2.822-.221c-1.036.324-1.894 1.054-2.416 2.054l-2.487 4.77ZM44.021 94a.257.257 0 0 1-.13-.036l-1.752-1.03a.296.296 0 0 1-.105-.389l2.617-5.019c.591-1.133 1.562-1.959 2.735-2.325a4.264 4.264 0 0 1 3.475.399c.13.076.177.25.105.388l-.97 1.86a.273.273 0 0 1-.161.137.252.252 0 0 1-.205-.025 1.872 1.872 0 0 0-1.538-.169 2.093 2.093 0 0 0-1.218 1.042l-2.618 5.02a.271.271 0 0 1-.235.147Z"/><path fill="#FFF" d="M61.939 92.198 59.949 91A74.28 74.28 0 0 1 59 92.78l2.036 1.209c1.03.627 1.404 2.057.834 3.188l-2.436 4.831 1.63.992 2.436-4.831c1.068-2.119.368-4.797-1.561-5.97"/><path fill="#000" d="m59.117 102.686 1.3.693 2.525-4.389c1.093-1.899.377-4.299-1.596-5.351l-1.933-1.02c-.202.338-.548.91-.757 1.246l1.968 1.024c1.258.671 1.713 2.199 1.018 3.408l-2.525 4.39ZM60.524 104a.28.28 0 0 1-.132-.033l-1.778-.948a.258.258 0 0 1-.107-.358l2.657-4.62c.55-.954.19-2.161-.803-2.69l-2.218-1.154a.256.256 0 0 1-.08-.4c.045-.067.751-1.22 1.007-1.662a.279.279 0 0 1 .37-.102l2.17 1.145h.001c2.236 1.193 3.048 3.914 1.81 6.067l-2.657 4.62a.27.27 0 0 1-.24.135Z"/><path fill="#FFF" d="M170.474 8.895c5.935-1.619 15.547-6.075 21.744-5.89 2.94 1.89-3.251 3.57-4.712 3.784 0 0 1.822 1.183.86 2.938 0 0 1.062.726-.505 2.665.052 1.655-2.548 3.094-4.243 1.815 0 0-13.148 5.315-16.352 5.778-3.205.464.35-10.213 3.208-11.09"/><path fill="#000" d="M168.284 20a.282.282 0 0 1-.272-.19.265.265 0 0 1 .19-.334c3.25-.922 14.7-5.272 14.815-5.316a.3.3 0 0 1 .281.037c.712.522 1.675.577 2.575.146.814-.39 1.326-1.069 1.305-1.73a.258.258 0 0 1 .06-.174c.747-.898.85-1.48.806-1.81-.043-.316-.227-.452-.235-.458a.264.264 0 0 1-.083-.341c.854-1.514-.719-2.53-.786-2.572a.261.261 0 0 1-.12-.28.278.278 0 0 1 .235-.207c1.444-.207 5.112-1.29 5.363-2.362.065-.276-.135-.568-.594-.87-4.244-.11-10.421 1.998-15.88 3.86-2.279.778-4.431 1.513-6.179 1.987a.288.288 0 0 1-.351-.184.266.266 0 0 1 .194-.33c1.729-.47 3.873-1.201 6.142-1.976 5.543-1.89 11.823-4.034 16.175-3.89a.293.293 0 0 1 .147.045c.722.451 1.025.946.901 1.473-.328 1.397-3.732 2.344-5.244 2.666.593.578 1.138 1.558.591 2.712.11.129.237.334.283.63.096.614-.192 1.341-.857 2.163-.02.835-.645 1.66-1.616 2.125-1.03.493-2.182.449-3.046-.108-1.353.513-11.646 4.405-14.718 5.276a.3.3 0 0 1-.082.012"/><path fill="#000" d="M184.774 12a2.08 2.08 0 0 1-1.605-.71.261.261 0 0 1-.032-.044 1.144 1.144 0 0 1-.03-1.025c.132-.29.377-.5.672-.576a.28.28 0 0 1 .34.183c.041.14-.046.283-.194.32a.487.487 0 0 0-.31.28.657.657 0 0 0 0 .55c.334.365.752.528 1.279.497 1.356-.081 2.96-1.42 3.595-2.354a.289.289 0 0 1 .383-.08c.129.077.167.239.084.36-.672.99-2.417 2.498-4.027 2.594a2.57 2.57 0 0 1-.155.005"/><path fill="#000" d="M185.719 11a.876.876 0 0 1-.3-.053c-.287-.105-.496-.33-.698-.548-.16-.174-.313-.338-.487-.418-.301-.144-.757.023-1.199.184-.535.195-1.089.397-1.522.119-.24-.154-.41-.44-.505-.851-.032-.14.038-.282.157-.32.12-.037.241.045.273.184.063.272.158.446.29.53.266.172.728.003 1.175-.159.516-.188 1.05-.383 1.497-.17.25.115.44.32.623.519.174.186.337.363.528.433.173.063.368.023.549-.112.24-.179.417-.499.452-.814.091-1.564-1.387-2.662-2.402-3.014-.118-.04-.185-.186-.15-.323.034-.138.158-.217.276-.176 1.426.495 2.818 1.878 2.719 3.564-.054.485-.304.94-.655 1.201a1.04 1.04 0 0 1-.621.224M184.673 13c-.362 0-.697-.062-.972-.21-.36-.193-.773-.616-.69-1.531a.277.277 0 0 1 .3-.258.283.283 0 0 1 .25.31c-.044.49.086.808.396.974.843.452 2.832-.24 3.587-.898a.272.272 0 0 1 .39.034.29.29 0 0 1-.032.401c-.6.523-2.056 1.178-3.229 1.178M183.557 14c-.181 0-.351-.07-.416-.184a.995.995 0 0 1-.14-.545c.007-.154.205-.272.455-.271.244.004.437.132.43.286a.63.63 0 0 0 .087.34c.084.145-.035.305-.265.357a.673.673 0 0 1-.15.017"/><path fill="#FFF" d="m170 9-58.762 19c-20.946 7.63-32.326 2.572-58.236 52.505-.15.057 10.697 4.495 10.697 4.495.125-.04 28.097-34.28 28.097-34.28L88.26 70.435l35.075-9.718a6.865 6.865 0 0 0 4.81-4.959l5.083-20.25 35.416-15.552c-1.12-3.398-.348-7.102 1.356-10.956"/><path fill="#000" d="M63.014 84a.274.274 0 0 1-.106-.021L52.17 79.458a.277.277 0 0 1-.14-.382C72.849 37.482 85.365 33.8 101.212 29.137c3.003-.884 6.11-1.797 9.431-3.01l.002.007a1.66 1.66 0 0 1 .177-.065L169.64 7.013a.275.275 0 0 1 .29.08.28.28 0 0 1 .046.298c-1.919 4.35-2.348 7.788-1.351 10.82a.279.279 0 0 1-.152.342L133.045 34.14l-5.07 20.236c-.63 2.515-2.554 4.503-5.022 5.188a.278.278 0 0 1-.147-.536c2.277-.632 4.053-2.467 4.634-4.788l5.103-20.368a.278.278 0 0 1 .157-.187l35.325-15.542c-.887-2.94-.493-6.353 1.204-10.413l-58.407 18.922c-3.33 1.216-6.444 2.132-9.456 3.018-15.684 4.615-28.079 8.26-48.71 49.389l10.275 4.326 28.075-34.322a.275.275 0 0 1 .33-.075.279.279 0 0 1 .154.302L88.03 68.635l1.758-.68a.275.275 0 0 1 .356.161.279.279 0 0 1-.159.36l-2.215.855a.274.274 0 0 1-.275-.045.279.279 0 0 1-.095-.264l3.361-18.783L63.227 83.9a.275.275 0 0 1-.213.101"/><path fill="#000" d="M104.325 52c-3.549 0-7.027-1.318-8.308-4.641a.264.264 0 0 1 .164-.342.28.28 0 0 1 .356.157c1.516 3.931 6.741 4.939 11.12 3.902a.278.278 0 0 1 .335.195.266.266 0 0 1-.203.322 15.162 15.162 0 0 1-3.464.407M124.223 45c-.111 0-.207-.104-.221-.247-.015-.154.072-.295.194-.314 1.737-.27 3.314-1.568 4.327-3.563 1.022-2.011 1.3-4.384.762-6.509-.037-.148.028-.306.145-.354.117-.047.243.035.28.183.578 2.285.282 4.83-.81 6.984-1.086 2.136-2.78 3.528-4.65 3.818a.155.155 0 0 1-.027.002"/><path fill="#FFF" d="M114.087 17 110 27.186c.727 3.514 2.286 8.931 4.412 8.812 3.659-.205 4.405-11.748 6.588-16.673L114.087 17Z"/><path fill="#000" d="M110.553 27.727c.822 4.244 2.255 8.71 3.845 8.71h.052c2.06-.124 3.178-5.301 4.164-9.87.552-2.555 1.075-4.976 1.755-6.74l-6.054-2.19-3.762 10.09ZM114.399 37c-2.276 0-3.727-5.773-4.394-9.244a.291.291 0 0 1 .013-.156l3.885-10.42a.269.269 0 0 1 .343-.164l6.572 2.378c.071.026.128.081.159.152a.29.29 0 0 1 .001.224c-.714 1.735-1.258 4.254-1.834 6.92-1.129 5.224-2.194 10.16-4.663 10.307a1.327 1.327 0 0 1-.082.003Z"/><path fill="#FFF" d="M124.944 14.136c.75 5.697-6.171 7.915-10.037 3.606-5.852.95-4.515-6.685-.033-2.492.858.034.745-.97.511-1.471-1.034-3.832 3.543-6.652 7.423-6.692.252-.018 1.044-.168 1.248-.027.668 2.232.8 4.74.888 7.076"/><path fill="#000" d="M115.033 17.906c.085 0 .166.04.22.109 1.674 2.156 4.142 2.947 6.29 2.016 2.059-.894 3.149-3.114 2.843-5.796a.37.37 0 0 1-.002-.024c-.087-2.673-.214-5.269-.806-7.634-.164-.01-.539.045-.693.068a4.314 4.314 0 0 1-.247.032c-2.277.029-4.667 1.21-5.968 2.94-.927 1.233-1.242 2.65-.91 4.098.145.371.316 1.164-.016 1.656-.117.173-.338.375-.755.356a.277.277 0 0 1-.191-.09c-1.07-1.156-2.046-1.579-2.679-1.16-.533.352-.711 1.257-.407 2.06.441 1.162 1.664 1.676 3.271 1.374a.265.265 0 0 1 .05-.005M119.694 21c-1.734 0-3.467-.874-4.775-2.488-2.676.43-3.53-1.233-3.73-1.762-.407-1.07-.137-2.26.627-2.765.41-.27 1.542-.69 3.3 1.155a.23.23 0 0 0 .166-.102c.15-.224.096-.76-.05-1.121a.292.292 0 0 1-.014-.044c-.382-1.634-.033-3.23 1.007-4.614 1.4-1.863 3.967-3.134 6.387-3.163.031-.003.106-.014.193-.027.53-.079.953-.124 1.18.057a.29.29 0 0 1 .1.155c.638 2.46.772 5.14.861 7.898.332 2.945-.888 5.392-3.186 6.39-.67.29-1.368.431-2.066.431"/><path fill="#000" d="M113.692 18a.268.268 0 0 1-.053-.005l-1.383-.28c-.168-.035-.28-.22-.251-.417.029-.195.187-.326.356-.293l1.383.28c.168.035.28.221.251.417-.026.175-.156.298-.303.298"/></g></svg>