<svg xmlns="http://www.w3.org/2000/svg" xmlns:xlink="http://www.w3.org/1999/xlink" width="191" height="179"><defs><path id="a" d="M0 0h190.82v179H0z"/></defs><g fill="none" fill-rule="evenodd"><path fill="#FFF" d="M66 172h111v-42H66z"/><g><mask id="b" fill="#fff"><use xlink:href="#a"/></mask><path fill="#000" d="M66.367 171.885H177.01v-41.209H66.367v41.209Zm110.857.43H66.152a.215.215 0 0 1-.214-.215v-41.64c0-.118.096-.215.214-.215h111.072c.119 0 .215.097.215.216V172.1c0 .12-.096.215-.215.215Z" mask="url(#b)"/><path fill="#000" d="M141.95 159.833a.215.215 0 0 1-.183-.327l8.965-14.761a.215.215 0 0 1 .178-.104.235.235 0 0 1 .183.095l9.995 14.76a.215.215 0 0 1-.057.3.214.214 0 0 1-.299-.057l-9.807-14.484-8.791 14.475a.215.215 0 0 1-.184.103M166.721 154.924a.213.213 0 0 1-.17-.084l-6.141-7.946-3.14 4.428a.215.215 0 1 1-.35-.25l3.307-4.664a.215.215 0 0 1 .345-.007l6.319 8.176a.215.215 0 0 1-.17.347M163.928 140.07a1.799 1.799 0 0 0 0 3.598 1.798 1.798 0 0 0 0-3.597m0 4.028a2.23 2.23 0 0 1 0-4.459 2.23 2.23 0 0 1 0 4.46" mask="url(#b)"/><path fill="#000" d="M152.495 156.983c-.1 0-.201-.008-.3-.023-.937-.146-1.65-.957-2.166-1.647l-.221-.3c-.447-.61-.91-1.243-1.516-1.585a1.61 1.61 0 0 0-1.241-.143 1.096 1.096 0 0 0-.676.583.215.215 0 1 1-.389-.184c.185-.393.508-.673.935-.81a2.02 2.02 0 0 1 1.581.179c.688.388 1.178 1.057 1.652 1.705l.219.296c.467.625 1.104 1.358 1.887 1.48.62.096 1.331-.216 1.904-.836.541-.587.917-1.354 1.28-2.095a.214.214 0 0 1 .289-.099c.106.053.15.182.098.289-.378.769-.767 1.564-1.352 2.198-.592.641-1.3.992-1.984.992M128.315 144.513h-7.865a.215.215 0 0 1 0-.43h7.865a.215.215 0 0 1 0 .43M113.99 144.513H80.068a.215.215 0 0 1 0-.43h33.922a.215.215 0 0 1 0 .43M128.315 151.496h-27.32a.215.215 0 0 1 0-.431h27.32a.215.215 0 0 1 0 .43M93.992 151.496H80.068a.215.215 0 0 1 0-.431h13.924a.215.215 0 0 1 0 .43M128.315 158.478H117.61a.215.215 0 0 1 0-.43h10.705a.215.215 0 0 1 0 .43M109.184 158.478H80.068a.215.215 0 0 1 0-.43h29.116a.215.215 0 0 1 0 .43" mask="url(#b)"/><path fill="#FFF" d="M65.87 112.135h111.4V48.437H65.87z" mask="url(#b)"/><path fill="#000" d="M153.21 112.35H65.87a.215.215 0 0 1-.214-.215V48.437c0-.12.096-.215.215-.215h111.4c.118 0 .214.096.214.215v44.169a.215.215 0 1 1-.43 0V48.652H66.085v63.268h87.124a.215.215 0 0 1 0 .43" mask="url(#b)"/><path fill="#E2EAFF" d="M76.512 68.866h90.117v-5.853H76.512zM76.512 80.736h90.117v-5.853H76.512zM76.512 92.606h90.117v-5.853H76.512zM163.72 126.922h27.1v-27.17h-27.1z" mask="url(#b)"/><path fill="#5479F7" d="M182.064 108.212h-4.403v11.678h-.449v-11.678h-4.403v-.45h9.255z" mask="url(#b)"/><path fill="#FFF" d="M66.152 37.107h111.072V14.694H66.152z" mask="url(#b)"/><path fill="#000" d="M66.367 36.891H177.01V14.91H66.367V36.89Zm110.857.431H66.152a.215.215 0 0 1-.214-.215V14.694c0-.119.096-.215.214-.215h111.072c.119 0 .215.096.215.215v22.413a.215.215 0 0 1-.215.215Z" mask="url(#b)"/><path fill="#E2EAFF" d="M80.476 19.835c-3.342 0-6.05 2.715-6.05 6.065 0 1.33.428 2.56 1.153 3.56l-1.153 2.506 2.565-1.109a6.01 6.01 0 0 0 3.485 1.109c3.34 0 6.05-2.716 6.05-6.066 0-3.35-2.71-6.065-6.05-6.065" mask="url(#b)"/><path fill="#000" d="M169.605 21.226h-10.272a.215.215 0 0 1 0-.431h10.272a.215.215 0 0 1 0 .43M151.18 21.226H95.506a.215.215 0 0 1 0-.431h55.676a.215.215 0 0 1 0 .43M169.605 26.116h-47.917a.215.215 0 0 1 0-.431h47.917a.215.215 0 0 1 0 .43M113.68 26.116H95.505a.215.215 0 0 1 0-.431h18.175a.215.215 0 0 1 0 .43M169.605 31.006h-20.427a.215.215 0 0 1 0-.431h20.427a.215.215 0 0 1 0 .43M138.3 31.006H95.505a.215.215 0 0 1 0-.431H138.3a.215.215 0 0 1 0 .43" mask="url(#b)"/><path fill="#FFF" d="m52.856 19.667 2.762-7.801s-1.245-3.558.934-5.305c2.179-1.748 5.727-.624 5.727-.624s2.832 4.524 3.486 7.614c.478 2.26-.56 3.733-5.105 3.926l-.871 2.19h-6.933Z" mask="url(#b)"/><path fill="#000" d="M53.16 19.451h6.483l.818-2.054a.214.214 0 0 1 .19-.135c2.418-.103 3.918-.57 4.583-1.432.42-.54.524-1.272.32-2.235-.594-2.81-3.059-6.894-3.415-7.475-.514-.144-3.56-.909-5.453.61-2.036 1.632-.877 5.03-.865 5.064a.216.216 0 0 1 0 .144l-2.66 7.513Zm6.629.431h-6.933a.216.216 0 0 1-.202-.288l2.737-7.73c-.174-.544-1.094-3.77 1.027-5.471 2.242-1.799 5.776-.71 5.925-.661.05.015.09.047.118.09.116.186 2.86 4.593 3.514 7.684.231 1.094.1 1.94-.401 2.588-.735.95-2.294 1.47-4.766 1.592l-.82 2.06a.214.214 0 0 1-.2.136Z" mask="url(#b)"/><path fill="#000" d="M60.858 17.187a.215.215 0 0 1-.205-.28l1.153-3.646a.214.214 0 0 1 .27-.14.216.216 0 0 1 .14.27l-1.153 3.646a.215.215 0 0 1-.205.15M63.11.694c-1.83-1.396-6.297-.353-8.565.241-2.267.594-4.178 2.267-5.042 4.346-.863 2.078-.68 4.514.432 6.483.317.56.752 1.118 1.392 1.301l.103-1.393c.015-.194.062-.433.291-.46a.371.371 0 0 1 .396.285c.59 2.593 3.24 2.913 5.575 2.828.555-.02.932-.547.748-1.045-.023-.062-.04-.126-.06-.189a3.635 3.635 0 0 1-.69-.797 4.634 4.634 0 0 1-.727-2.09c-.056-.64.063-1.35.55-1.808.423-.398 1.044-.517 1.594-.346.182.056.349.14.501.241 1.826 3.194 1.295-.982 2.08-1.215.716-.212 1.61-.369 1.642-1.253.005-.148 2.964-2.7-.22-5.129" mask="url(#b)"/><path fill="#000" d="M59.324 13.783a1.42 1.42 0 0 1-.749-.21.216.216 0 0 1 .227-.366.995.995 0 0 0 .902.07c.289-.123.51-.39.578-.699a.215.215 0 1 1 .42.092 1.437 1.437 0 0 1-.83 1.003c-.174.074-.361.11-.548.11M60.15 11.7a.215.215 0 0 1-.185-.106 2.444 2.444 0 0 0-1.029-.954.216.216 0 0 1 .188-.388c.5.244.93.643 1.212 1.124a.216.216 0 0 1-.186.325" mask="url(#b)"/><path fill="#FFF" d="M90.086 31.191s8.524 1.523 13.267.87c0 0 3.006-3.47 4.439-7.835 1.433-4.365-2.26-4.586-2.26-4.586s-.77-2.486-3.416-1.16c0 0-.413-1.27-2.314-.774-1.902.498-5.98 2.708-6.117 5.028 0 0-1.516.608-2.04 2.173-.26.78-1.56 6.284-1.56 6.284" mask="url(#b)"/><path fill="#000" d="M90.348 31.017c1.368.231 8.653 1.398 12.894.842.403-.482 3.046-3.742 4.346-7.7.454-1.384.425-2.468-.086-3.222-.672-.992-1.969-1.08-1.982-1.082a.215.215 0 0 1-.192-.15c-.003-.01-.3-.924-1.108-1.267-.554-.234-1.23-.156-2.008.234a.216.216 0 0 1-.3-.126c-.015-.042-.387-1.068-2.056-.631-1.955.511-5.829 2.68-5.957 4.832a.216.216 0 0 1-.134.187c-.014.006-1.431.594-1.915 2.042-.225.672-1.256 5.003-1.502 6.041m10.231 1.42c-4.677 0-10.46-1.021-10.531-1.034a.216.216 0 0 1-.171-.262c.053-.225 1.305-5.522 1.565-6.302.466-1.393 1.651-2.063 2.04-2.25.291-2.5 4.57-4.648 6.265-5.091 1.565-.409 2.232.313 2.466.698.82-.369 1.552-.42 2.179-.153.793.34 1.17 1.088 1.296 1.397.396.054 1.514.287 2.17 1.255.59.87.636 2.081.138 3.598-1.43 4.355-4.45 7.874-4.481 7.91a.213.213 0 0 1-.133.072c-.837.115-1.794.162-2.803.162" mask="url(#b)"/><path fill="#000" d="M101.249 22.183a.216.216 0 0 1-.194-.307c.49-1.053.79-2.175.89-3.334a.215.215 0 1 1 .428.038 10.375 10.375 0 0 1-.93 3.479.215.215 0 0 1-.194.124M104.62 23.521a.215.215 0 0 1-.195-.304l.026-.056a9.942 9.942 0 0 0 .903-3.508.218.218 0 0 1 .229-.201c.118.008.208.11.2.229a10.378 10.378 0 0 1-.968 3.717.215.215 0 0 1-.194.123M93.61 24.162a.215.215 0 0 1-.071-.419c1.558-.557 2.88-.924 4.657-1.035a.215.215 0 0 1 .026.43c-1.726.108-3.016.467-4.539 1.011a.212.212 0 0 1-.072.013M96.759 22.533a.215.215 0 0 1-.193-.31 31.281 31.281 0 0 1 1.838-3.238.215.215 0 1 1 .36.235 30.763 30.763 0 0 0-1.812 3.192.215.215 0 0 1-.193.12" mask="url(#b)"/><path fill="#000" d="M88.268 30.337a.855.855 0 0 1-.573-1.484l7.855-7.167a.85.85 0 0 1 1.202.057.855.855 0 0 1-.056 1.205l-7.855 7.166a.846.846 0 0 1-.573.223" mask="url(#b)"/><path fill="#FFF" d="m38.783 62.931-8.459-2.404s2.565-9.04 4.588-9.728l7.3.76-3.43 11.372Z" mask="url(#b)"/><path fill="#000" d="m30.59 60.38 8.048 2.286 3.292-10.919-6.99-.728c-1.527.617-3.596 6.761-4.35 9.36m8.193 2.768a.205.205 0 0 1-.059-.008l-8.459-2.404a.214.214 0 0 1-.148-.266c.266-.937 2.656-9.17 4.726-9.874.029-.01.06-.013.09-.01l7.3.76a.216.216 0 0 1 .184.277L38.99 62.994a.215.215 0 0 1-.206.153" mask="url(#b)"/><path fill="#5479F7" d="M29.668 61.918 34.912 50.8l-4.588-4.94 8.555-8.328s.248 5.345-1.364 9.944c-1.611 4.6-.061 8.577 4.96 9.696 3.994.89 21.79.364 28.908.112a3.069 3.069 0 0 0 2.957-3.072V51.7s9.175 10.629 18.598 9.448c9.423-1.18 10.724-13.052 10.414-29.088 0 0-8.74-2.797-13.266-.87l-1.24 2.237-7.801-9.738a14.793 14.793 0 0 0-12.608-5.512c-7.74.557-19.73 1.479-28.64 2.437a30.839 30.839 0 0 0-18.608 8.956C16.205 34.6 9.612 41.612 9.61 46.01c-.008 12.643 20.06 15.907 20.06 15.907" mask="url(#b)"/><path fill="#000" d="M74.492 51.005a.215.215 0 0 1-.214-.208A30.639 30.639 0 0 1 76.48 38.43a.215.215 0 1 1 .399.162 30.208 30.208 0 0 0-2.173 12.19.215.215 0 0 1-.208.222h-.007M38.783 37.475h-.001a.215.215 0 0 1-.214-.217 4.529 4.529 0 0 0-1.635-3.463.215.215 0 1 1 .27-.335 4.903 4.903 0 0 1 1.795 3.801.215.215 0 0 1-.215.214M26.56 49.495a.216.216 0 0 1-.147-.372l3.458-3.27a.216.216 0 0 1 .295.313l-3.46 3.27a.213.213 0 0 1-.147.06M97.671 43.914a.215.215 0 0 1-.161-.073c-1.141-1.308-8.75-10.183-8.827-10.272a.215.215 0 1 1 .326-.28c.072.083 6.824 7.958 8.562 9.966l.43-1.558a.215.215 0 0 1 .415.114l-.537 1.945a.215.215 0 0 1-.208.158" mask="url(#b)"/><path fill="#FFF" d="M32.145 178.785h-17.68c-4.14 0-8.192-1.202-11.665-3.46a5.682 5.682 0 0 1-2.379-6.272c5.022-18.247 26.159-93.418 39.38-114.905 0 0 17.235.964 28.898-1.26 2.123-.404 4.086 1.235 4.091 3.401.05 20.19.236 103.51-.01 114.147l5.87 5.338c1.168 1.063.419 3.01-1.159 3.01H48.56c-3.574 0-6.393-3.048-6.121-6.621l5.187-71.424-16.406 68.673a7.475 7.475 0 0 0 1.922 6.99c.869.886.242 2.383-.997 2.383" mask="url(#b)"/><path fill="#000" d="M77.491 179H48.56a6.365 6.365 0 0 1-4.66-2.04 6.399 6.399 0 0 1-1.676-4.813l4.996-68.784-15.79 66.1a7.214 7.214 0 0 0 1.866 6.787c.463.474.592 1.147.336 1.759a1.588 1.588 0 0 1-1.487.991h-17.68a21.566 21.566 0 0 1-11.782-3.495 5.876 5.876 0 0 1-2.469-6.509c5.947-21.61 26.364-93.768 39.403-114.961a.214.214 0 0 1 .296-.07.216.216 0 0 1 .07.296C26.638 75.951 4.859 153.737.628 169.111a5.446 5.446 0 0 0 2.289 6.033 21.141 21.141 0 0 0 11.548 3.425h17.68c.485 0 .903-.279 1.09-.727a1.17 1.17 0 0 0-.246-1.29 7.644 7.644 0 0 1-1.978-7.19l16.406-68.674a.214.214 0 0 1 .423.066l-5.187 71.425a5.888 5.888 0 0 0 1.562 4.488 5.857 5.857 0 0 0 4.345 1.902H77.49c.764 0 1.229-.5 1.41-.969.18-.468.17-1.152-.395-1.666l-5.871-5.338a.217.217 0 0 1-.07-.165c.249-10.75.052-96.967.01-114.141a.215.215 0 1 1 .43-.001c.042 17.124.237 102.881-.009 114.054l5.798 5.272c.608.552.803 1.372.507 2.14A1.903 1.903 0 0 1 77.49 179" mask="url(#b)"/><path fill="#000" d="m47.405 100.023-.017-.001a.215.215 0 0 1-.198-.231l1.543-20.37c.101-1.334.216-2.848-.351-4.145-.518-1.185-1.874-2.21-3.163-1.797a.215.215 0 0 1-.13-.411c1.516-.484 3.093.679 3.686 2.035.61 1.395.491 2.966.387 4.351l-1.543 20.37a.215.215 0 0 1-.214.199M57.703 171.643c-4.765 0-9.529-.314-14.26-.94a.215.215 0 0 1 .056-.427 108.288 108.288 0 0 0 28.375.005.213.213 0 0 1 .241.185.215.215 0 0 1-.184.242c-4.72.623-9.475.935-14.228.935M29.927 172.315h-.012a98.906 98.906 0 0 1-28.111-5.767.216.216 0 0 1-.13-.276.214.214 0 0 1 .275-.129 98.496 98.496 0 0 0 27.99 5.742.215.215 0 0 1-.012.43" mask="url(#b)"/></g></g></svg>